<svg version="1.2" xmlns="http://www.w3.org/2000/svg" viewBox="0 0 1481 1560" width="1481" height="1560">
	<title>reshot-illustration-online-shopping-PVEQS8R7BH-ai</title>
	<defs>
		<linearGradient id="g1" x1="925.5" y1="547.3" x2="898.4" y2="676.2" gradientUnits="userSpaceOnUse">
			<stop offset="0" stop-color="#fdcd5e" stop-opacity=".1"/>
			<stop offset="1" stop-color="#fdcd5e"/>
		</linearGradient>
	</defs>
	<style>
		.s0 { fill: #b7bad2 } 
		.s1 { fill: #443a5c } 
		.s2 { fill: #302849 } 
		.s3 { fill: #dcddeb } 
		.s4 { fill: #8887fc } 
		.s5 { fill: #9894aa } 
		.s6 { fill: #efeff4 } 
		.s7 { fill: #c0c2d1 } 
		.s8 { fill: #9c54bd } 
		.s9 { fill: #ff94a0 } 
		.s10 { fill: #b561db } 
		.s11 { fill: #f7b43e } 
		.s12 { fill: #f7af31 } 
		.s13 { fill: #ffcd5e } 
		.s14 { fill: #f7bf4f } 
		.s15 { fill: #dcdce2 } 
		.s16 { fill: url(#g1) } 
		.s17 { opacity: .8;fill: #b561db } 
		.s18 { fill: #e09eff } 
		.s19 { fill: #f7b237 } 
		.s20 { fill: #ed9a15 } 
		.s21 { fill: #fcbd3f } 
		.s22 { fill: #e29e9a } 
		.s23 { fill: #6b6eea } 
		.s24 { opacity: .7;fill: #8887fc } 
		.s25 { fill: #9f9ffc } 
		.s26 { fill: #f9c4aa } 
		.s27 { fill: #ce9795 } 
		.s28 { fill: #5f546f } 
		.s29 { fill: #433a59 } 
		.s30 { fill: #382130 } 
		.s31 { fill: #f4b49a } 
		.s32 { fill: #e5b5b1 } 
	</style>
	<g id="Layer 1">
		<g id="&lt;Group&gt;">
			<path id="&lt;Path&gt;" class="s0" d="m1345 1202.4l-2.5 1.4-281.8 162.7c-5.5 3.2-11.5 5.3-17.6 6.4-12.2 2.1-25 0-36-6.4l-86.7-50c-16.5-9.6-36.8-9.6-53.3 0l-196.7 113.5-3.6 2.1c-15.7 9-35 9-50.7 0l-143.9-83.1c-16.7-9.6-37.3-9.6-53.9 0l-1.5 0.9c-17.1 9.8-38.2 9.8-55.2-0.1l-168.9-97.4-2.5-1.4c-11.2-6.5-11.2-22.7 0-29.2l227.4-131.3 2.5-1.4c11.2-6.5 11.2-22.6 0-29.1l-199.3-115.1-2.5-1.5c-11.3-6.4-11.3-22.6 0-29.1l308.4-178.1c19-11 42.4-11 61.4 0l756.9 437c11.2 6.5 11.2 22.7 0 29.2z"/>
			<path id="&lt;Path&gt;" class="s1" d="m1342.5 1203.8l-281.8 162.7c-5.5 3.2-11.5 5.3-17.6 6.4-12.2 2.1-25 0-36-6.4l-86.7-50c-16.5-9.6-36.8-9.6-53.3 0l-196.7 113.5-3.6 2.1c-15.7 9-35 9-50.7 0l-143.9-83.1c-16.7-9.6-37.3-9.6-53.9 0l-1.5 0.9c-17.1 9.8-38.2 9.8-55.2-0.1l-168.9-97.4 27.1-15.7 200.3-115.5c11.2-6.5 11.2-22.7 0-29.2l-2.5-1.5 2.5-1.4c11.2-6.5 11.2-22.6 0-29.1l-57.9-33.5-141.4-81.6 305.9-176.6c19-11 42.4-11 61.4 0z"/>
			<path id="&lt;Path&gt;" class="s2" d="m1043.1 1372.9c-12.2 2.1-25 0-36-6.4l-86.7-50c-16.5-9.6-36.8-9.6-53.3 0l-196.7 113.5-115.9-66.9c-11.2-6.4-11.2-22.5 0-29l116.7-67.3c16.3-9.4 36.3-9.4 52.6 0l87.8 50.6c16.1 9.3 36 9.3 52.2 0l30.8-17.8c16.8-9.7 37.5-9.7 54.2 0l88 50.7c8.3 4.8 10.4 15 6.3 22.6z"/>
			<path id="&lt;Path&gt;" class="s2" d="m670.4 1172.3l-258.9 149.4c-13.8 8-30.8 7.9-44.6 0l-147.1-85 200.3-115.5c11.2-6.5 11.2-22.7 0-29.2l-2.5-1.5 2.5-1.4c11.2-6.5 11.2-22.6 0-29.1l-57.9-33.5 27.6-15.9c17-9.8 37.8-9.8 54.8 0l225.8 130.3c12 7 12 24.4 0 31.4z"/>
			<path id="&lt;Path&gt;" class="s0" d="m554.5 1270.1l116.7-67.4c16.3-9.4 36.3-9.4 52.6 0l87.8 50.6c16.1 9.3 36 9.3 52.2 0l30.8-17.8c16.8-9.7 37.5-9.7 54.2 0l88 50.7c11.1 6.5 11.1 22.6 0 29l-197.8 114.3c-18.2 10.4-40.5 10.4-58.7 0l-225.8-130.5c-11.2-6.4-11.2-22.5 0-28.9z"/>
			<path id="&lt;Path&gt;" class="s0" d="m546.1 1284.4v-31.2l31.6 8.2c0 0-9.7 21.1-11.1 21.1-1.4 0-20.5 1.9-20.5 1.9z"/>
			<path id="&lt;Path&gt;" class="s0" d="m1020.5 1297.1l8.9-26.4 15.8-1.9v31.8z"/>
			<path id="&lt;Path&gt;" class="s0" d="m366.9 1255.5l-230.4-133.1c-12.3-7-12.3-24.7 0-31.8l253.3-146.2c17-9.8 37.8-9.8 54.8 0l225.8 130.3c12 7 12 24.4 0 31.3l-259 149.5c-13.7 7.9-30.7 7.9-44.5 0z"/>
			<path id="&lt;Path&gt;" class="s0" d="m127.3 1106.6v-32.1l21 2.9c0 0 2.5 23.5 1.5 23.7-1.1 0.2-22.5 5.5-22.5 5.5z"/>
			<path id="&lt;Path&gt;" class="s3" d="m366.9 1223.4l-230.4-133c-12.3-7.1-12.3-24.8 0-31.9l253.3-146.2c17-9.7 37.8-9.7 54.8 0l225.8 130.4c12 6.9 12 24.3 0 31.3l-259 149.4c-13.7 8-30.7 8-44.5 0z"/>
			<path id="&lt;Path&gt;" class="s3" d="m1036.8 1283.2l-197.8 114.2c-18.2 10.5-40.5 10.5-58.7 0l-225.8-130.4c-11.2-6.4-11.2-22.5 0-29l46.2-26.6 25.6-14.8 44.9-26c16.3-9.4 36.3-9.4 52.6 0l87.8 50.7c16.1 9.3 36 9.3 52.2 0l30.8-17.9c16.8-9.6 37.5-9.6 54.2 0l88 50.8c11.1 6.4 11.2 22.5 0 29z"/>
			<path id="&lt;Path&gt;" class="s4" d="m626.3 1196.6l-25.6 14.8-52.7-30.4c-6.1-3.5-8.2-11.4-4.7-17.5 2.4-4.1 6.7-6.4 11.2-6.4 2.1 0 4.3 0.5 6.3 1.7z"/>
			<path id="&lt;Path&gt;" class="s0" d="m632.6 133.1l-10.7 14.6-22.2-8.4 25-14.4z"/>
			<path id="&lt;Path&gt;" class="s0" d="m945.4 1026.8l-25.2 14.5 1.4-20.3 23.1-1.6z"/>
			<path id="&lt;Path&gt;" class="s0" d="m610.3 814.1v-664.5c0-21.9 23.7-35.6 42.7-24.6l275.9 159.3c19.1 11 30.8 31.3 30.8 53.3v664.5c0 21.9-23.7 35.6-42.7 24.6l-275.9-159.3c-19.1-11-30.8-31.3-30.8-53.3z"/>
			<path id="&lt;Path&gt;" class="s5" d="m838 247.2l-1.2 3.7-1.8-0.4-0.1-4z"/>
			<path id="&lt;Path&gt;" class="s5" d="m882.7 261.4v3.8l-2.4-0.4-1-2.3 1.1-1.7z"/>
			<path id="&lt;Path&gt;" class="s6" d="m585.3 828.5v-664.5c0-21.9 23.7-35.5 42.7-24.6l276 159.3c19 11 30.8 31.3 30.8 53.3v664.5c0 21.9-23.7 35.6-42.7 24.6l-276-159.4c-19-11-30.8-31.3-30.8-53.2z"/>
			<path id="&lt;Path&gt;" class="s7" d="m909.2 396.9v520.4c0 7.1-2.5 13.3-6.5 18.1-8.4 10.1-23.4 13.9-36.2 6.5l-226.1-130.5c-19-11-30.8-31.3-30.8-53.3l0.1-520.4c0-9.1 4.1-16.8 10.2-21.9 8.7-7.1 21.4-9.1 32.4-2.8l226.1 130.6c19 11 30.8 31.3 30.8 53.3z"/>
			<path id="&lt;Path&gt;" class="s1" d="m909.8 395.2v520.4c0 4-0.7 7.7-2.2 11-1 2.6-2.5 5-4.2 7.1-8.7 7.1-21.4 9.2-32.5 2.8l-226-130.5c-19.1-11-30.8-31.3-30.8-53.3v-246.4-105.2-168.9c0-7 2.5-13.3 6.5-18.1 8.6-7.1 20.7-7.4 31.7-1.1l224.8 131.7c19.1 11 32.7 28.5 32.7 50.5z"/>
			<path id="&lt;Path&gt;" class="s1" d="m757 922.1c0 14-9.8 19.6-21.9 12.6-12.1-6.9-21.9-23.9-21.9-37.9 0-13.9 9.8-19.6 21.9-12.6 12.1 7 21.9 23.9 21.9 37.9z"/>
			<path id="&lt;Path&gt;" class="s7" d="m750.6 918.4c0 3.4-0.8 6-2.2 7.9-2.7 3.7-7.6 4.3-13.3 1-8.5-4.9-15.5-16.9-15.5-26.8 0-4.5 1.5-7.8 3.9-9.5 2.8-2.1 7-2.1 11.6 0.6 8.6 4.9 15.5 16.9 15.5 26.8z"/>
			<path id="&lt;Path&gt;" class="s6" d="m750.6 918.4c0 3.4-0.8 6-2.2 7.9-2.8 2.1-7 2-11.6-0.7-8.5-4.9-15.4-16.9-15.4-26.8 0-3.3 0.8-6 2.1-7.8 2.8-2.1 7-2.1 11.6 0.6 8.6 4.9 15.5 16.9 15.5 26.8z"/>
			<path id="&lt;Path&gt;" class="s5" d="m850.7 245.2l30.1 17.3c2.5 1.5 2.5 3.8 0 5.3l-4.8 2.7c-2.5 1.5-6.6 1.5-9.1 0l-30.1-17.3c-2.5-1.5-2.5-3.8 0-5.3l4.8-2.7c2.5-1.5 6.6-1.5 9.1 0z"/>
			<path id="&lt;Path&gt;" class="s6" d="m850.7 241.4l30.1 17.3c2.5 1.5 2.5 3.8 0 5.3l-4.8 2.7c-2.5 1.5-6.6 1.5-9.1 0l-30.1-17.3c-2.5-1.5-2.5-3.8 0-5.3l4.8-2.7c2.5-1.5 6.6-1.5 9.1 0z"/>
			<path id="&lt;Path&gt;" class="s5" d="m909.8 827.8v87.8c0 4-0.7 7.7-2.2 11l-293.5-420.3v-105.2z"/>
			<path id="&lt;Path&gt;" class="s5" d="m909.8 671.9v101.9l-295.7-423.4v-105.2z"/>
			<path id="&lt;Path&gt;" class="s8" d="m909.8 359.7v86.5l-74.9 43.1z"/>
			<path id="&lt;Path&gt;" class="s9" d="m610.4 186.8v86.4l-74.9 43.2z"/>
			<path id="&lt;Path&gt;" class="s9" d="m710.2 244.1l-0.1 86.4-74.8 43.2z"/>
			<path id="&lt;Path&gt;" class="s6" d="m660.3 215.7v86.5l-74.9 43.1z"/>
			<path id="&lt;Path&gt;" class="s9" d="m858.8 330.9v86.4l-74.9 43.2z"/>
			<path id="&lt;Path&gt;" class="s9" d="m760.1 273.4l-0.1 86.4-74.8 43.2z"/>
			<path id="&lt;Path&gt;" class="s6" d="m810 302.1v86.4l-74.9 43.2z"/>
			<path id="&lt;Path&gt;" class="s10" d="m858.8 330.9l51 28.8-74.9 129.6-51-28.8z"/>
			<path id="&lt;Path&gt;" class="s4" d="m810 302.1l48.8 28.8-74.9 129.6-48.8-28.8z"/>
			<path id="&lt;Path&gt;" class="s10" d="m760.1 273.4l49.9 28.7-74.9 129.6-49.9-28.7z"/>
			<path id="&lt;Path&gt;" class="s4" d="m710.2 244.1l49.9 29.3-74.9 129.6-49.9-29.3z"/>
			<path id="&lt;Path&gt;" class="s10" d="m660.3 215.7l49.9 28.4-74.9 129.6-49.9-28.4z"/>
			<path id="&lt;Path&gt;" class="s4" d="m610.4 186.8l49.9 28.9-74.9 129.6-49.9-28.9z"/>
			<path id="&lt;Path&gt;" class="s11" d="m1089.9 1169.7l-28-30.5 16.2 9.4 11.8-25.6z"/>
			<path id="&lt;Path&gt;" class="s12" d="m1146 1252.5l-56.1-32.4v-97.1l56.1 32.3z"/>
			<path id="&lt;Path&gt;" class="s13" d="m1061.9 1236.3v-97.1l56 32.4v97.1z"/>
			<path id="&lt;Path&gt;" class="s14" d="m1146 1252.5l-28.1 16.2v-97.1l15.3 8.8 12.8-25.1z"/>
			<g id="&lt;Group&gt;">
				<path id="&lt;Path&gt;" class="s4" d="m1133 1151.2c-1.1 0-2-1-2-2.1 0.6-15-0.5-48.7-11.5-55.4-2-1.2-3.2-0.8-4-0.5-6.3 3.3-10.2 24.2-11.4 38.1-0.1 1.1-1.1 2-2.3 1.9-1.1-0.1-2-1.1-1.9-2.3 0.7-8.6 3.9-36.4 13.6-41.5 1.8-0.9 4.7-1.5 8.2 0.6 14.4 8.8 13.9 49.2 13.6 59.2 0 1.2-1.1 2.1-2.3 2z"/>
			</g>
			<g id="&lt;Group&gt;">
				<path id="&lt;Path&gt;" class="s4" d="m1105.4 1167.7c-1.1-0.2-1.9-1.3-1.7-2.4 2.3-14.2 4.7-46.5-8.3-54.5-2.6-1.6-4.1-1.1-5-0.6-6.3 3.6-8.2 26.1-8 40.8 0 1.2-0.9 2.2-2.1 2.2-1.2 0.1-2.2-0.9-2.2-2.1-0.1-8.9 0.3-38.9 10.2-44.6 1.9-1.1 5.1-1.9 9.4 0.7 16.8 10.3 11.8 49.1 10.2 58.8-0.2 1.2-1.3 1.9-2.5 1.7z"/>
			</g>
			<path id="&lt;Path&gt;" class="s0" d="m909.8 616.4l-72.1 41.6-294.4-169.9v-4.3l70.8-36.2 295.7 164.5z"/>
			<path id="&lt;Path&gt;" class="s15" d="m909.8 612.1l-72.1 41.7-294.4-170 70.8-40.4z"/>
			<path id="&lt;Path&gt;" class="s16" d="m837.7 653.8l-294.3-170v-32.3l39.5 22.8v32.3l112.7 65.1v-32.3l142.1 82 72.1-41.7v32.4z"/>
			<path id="&lt;Path&gt;" class="s8" d="m363.3 458.9c0 46.5-32.6 103-72.9 126.2-40.3 23.3-72.9 4.4-72.9-42 0-46.5 32.6-103 72.9-126.3 40.3-23.2 72.9-4.4 72.9 42.1z"/>
			<path id="&lt;Path&gt;" class="s17" d="m378 467.4c0 46.5-32.6 103-72.9 126.2-40.2 23.3-72.9 4.4-72.9-42 0-46.5 32.7-103 72.9-126.3 40.3-23.2 72.9-4.4 72.9 42.1z"/>
			<path id="&lt;Path&gt;" class="s18" d="m357.7 477.6v3.1c0 5-3.6 11.2-8 13.7l-35.3 20.4v44.9c0 5-3.6 11.2-7.9 13.7l-2.7 1.5c-4.4 2.6-7.9 0.5-7.9-4.5v-44.9l-35.8 20.6c-4.3 2.6-7.9 0.5-7.9-4.5v-3.1c0-5.1 3.6-11.2 7.9-13.7l35.8-20.7v-44.9c0-5 3.5-11.2 7.9-13.7l2.7-1.5c4.3-2.5 7.9-0.5 7.9 4.5v45l35.3-20.5c4.4-2.5 8-0.4 8 4.6z"/>
			<path id="&lt;Path&gt;" class="s19" d="m445.3 686.1l196.2 113.3-84.1 275.1-168.2-97.1 50.9-288.3z"/>
			<path id="&lt;Path&gt;" class="s20" d="m440.1 689.1l196.2 113.3-84.1 275-168.2-97.1z"/>
			<path id="&lt;Path&gt;" class="s13" d="m445.3 692l-60.4 283.4-163.8 99.1-84.2-210.3 303.2-175.1z"/>
			<path id="&lt;Path&gt;" class="s19" d="m394.4 980.3l-168.1 97.1-83.2-209.6 302.2-175.8z"/>
			<path id="&lt;Path&gt;" class="s19" d="m634.4 795.4l7.1 4-91 270.9-168.2 97.2-56-194.2 5.1-3 50.5-29.1 17.8-10.3 66.6-38.5 83.3-48 16.8-9.8z"/>
			<path id="&lt;Path&gt;" class="s13" d="m641.5 799.4l-84.1 275.1-168.2 97.2-56-194.3z"/>
			<path id="&lt;Path&gt;" class="s21" d="m136.9 864.2l196.3 113.2 56 194.3-168.1-97.2z"/>
			<path id="&lt;Path&gt;" class="s19" d="m417.2 975.1v100.9c0 9.1-4.9 17.5-12.8 22.1l-3.2 1.9c-4.2 2.4-9.1 0.6-11.1-3.2-0.6-1.1-0.9-2.4-0.9-3.7v-101c0-9.1 4.9-17.5 12.8-22.1l3.2-1.8c1.5-0.9 3.2-1.2 4.7-1.1 3.9 0.4 7.3 3.6 7.3 8z"/>
			<path id="&lt;Path&gt;" class="s20" d="m410.8 970.8v100.9c0 9.1-4.9 17.6-12.8 22.1l-3.2 1.9c-1.6 0.9-3.2 1.2-4.7 1.1-0.6-1.1-0.9-2.4-0.9-3.7v-101c0-9.1 4.9-17.5 12.8-22.1l3.2-1.8c1.5-0.9 3.2-1.2 4.7-1.1 0.6 1.1 0.9 2.4 0.9 3.7z"/>
			<path id="&lt;Path&gt;" class="s19" d="m557.4 896.9v97.1c0 9.8-5.3 18.8-13.8 23.7-4.7 2.7-10.2 0.9-12.8-3.2-0.9-1.4-1.5-3.2-1.5-5.1v-97.1c0-4.9 1.3-9.6 3.7-13.7 2.4-4.1 5.8-7.6 10-10 2.1-1.2 4.4-1.5 6.5-1.1 4.2 0.7 7.9 4.4 7.9 9.4z"/>
			<path id="&lt;Path&gt;" class="s20" d="m550.9 892.6v97.1c0 9.8-5.2 18.8-13.7 23.7-2.1 1.2-4.3 1.5-6.4 1.1-0.9-1.4-1.5-3.2-1.5-5.1v-97.1c0-4.9 1.3-9.6 3.7-13.7 2.4-4.1 5.8-7.6 10-10 2.1-1.2 4.4-1.5 6.5-1.1 0.9 1.4 1.4 3.1 1.4 5.1z"/>
			<path id="&lt;Path&gt;" class="s19" d="m501.3 934v120.1c0 12.6-6.8 24.3-17.7 30.6l-20 11.5c-6.4 3.7-14 0.9-17-5q0 0 0 0c-0.9-1.6-1.4-3.5-1.4-5.6l0.1-120.1c0-12.7 6.7-24.3 17.7-30.7l19.9-11.5c2.7-1.6 5.7-1.9 8.5-1.4 5.4 1.1 9.9 5.8 9.9 12.1z"/>
			<path id="&lt;Path&gt;" class="s20" d="m492.7 927.6v120.1c0 12.6-6.7 24.3-17.7 30.6l-19.9 11.5c-2.8 1.6-5.8 2-8.5 1.4q0 0 0 0c-0.9-1.6-1.4-3.5-1.4-5.6l0.1-120.1c0-12.7 6.7-24.3 17.7-30.7l19.9-11.5c2.7-1.6 5.7-1.9 8.5-1.4 0.9 1.7 1.3 3.6 1.3 5.7z"/>
			<path id="&lt;Path&gt;" class="s22" d="m466.3 892.4l-57.9 33.4-8.7 5.1-6.2 3.6-11.6 6.7-50.5 29.1-41.6-24-14.9-8.6-48.1-27.7-0.2-0.5 62-35.8 14.9-8.6 57.7-33.3 48.6 28 14.9 8.7z"/>
			<path id="&lt;Path&gt;" class="s23" d="m424.7 868.5l-134.9 77.8-14.9-8.6 134.9-77.9z"/>
			<path id="&lt;Path&gt;" class="s23" d="m408.4 925.8l-8.7 5.1-6.2 3.6-104.9-60.8 14.9-8.6z"/>
			<g id="&lt;Group&gt;">
				<path id="&lt;Compound Path&gt;" fill-rule="evenodd" class="s4" d="m354.9 899.3c2.1 3.7-1.3 8.1-5.5 7.1l-0.8-0.2c-7.5-1.7-73.8-18.1-81.1-42.9-1.3-4.6-1.5-11.6 5.7-19.1 5.8-6.1 13-8.7 20.7-7.7 12.4 1.7 26.5 12.8 41.8 33 10.9 14.5 18.5 28.4 18.8 29zm-64.3-52.3c-3.6 0-6.7 1.5-9.7 4.6-3.9 4.1-3.7 6.9-3.2 8.7 2.1 6.9 20.4 21.1 60.9 32.4-11.1-17.7-30.5-43.5-46.1-45.6q-1-0.1-1.9-0.1z"/>
			</g>
			<g id="&lt;Group&gt;">
				<path id="&lt;Compound Path&gt;" fill-rule="evenodd" class="s4" d="m352.6 905.3l-6.6-0.5c-3.5-3.5-3.7-23.6-3.6-32 0.1-13.8 1.4-33.3 6.9-47.7 5.9-15.5 14.8-19.1 21.3-19.5 5.3-0.2 9.6 1.8 12.1 5.8 3.3 5.4 6 16.8-10 54.4-8.3 19.7-17.8 37.1-18.2 37.8zm19-89q-0.2 0-0.5 0c-3.1 0.2-5.8 1.9-8.2 5.4-9.1 13.2-10.4 42.7-9.7 61.3 14.2-28.9 24.9-58.8 20.4-65.9-0.1-0.3-0.5-0.8-2-0.8z"/>
			</g>
			<path id="&lt;Path&gt;" class="s10" d="m566.4 834.6l-16.8 9.8c-1.2-1.5-2-3.3-2.1-5.3-1.4-21.4-7.9-58.8-27.3-69.9-10.4-6-24.6-4-42.1 6.2-40.7 23.4-60 68.1-69.1 101.4-5.9 21.7-8.3 41.5-9.3 54.1l-17.8 10.3c-1.2-1.8-1.9-3.9-1.8-6.2 0.8-12.9 3.1-36.6 10.4-63.3 14.4-52.7 41.3-91.8 77.9-113 24-13.8 44.6-15.9 61.4-6.2 27.5 15.9 34.7 59.8 36.6 82.1z"/>
			<path id="&lt;Path&gt;" class="s10" d="m221.1 847.9c-5.3 0.1-9.7-4.4-9.4-9.8 1.4-36.9 12-164.6 88.6-208.8 21-12.2 39.7-13.7 55.4-4.6 18.5 10.6 31.3 35.5 38.2 73.8 3 17 4.2 32.7 4.7 42.5 0.2 5.4-4.1 9.9-9.5 9.9h-0.2c-5.1 0-9.3-4-9.5-9.1-1.3-29.6-8.7-86.3-33.3-100.5-9.5-5.5-21.4-4-36.2 4.6-67.3 38.9-77.5 159-79 193-0.2 5.1-4.4 9-9.4 9z"/>
			<path id="&lt;Path&gt;" class="s0" d="m585.1 507.9l112.4 64.9-112.2 194.3-5 2.9-110-63.5z"/>
			<path id="&lt;Path&gt;" class="s6" d="m695.6 571.7l-25.5 43.9-5.4 9.2-22.8 39.2-5.4 9.3-22.8 39.2-5.4 9.2-28 48.3-112.1-64.7 27.9-48.4 5.3-9.2 22.7-39.3 5.4-9.3 22.7-39.3 5.3-9.2 25.4-44z"/>
			<path id="&lt;Path&gt;" class="s15" d="m613.7 712.5l-5.4 9.2-112.2-64.8 5.3-9.2z"/>
			<path id="&lt;Path&gt;" class="s15" d="m641.9 664l-5.4 9.3-112.4-64.9 5.4-9.3z"/>
			<path id="&lt;Path&gt;" class="s15" d="m670.1 615.6l-5.4 9.2-112.5-65 5.3-9.2z"/>
			<path id="&lt;Path&gt;" class="s24" d="m855.9 678.4l167.7 96.8c10.8 6.2 19.5 21.4 19.5 33.8v127.2c0 12.4-8.7 17.5-19.5 11.3l-167.7-96.8c-10.8-6.3-19.6-21.4-19.6-33.9v-127.1c0-12.5 8.8-17.6 19.6-11.3z"/>
			<path id="&lt;Path&gt;" class="s24" d="m842.1 686.2l167.7 96.8c10.8 6.3 19.5 21.5 19.5 33.9v127.2c0 12.4-8.7 17.5-19.5 11.2l-167.7-96.8c-10.8-6.2-19.6-21.4-19.6-33.8v-127.2c0-12.4 8.8-17.5 19.6-11.3z"/>
			<path id="&lt;Path&gt;" class="s25" d="m887.2 772.6l77.5 44.7v86.2l-77.5-44.7z"/>
			<g id="&lt;Group&gt;">
				<path id="&lt;Path&gt;" class="s25" d="m950.2 809.9c0-0.3-0.4-25.2-25-39.4-7.8-4.5-13.7-5.6-17.7-3.3-5.7 3.3-5.8 12.7-5.8 12.8h-3.2c0-0.4 0.1-11.3 7.4-15.5 5-2.9 12.1-1.8 20.8 3.2 26.3 15.2 26.6 41.9 26.6 42.2z"/>
			</g>
			<path id="&lt;Path&gt;" class="s26" d="m749.1 1139.6c0 0 1 9.5 0.8 13.1-0.3 3.6-3.4 7.1-4.9 7.7-1.5 0.6-7.8-1.4-8.9-3.4-1-2 3.5-5.2 3.3-8.3-0.2-3.2-3.3-0.9-4.1-1.5-0.7-0.6 4.9-7.6 4.9-7.6z"/>
			<path id="&lt;Path&gt;" class="s11" d="m750.3 1140.9c0 0-7.3 3.2-13 0 0 0 3-37.4 1.8-41.2-1.2-3.8-7.3-17.9-7.3-17.9l-0.9-39.9c0 0 2.2 1.6 4.4 6.1 2.1 4.4 17.9 43.9 18.2 47.3 0.2 3.3-3.2 45.6-3.2 45.6z"/>
			<path id="&lt;Path&gt;" class="s27" d="m723.3 1242.2l2.7 21.7c0 0 0.1 1.4-4.9 2.5-4.9 1.1-7.6-5.6-9.4-6.5-1.8-1-2.1 1.3-5.9-0.8-6-3.1-4.7-8.9-4.3-9.8 0.3-0.8 5.1 0.5 8.8-0.4 3.7-1 2.8-8.6 2.8-9z"/>
			<path id="&lt;Path&gt;" class="s28" d="m706.1 1127.1l3.9 2.9 11.2 8.3c0 0 1 23.2-2.5 28.1-3.6 4.9-5.6 36.2-4 39.8 1.6 3.6 10.9 39.2 10.9 39.2 0 0-7.2 5.4-15.2-3.3 0 0-5.9-18.5-9.3-29.9q0 0 0-0.1c-1.2-3.8-2-6.8-2.3-8.1-0.9-5-3.8-56.2-3.8-56.2z"/>
			<path id="&lt;Path&gt;" class="s27" d="m671.2 1273.5c2.2 2.1 4 19.2 3.8 20.2-0.1 0.9-4.1 2-6.2 2.6-2 0.6-12-5.5-15.5-8.5-3.5-3-1.2-8.7-0.7-9.2 0.5-0.4 3.3 0.6 6.4 0.9 3.1 0.2 4.3-6 4.3-6 0 0 5.8-2.2 7.9 0z"/>
			<path id="&lt;Path&gt;" class="s29" d="m706.1 1127.1l3.9 2.9 5.8 13.8c0 0 1.2 13.9-4.3 18.4-5.5 4.6-11.2 18.7-9.4 22.7 1.7 4.1-2.7 21.3-1 27.2-1.2-3.8-2-6.8-2.3-8.1-0.9-5-3.8-56.2-3.8-56.2z"/>
			<path id="&lt;Path&gt;" class="s28" d="m675 1274.6c0 0-8.2 4.4-14.8 0 0 0-3-54.3-1.5-61 1.4-6.7 14.3-69.1 16.3-69.8 2.1-0.7 28.4 6.3 28.4 6.3 0 0 0.9 21.2-8.4 29.1-9.3 7.9-19.6 31.3-20 34.9-0.3 3.6 0 60.5 0 60.5z"/>
			<path id="&lt;Path&gt;" class="s13" d="m674.5 1068.2q-0.1-0.6-0.1-1.5c0.1-2.4 1-5.8 4.7-8.5 4.4-3.3 44.6-19.1 48-18.6 3.4 0.4 4.8 3.2 5.2 5.2 0.4 2.1 1 30.4 0 42.1-1 11.7-3.8 49.5-3.8 49.5-4.6 6.9-17.2 13.7-17.2 13.7l-4.8-19.2-1.2 23c-6.3 0.3-12.1-0.5-17-1.6-10.2-2.2-17-6.1-17-6.1 0 0 3.5-75.5 3.2-78z"/>
			<path id="&lt;Path&gt;" class="s26" d="m651.7 1100.8c0 0-6.9-8.7-8.6-11-1.7-2.2 1.3-16.3 2.4-16.7 1.1-0.5 3.2 5.8 3.6 6.5 0.4 0.8 5.1 2.9 5.1 2.9 0.5-2.5 3.1-2.7 3.1-2.1 0 0.7-0.5 9.4-0.5 9.4z"/>
			<path id="&lt;Path&gt;" class="s26" d="m702.8 1035.8l7.8-5.6 5.1 16.3c-1.2 3.5-11.3 3.9-15.5 3.9-1.2 0-1.9 0-1.9 0q0 0 0-2.1c0-4.2-3.4-6.9-3.4-6.9z"/>
			<path id="&lt;Path&gt;" class="s11" d="m671.3 1146.2c0 0 3.5-75.5 3.2-78q-0.1-0.6-0.1-1.5l7.3-1.6c0 0 9.2 5.3 8.3 18.6-1 13.3-3.2 39.7 2.2 43.4 5.4 3.8-9.7 4.1-3.9 25.2-10.2-2.2-17-6.1-17-6.1z"/>
			<path id="&lt;Path&gt;" class="s13" d="m666.3 1110.3c0 0 2.8-50.2 11.4-48.9 8.7 1.4 8.2 10.9 8 13.8-0.3 2.9-8.5 51.2-9.7 53.9-1.2 2.7-5.6 4.3-8.8 2.3-3.1-1.9-17.3-30.3-17.3-30.3-1.1-8.1 7-12.7 7-12.7z"/>
			<path id="&lt;Path&gt;" class="s26" d="m713.5 1026.8c0 0-17.5 15.5-18.5 15.7-1 0.1-1.3 0-4.4-7.2-3.9-9.1-1.7-24.2-1.7-24.2 0.6-8.3 24.6 15.7 24.6 15.7z"/>
			<path id="&lt;Path&gt;" class="s30" d="m693.6 1022.4c-6.2-1.6-9.4-12.6-4.2-22.5 5.1-9.9 18.4-6 18.4-6 0 0 3-1.9 11.3 2.5 8.4 4.5 6.5 18.4 5.4 20.7-1 2.3-11.7 20.1-11.7 20.1-9.2 3-14.5-6.6-14.5-6.6 3.8-0.3 3.2-8.1 1.2-8.6-2.1-0.6-2.3 3.4-2.3 3.4 0 0-1.2-2.4-3.6-3z"/>
			<path id="&lt;Path&gt;" class="s31" d="m702.8 1035.8h0.4c0 0-3.8 6.4-3.2 9.4 0.4 1.7 0.3 3.7 0.2 5.2-1.2 0-1.9 0-1.9 0q0 0 0-2.1c0-4.2-3.4-6.9-3.4-6.9z"/>
			<g id="&lt;Group&gt;">
				<path id="&lt;Path&gt;" class="s32" d="m948.9 1098.5l55.8 32.2v64.5l-55.8-32.2z"/>
				<path id="&lt;Path&gt;" class="s27" d="m1004.7 1130.7l55.9-32.2v64.5l-55.9 32.2z"/>
				<path id="&lt;Path&gt;" class="s22" d="m948.9 1098.5l55.8-32.3 55.9 32.3-55.9 32.2z"/>
				<g id="&lt;Group&gt;">
					<path id="&lt;Path&gt;" class="s10" d="m973.6 1177.3v-64.6l55.9-32.2 6.4 3.7-56 32.2 0.1 64.6z"/>
				</g>
				<path id="&lt;Compound Path&gt;" fill-rule="evenodd" class="s10" d="m1043.5 1052.3c0 15.6-30.9 43.4-36.3 48.2q-0.2 0.2-0.4 0.4l-0.3 0.2q-0.7 0.5-1.5 0.6h-0.4c-0.7 0-1.9-0.1-3.4-0.3l0.3-3.2c0.1-1.3 0.6-5.4 1.4-10.8 2.5-15.4 8.5-41.9 21.2-47 5.1-2 10.5-0.6 16 4.2 2.3 1.9 3.4 4.6 3.4 7.7zm-6.4 0c0-1.7-0.6-2.4-1.1-2.9-3.3-2.8-5.7-3.5-7.4-3.5-1 0-1.7 0.3-2.1 0.5-8.7 3.4-14.8 26.1-17.6 43.9 12.9-12.2 28.3-29.5 28.2-38z"/>
				<g id="&lt;Group&gt;">
					<path id="&lt;Path&gt;" class="s10" d="m1038.9 1152.7c-13.5-6.9-11-29.1-9.8-36.4l-26-15 3.2-5.6 30 17.3-0.5 2.3c-1.6 7.2-3.6 26.8 6 31.7z"/>
				</g>
				<g id="&lt;Group&gt;">
					<path id="&lt;Compound Path&gt;" fill-rule="evenodd" class="s10" d="m1008.1 1098.6c-0.1 0.7-0.4 1.4-0.9 1.9q-0.2 0.2-0.4 0.4l-0.3 0.2q-0.7 0.5-1.5 0.6h-0.4c-0.7 0-1.9-0.1-3.4-0.3-8.8-1.3-28.9-6.4-35.1-16.1-2.6-4-2.6-8.3-0.2-12.6 3.4-5.8 8.6-7.9 14.7-5.9 7.6 2.5 16.8 12.4 22.3 20.6 3.3 4.9 5.4 9.3 5.2 11.2zm-8.2-3.8c-4.2-7.1-14.8-21.1-22.7-22.3q-0.4-0.1-0.9-0.1c-1.5 0-3.2 0.7-4.8 3.5-1.3 2.2-1.3 4-0.1 5.9 4.1 6.7 20.2 11.4 28.5 13z"/>
				</g>
			</g>
		</g>
	</g>
</svg>