<svg version="1.2" xmlns="http://www.w3.org/2000/svg" viewBox="0 0 1412 861" width="1412" height="861">
	<title>reshot-illustration-medicine-delivery-MYDFCXJKQB-ai</title>
	<style>
		.s0 { fill: #142663 } 
		.s1 { fill: #47b4ac } 
		.s2 { fill: #fc9c97 } 
		.s3 { fill: #10868a } 
		.s4 { fill: #000d39 } 
		.s5 { fill: #ffffff } 
		.s6 { fill: #d8865c } 
		.s7 { fill: #ebf6ff } 
		.s8 { fill: #66ccc2 } 
		.s9 { fill: #597bf1 } 
		.s10 { fill: #ffd9b9 } 
		.s11 { fill: #4563cd } 
		.s12 { fill: #1c3074 } 
		.s13 { fill: #72381f } 
		.s14 { fill: #d3e7f9 } 
		.s15 { fill: #1f3a6f } 
		.s16 { fill: #ffd6bb } 
		.s17 { fill: #fbb188 } 
		.s18 { fill: #072542 } 
	</style>
	<g id="Layer 1">
	</g>
	<g id="Illustration">
		<g id="&lt;Group&gt;">
			<g id="&lt;Group&gt;">
				<g id="&lt;Group&gt;">
					<g id="&lt;Group&gt;">
						<path id="&lt;Path&gt;" class="s0" d="m543.5 606.9l31.1 78.6h-23.4l-26.3-72.9z"/>
					</g>
					<g id="&lt;Group&gt;">
						<path id="&lt;Path&gt;" class="s1" d="m493.4 431.5l-6.5 39.5-3 1.5-9.9 13.1-5.5 7.4-12.5-33.4c-4.9-13.2 4.3-27.1 18-28q0.7-0.1 1.5-0.1z"/>
					</g>
					<g id="&lt;Group&gt;">
						<path id="&lt;Path&gt;" class="s2" d="m489 463.6c-2.9 0-5.3-5.4-5.3-12 0-6.6 2.4-11.9 5.3-11.9 2.9 0 5.3 5.3 5.3 11.9 0 6.6-2.4 12-5.3 12z"/>
					</g>
					<path id="&lt;Path&gt;" class="s3" d="m493.4 431.5l-6.5 39.5-3 1.5-9.9 13.1v-54q0.7-0.1 1.5-0.1z"/>
					<g id="&lt;Group&gt;">
						<path id="&lt;Path&gt;" class="s4" d="m442.4 466.5v-3.7c0-1.9 1.5-3.3 3.3-3.3h21.3v10.4h-21.3c-1.8 0-3.3-1.5-3.3-3.4z"/>
					</g>
					<g id="&lt;Group&gt;">
						<path id="&lt;Path&gt;" class="s0" d="m568.7 755.4c-31.7 0-57.4-25.7-57.4-57.4 0-31.7 25.7-57.4 57.4-57.4 31.6 0 57.3 25.7 57.3 57.4 0 31.7-25.7 57.4-57.3 57.4z"/>
					</g>
					<g id="&lt;Group&gt;">
						<g id="&lt;Group&gt;">
							<path id="&lt;Path&gt;" class="s5" d="m568.7 732.7c-19.2 0-34.7-15.5-34.7-34.7 0-19.1 15.5-34.7 34.7-34.7 19.1 0 34.6 15.6 34.6 34.7 0 19.2-15.5 34.7-34.6 34.7z"/>
						</g>
					</g>
					<g id="&lt;Group&gt;">
						<path id="&lt;Path&gt;" class="s0" d="m568.7 719.5c-11.9 0-21.6-9.6-21.6-21.5 0-11.9 9.7-21.5 21.6-21.5 11.8 0 21.5 9.6 21.5 21.5 0 11.9-9.7 21.5-21.5 21.5z"/>
					</g>
					<g id="&lt;Group&gt;">
						<path id="&lt;Path&gt;" class="s0" d="m243.7 755.4c-36 0-65.1-29.2-65.1-65.1 0-36 29.1-65.2 65.1-65.2 36 0 65.1 29.2 65.1 65.2 0 35.9-29.1 65.1-65.1 65.1z"/>
					</g>
					<g id="&lt;Group&gt;">
						<g id="&lt;Group&gt;">
							<path id="&lt;Path&gt;" class="s5" d="m243.7 729.6c-21.7 0-39.4-17.6-39.4-39.3 0-21.8 17.7-39.4 39.4-39.4 21.7 0 39.3 17.6 39.3 39.4 0 21.7-17.6 39.3-39.3 39.3z"/>
						</g>
					</g>
					<g id="&lt;Group&gt;">
						<path id="&lt;Path&gt;" class="s0" d="m243.7 714.7c-13.5 0-24.4-10.9-24.4-24.4 0-13.5 10.9-24.5 24.4-24.5 13.5 0 24.4 11 24.4 24.5 0 13.5-10.9 24.4-24.4 24.4z"/>
					</g>
					<path id="&lt;Path&gt;" class="s2" d="m162.1 621.9l-8.9-11.8 10-11h12.6z"/>
					<g id="&lt;Group&gt;">
						<path id="&lt;Path&gt;" class="s1" d="m560.6 622.8c-29.9 3.3-54.3 25-61.6 53.6-2.7 10.4-11.8 17.9-22.5 17.9h-334.3c0-47 19-89.5 49.8-120.3 30.8-30.8 73.3-49.8 120.3-49.8h87.3v3.3c0 8.9-7.2 16.4-16.1 16.4-19.3 0-36.7 7.8-49.3 20.4-12.6 12.6-20.4 30-20.4 49.3v13.7c0 24.4 19.7 44.2 44.1 44.2h96.3c32.8 0 56.4-31.4 47.4-62.8l-33.1-115.7c-3-10.3 4.7-20.5 15.4-20.5l40.2 114.7c5.4 0 10.6 1.5 15 4.1 4.4 2.7 8.2 6.5 10.7 11.3z"/>
					</g>
					<g id="&lt;Group&gt;">
						<path id="&lt;Path&gt;" class="s1" d="m633.2 694.3h-129.1c0-35.7 28.9-64.6 64.6-64.6 35.6 0 64.5 28.9 64.5 64.6z"/>
					</g>
					<path id="&lt;Path&gt;" class="s3" d="m330.3 694.3h-173.2c0-47.9 38.8-86.6 86.6-86.6 47.8 0 86.6 38.7 86.6 86.6z"/>
					<g id="&lt;Group&gt;">
						<path id="&lt;Path&gt;" class="s6" d="m298.6 491.1c21.1 10.9 61.5 12.6 83 12.7 7.8 0.1 14.2 6.4 14.2 14.3h-105.9c-1.6-24.7 8.7-27 8.7-27z"/>
					</g>
					<g id="&lt;Group&gt;">
						<path id="&lt;Path&gt;" class="s4" d="m374 518.1h14v6.1h-14z"/>
					</g>
					<g id="&lt;Group&gt;">
						<path id="&lt;Path&gt;" class="s4" d="m307.8 518.1h14v6.1h-14z"/>
					</g>
				</g>
				<g id="&lt;Group&gt;">
					<g id="&lt;Group&gt;">
						<path id="&lt;Compound Path&gt;" fill-rule="evenodd" class="s1" d="m425.2 623.1h-37.2c-1 0-1.8-0.8-1.8-1.8v-20.5c0-8 6.5-14.4 14.4-14.4h11.9c7.9 0 14.4 6.4 14.4 14.4v20.5c0 1-0.8 1.8-1.7 1.8zm-35.5-3.5h33.7v-18.8c0-6-4.9-10.9-10.9-10.9h-11.9c-6 0-10.9 4.9-10.9 10.9z"/>
					</g>
					<g id="&lt;Group&gt;">
						<path id="&lt;Path&gt;" class="s5" d="m468.8 664.7c-0.6 3.9-4 6.8-8 6.8h-69.3l-1.6-47.9h85.6z"/>
					</g>
					<path id="&lt;Path&gt;" class="s7" d="m346.4 623.6h43.5l1.6 47.9h-30.5c-3.9 0-7.3-2.9-7.9-6.8z"/>
					<g id="&lt;Group&gt;">
						<path id="&lt;Path&gt;" class="s1" d="m406.6 623.6h-60.2l3.3-8c2.8-6.6 9.2-10.9 16.3-10.9h40.6z"/>
					</g>
					<path id="&lt;Path&gt;" class="s8" d="m403.9 604.7h51.9c7.2 0 13.6 4.3 16.3 10.9l3.4 8h-85.6l1.5-8.4c1-6.1 6.3-10.5 12.5-10.5z"/>
					<path id="&lt;Path&gt;" class="s2" d="m445.3 651.2h-8.9v9h-7.4v-9h-9v-7.3h9v-9h7.4v9h8.9z"/>
				</g>
				<path id="&lt;Path&gt;" class="s0" d="m398.9 755.4h-10.9v-61.1h10.9z"/>
				<g id="&lt;Group&gt;">
					<path id="&lt;Path&gt;" class="s4" d="m184.9 521.1h123.9v3.1h-123.9z"/>
				</g>
			</g>
			<path id="&lt;Compound Path&gt;" fill-rule="evenodd" class="s9" d="m480.2 312.5c0 24.1-26.2 60.2-47 85.2-13.3 15.8-37.8 15.8-51 0-20.9-25-47.1-61.1-47.1-85.2 0-40 32.5-72.5 72.6-72.5 40 0 72.5 32.5 72.5 72.5zm-34-3.8c0-21.3-17.3-38.5-38.5-38.5-21.3 0-38.6 17.2-38.6 38.5 0 21.3 17.3 38.5 38.6 38.5 21.2 0 38.5-17.2 38.5-38.5z"/>
			<g id="&lt;Group&gt;">
				<g id="&lt;Group&gt;">
					<path id="&lt;Path&gt;" class="s2" d="m974.7 481.2l6.8-13.1 4.9 3.5-4.5 14.7-5.3 5.6z"/>
				</g>
				<g id="&lt;Group&gt;">
					<path id="&lt;Path&gt;" class="s10" d="m991.1 460.7c0.9 0.1 1.6 0.9 1.5 1.8l-0.9 6.2q-0.1 0.2-0.2 0.5l-4.7 8.9q-0.1 0.2-0.2 0.4l-1.2 5c-0.3 1.1-1.5 1.5-2.4 0.9-0.4-0.2-0.7-0.7-0.7-1.2v-3.7-5.5l-4.5 7.6q-0.2 0.3-0.2 0.6l-1 9.7c0 0.6-0.5 1.1-1.1 1.3l-0.6 0.2c-1 0.3-2-0.5-2-1.5v-12.9q0-0.3 0.1-0.5l6.5-18.2z"/>
				</g>
				<path id="&lt;Path&gt;" class="s9" d="m979.7 452q-0.2-1 0-2.1c4.3-19.2 10.4-36.7 17.1-53.7-1.7-28.8 1.9-55 4.2-68.6 1.1-6 5.4-10.8 11.3-12.5l4.4-1.3 5.7 80.8-2.6 7.5-14 39.6-5 14.1c-0.8 2.3-2.5 4.2-4.6 5.5l-2.3 1.2-1.3 3.2-13.1-5.4 1.2-3z"/>
				<g id="&lt;Group&gt;">
					<path id="&lt;Path&gt;" class="s11" d="m1007.7 385.5l12.1 16.6-14 39.6z"/>
				</g>
				<g id="&lt;Group&gt;">
					<path id="&lt;Path&gt;" class="s10" d="m1115.4 752c-1 2-2.9 3.4-5.2 3.4h-42.3c-0.8 0-1.6-0.4-2.1-1.2q-0.1-0.1-0.2-0.2c-0.3-0.6-0.5-1.2-0.5-1.8 0 0 0-0.1 0-0.2 0.1-1.2 0.8-2.3 1.9-2.7l1.4-0.6 20.3-8.3c1.7-0.7 2.8-2.7 2.5-4.7l-1.5-10 24.1 0.2v13.3l2.1 7.6c0.5 1.9 0.3 3.7-0.5 5.2z"/>
				</g>
				<g id="&lt;Group&gt;">
					<path id="&lt;Path&gt;" class="s10" d="m1042.3 748.7c0.1 1.2-0.2 2.3-0.7 3.3-0.5 0.9-1.1 1.7-1.9 2.2-0.9 0.7-2.1 1.2-3.3 1.2h-42.3c-0.9 0-1.8-0.5-2.3-1.4q-0.5-0.9-0.5-1.7 0-0.2 0-0.3c0.1-1.2 0.7-2.3 1.8-2.7l21.8-8.9c1.7-0.7 2.7-2.7 2.4-4.7l-1.5-10 24.2 0.2v13.3l2.1 7.6q0.2 1 0.2 1.9z"/>
				</g>
				<g id="&lt;Group&gt;">
					<path id="&lt;Path&gt;" class="s12" d="m1107.2 493.2l-7.4 119.1 15.6 116.8c0 0-18.8 2.4-27.5-0.2l-23.3-116.6-11.3-98-8.3 98-3.8 117.8c0 0-13.6 2.9-25 0l-8.5-236.2z"/>
				</g>
				<g id="&lt;Group&gt;">
					<path id="&lt;Path&gt;" class="s13" d="m1019.3 311.1c0 0-15.2-20.4-5.6-42.7 9.5-22.4 5.2-25.1 12.4-30.9 0 0 22.6-22.6 47.3 2.6 3.4 3.5 5.4 8 6.1 12.7 0.9 6.8 3.1 17.4 7.9 23.3 7.5 9.1 7.2 31.9-6.5 42.4 0 0-27.6 22.5-61.6-7.4z"/>
				</g>
				<g id="&lt;Group&gt;">
					<path id="&lt;Path&gt;" class="s10" d="m1026.7 249.9c11.4 11 25 14.6 31.9 16.6 0 0 0.6 15.3 9.9 27.4q0.1 0.1 0.1 0.1l0.3 19.4-27.1-4.2 2.3-14.8c-26.8-1.5-17.4-44.5-17.4-44.5z"/>
				</g>
				<g id="&lt;Group&gt;">
					<path id="&lt;Path&gt;" class="s2" d="m1044.1 294.4c0 0 7.9-0.1 12.3-6.3 0 0-5.6 10.9-13.1 11.5z"/>
				</g>
				<g id="&lt;Group&gt;">
					<path id="&lt;Path&gt;" class="s9" d="m1007.8 347.6l6-9.4 2.9-24.4 24.8-6.7 0.2-3.7c0.1-1.4 1.3-2.5 2.7-2.5h22.3c1.5 0 2.9 1.1 3.1 2.6l0.7 4.1 15.7 5.6c0 0-0.4 16.6-0.2 37.8 0.2 25 1.4 56.3 5.2 74.1q1.2 5.3 2.4 10c6.5 25.2 13.4 35.9 13.6 58.1 0 0-52.1 17.5-99.5 0.8 0 0-1.6-21 3-46.4 4.1-22.3 2.7-44-6.5-75.3-2.5-8.4-1.1-17.4 3.6-24.7z"/>
				</g>
				<g id="&lt;Group&gt;">
					<path id="&lt;Path&gt;" class="s11" d="m1008.7 390.6l-3.6-12.6-2.5-9.3c-1.5-6-0.7-12.3 2.5-17.7l3.7-6.4c0.2-0.3 0.6-0.4 1-0.2 0.3 0.2 0.4 0.6 0.2 0.9l-3.7 6.5c-3 5-3.8 10.9-2.3 16.5l2.5 9.4 3.6 12.5c0.1 0.4-0.1 0.7-0.5 0.9q-0.1 0-0.2 0c-0.3 0-0.6-0.2-0.7-0.5z"/>
				</g>
				<g id="&lt;Group&gt;">
					<path id="&lt;Path&gt;" class="s11" d="m1080.3 368.7c0.6-6.7 3.5-13.4 5.7-17.7 0.2 25 1.4 56.3 5.2 74.1q1.2 5.3 2.4 10c-17.8-56.2-14.2-55.2-13.3-66.4z"/>
				</g>
				<g id="&lt;Group&gt;">
					<path id="&lt;Path&gt;" class="s11" d="m1041.7 303.4c0.1-1.4 1.3-2.5 2.7-2.5h22.3c1.5 0 2.9 1.1 3.1 2.6l0.7 4.1c0 0-14.4 6.4-29-0.5z"/>
				</g>
				<path id="&lt;Path&gt;" class="s9" d="m1099 409.5c0 0-31.8 2.9-54.2-1-0.9-0.2-1.6-0.7-2.1-1.5l-0.8-1.4-4.3-0.8c0 0-1.3-8 0.5-11.8h2.9l2.1-2.8c0.6-0.7 1.4-1.1 2.3-1.2 7.3-0.3 42.8-3.4 48.2-1.3l-13.3-26.5c0 0 0.4-42.6 5.9-48l7.5 2.5c5.2 1.6 9.1 5.9 10.2 11.3 3.2 15.2 8.2 39.9 11.4 65.5 1.3 10.1-7 17.1-16.3 17z"/>
				<g id="&lt;Group&gt;">
					<path id="&lt;Path&gt;" class="s11" d="m1041 393.8q-0.3 0-0.5-0.2c-0.3-0.3-0.4-0.7-0.1-1.1l1.9-2.3c0.9-1 2.1-1.6 3.5-1.7 9.3-0.8 40.5-3.2 47.9-1.5 0.5 0.1 0.7 0.5 0.6 0.9-0.1 0.4-0.5 0.7-0.9 0.6-7.4-1.6-40.9 1-47.5 1.5-0.9 0.1-1.8 0.5-2.4 1.2l-1.9 2.3q-0.2 0.3-0.6 0.3z"/>
				</g>
				<g id="&lt;Group&gt;">
					<path id="&lt;Path&gt;" class="s11" d="m1077.5 411.4c-15.3 0-28-1.5-32.6-2.1-1.3-0.2-2.4-1-3.1-2.1l-0.6-1.3c-0.2-0.4 0-0.8 0.3-1 0.4-0.2 0.9-0.1 1.1 0.3l0.6 1.2c0.4 0.8 1.1 1.2 1.9 1.3 6.7 0.9 30.2 3.6 53.8 1 0.4 0 0.8 0.3 0.9 0.7 0 0.5-0.3 0.8-0.7 0.9-7.4 0.8-14.8 1.1-21.6 1.1z"/>
				</g>
				<g id="&lt;Group&gt;">
					<path id="&lt;Path&gt;" class="s12" d="m1046.3 266.6c0.8 0.2 1.3 0.9 1.2 1.7-0.1 0.8-0.9 1.3-1.6 1.2-0.8-0.1-1.4-0.9-1.3-1.7 0.2-0.7 0.9-1.3 1.7-1.2z"/>
				</g>
				<g id="&lt;Group&gt;">
					<path id="&lt;Path&gt;" class="s12" d="m1032 266.5c0.8 0.1 1.3 0.9 1.2 1.7-0.1 0.7-0.9 1.3-1.7 1.2-0.7-0.2-1.3-0.9-1.2-1.7 0.2-0.8 0.9-1.3 1.7-1.2z"/>
				</g>
				<g id="&lt;Group&gt;">
					<path id="&lt;Path&gt;" class="s13" d="m1051.2 265q-0.2 0-0.4-0.1c-0.1-0.1-4.1-2.4-9.1-0.1-0.4 0.1-0.8 0-1-0.4-0.2-0.4 0-0.9 0.4-1.1 5.7-2.6 10.3 0.1 10.5 0.2 0.4 0.2 0.5 0.7 0.3 1.1-0.1 0.2-0.4 0.4-0.7 0.4z"/>
				</g>
				<g id="&lt;Group&gt;">
					<path id="&lt;Path&gt;" class="s13" d="m1035.7 265.4q-0.2 0-0.5-0.2c-0.1-0.1-3.9-3.2-8.8-1-0.4 0.2-0.9 0-1-0.4-0.2-0.4 0-0.8 0.3-1 5.8-2.6 10.3 1 10.5 1.2 0.4 0.3 0.4 0.8 0.1 1.1-0.1 0.2-0.3 0.3-0.6 0.3z"/>
				</g>
				<g id="&lt;Group&gt;">
					<path id="&lt;Path&gt;" class="s2" d="m1040.6 284.5c-1.2 0-2.1-0.2-2.2-0.2-0.3-0.1-0.5-0.4-0.4-0.7 0-0.4 0.3-0.6 0.7-0.5 0 0 5.4 1.2 7.9-2.7 0.2-0.2 0.5-0.3 0.8-0.1 0.3 0.2 0.4 0.5 0.2 0.8-1.9 2.8-4.9 3.4-7 3.4z"/>
				</g>
				<path id="&lt;Path&gt;" class="s2" d="m1041.6 752c-0.5 0.9-1.1 1.7-1.9 2.2-0.9 0.7-2.1 1.2-3.3 1.2h-42.3c-0.9 0-1.8-0.5-2.3-1.4q-0.5-0.9-0.5-1.7 0-0.2 0-0.3z"/>
				<g id="&lt;Group&gt;">
					<path id="&lt;Path&gt;" class="s2" d="m1115.4 752c-1 2-2.9 3.4-5.2 3.4h-42.3c-0.8 0-1.6-0.4-2.1-1.2q-0.1-0.1-0.2-0.2c-0.3-0.6-0.5-1.2-0.5-1.8 0 0 0-0.1 0-0.2z"/>
				</g>
				<path id="&lt;Path&gt;" class="s11" d="m980.7 457.3l13.2 5.2-1.3 3.2-13.1-5.4z"/>
				<g id="&lt;Group&gt;">
					<path id="&lt;Path&gt;" class="s14" d="m997.5 387.3l36.6 5.9-0.5 3.2-36.7-6z"/>
				</g>
				<g id="&lt;Group&gt;">
					<path id="&lt;Path&gt;" class="s10" d="m1037.4 404.8l-20.4-4.1-9.2-4.4c-0.8-0.4-1.4-1-1.7-1.9l-1.3-3.3c-0.1-0.6 0.4-1.1 1-1l10.9 2.8 11 0.4-2.1-2.6-3.8 1c-0.6 0.1-1.1 0.1-1.7-0.1l-2.2-0.7 5.5-3.9c0.6-0.5 1.5-0.7 2.3-0.4l7.2 2.5 5.2 3.9 1.5 3.8z"/>
				</g>
				<g id="&lt;Group&gt;">
					<path id="&lt;Path&gt;" class="s11" d="m1041.9 405.6l-4.3-0.8c0 0-1.3-8 0.5-11.8h2.9c0 0 1.5 4.6 0.9 12.6z"/>
				</g>
				<g id="&lt;Group&gt;">
					<path id="&lt;Path&gt;" class="s9" d="m1113.8 739.2l3.8 5.8c2.9 4.5-0.4 10.4-5.7 10.4h-45.9c-4.4 0-5.7-6.1-1.6-7.9l26.8-11.8c16.3 9.9 22.6 3.5 22.6 3.5z"/>
				</g>
				<g id="&lt;Group&gt;">
					<path id="&lt;Compound Path&gt;" fill-rule="evenodd" class="s7" d="m1093.9 748q-0.5 0-1-0.1c-3-0.8-5.7-4.9-4.9-11.2l0.2-1.1 1 0.5c1 0.5 9.6 5.2 7.8 9.8-0.6 1.3-1.7 2.1-3.1 2.1zm-4.4-10c-0.3 5.3 2.1 7.9 3.8 8.4 1 0.2 1.8-0.2 2.2-1.1 1-2.4-3.4-5.7-6-7.3z"/>
				</g>
				<g id="&lt;Group&gt;">
					<path id="&lt;Path&gt;" class="s9" d="m1040 739.2l3.7 5.8c2.9 4.5-0.3 10.4-5.7 10.4h-45.8c-4.4 0-5.7-6.1-1.6-7.9l26.7-11.8c16.3 9.9 22.7 3.5 22.7 3.5z"/>
				</g>
				<g id="&lt;Group&gt;">
					<path id="&lt;Compound Path&gt;" fill-rule="evenodd" class="s7" d="m1020.1 748q-0.5 0-1-0.1c-3.1-0.8-5.7-4.9-4.9-11.2l0.2-1.1 0.9 0.5c1 0.5 9.7 5.2 7.8 9.8-0.5 1.3-1.7 2.1-3 2.1zm-4.5-10c-0.3 5.3 2.2 7.9 3.9 8.4 1 0.2 1.8-0.2 2.2-1.1 1-2.4-3.4-5.7-6.1-7.3z"/>
				</g>
			</g>
			<g id="&lt;Group&gt;">
				<path id="&lt;Path&gt;" class="s15" d="m804.8 239.9l-25.3 3.4c0.3 16.8-1.2 41.3-14.2 31.1-19.1-15.1-17.5-40.1-17.5-40.1l24.5-4.1-0.4-1 34-4.4c0 0 3.1 2.5 3 6.2-0.2 3.7-4.1 8.9-4.1 8.9z"/>
				<path id="&lt;Path&gt;" class="s16" d="m738.7 712.1l-0.9 11.4-1.1 14.1-26.5-0.7v-5.1l1.2-13.1 0.4-3.7z"/>
				<path id="&lt;Path&gt;" class="s15" d="m736.7 731.8l33 15.8c1.7 0.8 2.6 2.8 2.2 4.6-0.5 1.9-2.1 3.2-4 3.2h-55.2c-5.7 0-9.6-5.8-7.5-11.1l5-12.5c3.7 10.4 26.5 0 26.5 0z"/>
				<path id="&lt;Path&gt;" class="s16" d="m787.9 736.9v-5.2l-1.8-11.3-0.2-0.9-0.6-4.4 28.2-2.7 0.4 9.3 0.5 10.1v5.8z"/>
				<path id="&lt;Path&gt;" class="s15" d="m814.4 731.8l33 15.8c1.7 0.8 2.6 2.8 2.2 4.6-0.5 1.9-2.1 3.2-4 3.2h-55.2c-5.7 0-9.6-5.8-7.5-11.1l5-12.5c3.7 10.4 26.5 0 26.5 0z"/>
				<path id="&lt;Path&gt;" class="s17" d="m711.8 715l26.9-2.9-0.9 11.4c-11.2 0.3-21.4-2.9-26.4-4.8z"/>
				<path id="&lt;Path&gt;" class="s17" d="m813.9 721.7c-11 1.4-21.5 0-27.8-1.3l-0.2-0.9-0.6-4.4 28.2-2.7z"/>
				<path id="&lt;Path&gt;" class="s15" d="m802.7 474.7l13.3 242.2c-16.4 5.8-31.4 0-31.4 0l-25.6-191.8-19.4 189.9c-11.7 5.8-29.1 0-29.1 0l8.6-246.3c37.7-10.3 83.6 6 83.6 6z"/>
				<path id="&lt;Path&gt;" class="s18" d="m759 525.1l4.2-14.7 2.7 66.5z"/>
				<g id="&lt;Group&gt;">
					<path id="&lt;Path&gt;" class="s1" d="m810.4 424.7c-0.4 20.6 0.3 49.7 0.3 49.7-8.7 1.4-28.2 1.6-39.8 0.9q-0.9-0.1-1.7-0.2c-18.6-1.2-41.6-4.4-52-5.9-3.5-0.5-5.6-0.8-5.6-0.8 0 0 6.4-18.1 8.6-40.6q0.2-1.5 0.3-3.1c1.1-12.3 3.6-44.2 5.8-73.6q0.4-4.1 0.7-8c2.1-27.5 3.8-50.9 3.8-50.9l22.8-8.2 8.8-3.1 24.9 0.9 4.9 2.4 27.9 13.9c4.7 2.3 8.3 6.5 9.8 11.5l15.7 51.6-33.2 25.8c-0.9 9.6-1.5 19.6-1.8 29q-0.1 4.4-0.2 8.7z"/>
				</g>
				<g id="&lt;Group&gt;">
					<path id="&lt;Path&gt;" class="s2" d="m891 412l-6.5 8.8c-15.3 3.3-21.9-1.5-21.9-1.5l-3.5-6.3z"/>
				</g>
				<g id="&lt;Group&gt;">
					<path id="&lt;Path&gt;" class="s3" d="m774.5 290.1v172.1q0 0.1 0 0.2l-3.6 12.9q-0.9-0.1-1.7-0.2l3.7-13v-172c0-0.5 0.4-0.8 0.8-0.8 0.4 0 0.8 0.3 0.8 0.8z"/>
				</g>
				<g id="&lt;Group&gt;">
					<path id="&lt;Path&gt;" class="s10" d="m802.7 264.9c-1.1 3.4-3.3 6.2-6 8.2-2.8 1.9-6.1 3.1-9.7 3.1l0.5 7.6v-1.2 0.3c0 7.2-5.8 13.1-13.1 13.1-7.7 0-13.6-6.7-12.9-14.3l0.3-2 1.9-18.4c-4.1 1.5-9.7-11-6.6-16.8 3.1-5.8 8.7-2.5 8.7-2.5 0.4 1.7 1.6 3.5 2.7 4.8 0.6 0.9 2 0.5 2.2-0.5l1.6-6.7 0.9-3.9c18.5 3.6 30.3 1.2 32.5-3.5 0.1 1.3 0.1 6.1 0.1 7.4 0.2 11.2-0.9 18.9-3.1 25.3z"/>
				</g>
				<g id="&lt;Group&gt;">
					<path id="&lt;Path&gt;" class="s2" d="m787 276.2l0.2 7.5-0.1 2c0 0-10.2-3.6-13.4-16.3 0 0 5.4 6.8 13.3 6.8z"/>
				</g>
				<g id="&lt;Group&gt;">
					<path id="&lt;Path&gt;" class="s2" d="m803.2 411.3c-1.4-1.2-1.3-3.3 0.2-4.3l9.8-6.3c-0.5 2.1-1.8 4.2-3.3 5.2-2.1 1.5-6.7 5.4-6.7 5.4z"/>
				</g>
				<g id="&lt;Group&gt;">
					<path id="&lt;Path&gt;" class="s7" d="m813.1 416.1h-61.9v-62.5h61.9z"/>
					<g id="&lt;Group&gt;">
						<g id="&lt;Group&gt;">
							<path id="&lt;Path&gt;" class="s5" d="m813.1 353.6h97.3v62.5h-97.3z"/>
						</g>
					</g>
					<path id="&lt;Path&gt;" class="s2" d="m874.8 388.6h-9.3v9.3h-7.6v-9.3h-9.3v-7.6h9.3v-9.3h7.6v9.3h9.3z"/>
					<path id="&lt;Path&gt;" class="s8" d="m869.9 364.2h-16.4v-10.6h16.4z"/>
					<g id="&lt;Group&gt;">
						<path id="&lt;Path&gt;" class="s1" d="m790.3 364.2h-16.3v-10.6h16.3z"/>
					</g>
				</g>
				<g id="&lt;Group&gt;">
					<path id="&lt;Path&gt;" class="s10" d="m828.3 416.1c-5.8 4.8-17.8 6.8-17.8 6.8l-26.9-3.7-1.5-16.8 2.8 0.3 6.1 0.6 11.4-2.1c2-0.1 6.6-1.7 8.6-2.5 1.2-0.5 2.6 0.7 2.2 2-0.5 2.1-1.8 4.2-3.3 5.2-2.1 1.5-6.7 5.4-6.7 5.4 4.1 2.9 13.6 4.1 19.7 4.5q0 0 0 0c3.2 0.3 5.4 0.3 5.4 0.3z"/>
				</g>
				<g id="&lt;Group&gt;">
					<path id="&lt;Path&gt;" class="s2" d="m828.3 416.1c-5.8 4.8-17.8 6.8-17.8 6.8l-26.9-3.7-1.5-16.8 2.8 0.3c-1.8 8.1 0 13.9 0 13.9 0 0 4.8 1.8 14.6 2.7 9.7 0.7 23-3.3 23.4-3.5q0 0 0 0c3.2 0.3 5.4 0.3 5.4 0.3z"/>
				</g>
				<path id="&lt;Path&gt;" class="s3" d="m733.2 349c0 0-4.9 81.5-16 120.2-3.5-0.5-5.6-0.8-5.6-0.8 0 0 6.4-18.1 8.6-40.6q0.2-1.5 0.3-3.1c1.1-12.3 3.6-44.2 5.8-73.6z"/>
				<g id="&lt;Group&gt;">
					<path id="&lt;Path&gt;" class="s1" d="m733.2 349l-14.2 34.1 65.9 19.6c-3 9-1.3 16.5-1.3 16.5-29.2 0.7-57-3-76.3-6.6-14.1-2.6-22.8-17.1-18.4-30.8l24.2-76.4c1.8-5.7 6.4-10.1 12.2-11.7l5.5-1.5c12.7 7 2.4 56.8 2.4 56.8z"/>
				</g>
				<g id="&lt;Group&gt;">
					<path id="&lt;Path&gt;" class="s3" d="m784.9 403.5q-0.2 0-0.3-0.1l-65.8-19.5c-0.5-0.1-0.7-0.6-0.6-1 0.1-0.4 0.6-0.6 1-0.5l65.9 19.5c0.4 0.2 0.6 0.6 0.5 1-0.1 0.3-0.4 0.6-0.7 0.6z"/>
				</g>
				<g id="&lt;Group&gt;">
					<path id="&lt;Path&gt;" class="s3" d="m778.6 420c-27.5 0-63-5.1-63.3-5.2-0.5-0.1-0.8-0.5-0.7-0.9 0.1-0.4 0.5-0.7 0.9-0.7 0.4 0.1 40.3 5.9 68.1 5.2 0.4 0 0.8 0.3 0.8 0.7 0 0.5-0.3 0.8-0.7 0.9q-2.5 0-5.1 0z"/>
				</g>
				<g id="&lt;Group&gt;">
					<g id="&lt;Group&gt;">
						<path id="&lt;Path&gt;" class="s1" d="m772 251.2c3.4 4.1 3.6 8.4 2.8 11.9-0.9 3.7-4.2 6.3-8 6.3h-12.6q-1.8-1.4-3.4-3.1c-6.1-6.4-9.9-15-10.1-24.5-0.4-20 15.7-37 35.7-37.5 17.3-0.5 32.9 10.3 34.7 26.7q0.1 1.5 0.1 3.1h-33.7c-4.8 2.2-12.8 8.6-5.5 17.1z"/>
					</g>
					<path id="&lt;Path&gt;" class="s3" d="m772 251.2c3.4 4.1 3.6 8.4 2.8 11.9-0.9 3.7-4.2 6.3-8 6.3h-12.6q-1.8-1.4-3.4-3.1h16c2.4 0 4.4-1.6 4.9-3.9 0.8-3.5 0.1-6.5-2.1-9.2-3.9-4.5-4-8.6-3.4-11.2 1.2-5.2 5.9-8.9 10-10.8l0.6-0.2h34.3q0.1 1.5 0.1 3.1h-33.7c-4.8 2.2-12.8 8.6-5.5 17.1z"/>
					<path id="&lt;Path&gt;" class="s3" d="m777.5 234.1l-1.5-6.3c22.3-3.5 34.4-1.9 34.4-1.9l0.5 3.8 5 5.3z"/>
				</g>
				<g id="&lt;Group&gt;">
					<path id="&lt;Path&gt;" class="s12" d="m784.3 247.9c0.1 0.8-0.4 1.5-1.2 1.7-0.8 0.1-1.5-0.5-1.7-1.2-0.1-0.8 0.4-1.6 1.2-1.7 0.8-0.1 1.6 0.4 1.7 1.2z"/>
				</g>
				<g id="&lt;Group&gt;">
					<path id="&lt;Path&gt;" class="s12" d="m800.6 247.8c-0.1 0.8-0.7 1.5-1.5 1.4-0.8 0-1.5-0.6-1.4-1.4 0-0.8 0.6-1.5 1.4-1.4 0.8 0 1.5 0.6 1.5 1.4z"/>
				</g>
				<g id="&lt;Group&gt;">
					<path id="&lt;Path&gt;" class="s13" d="m777 244.7c-0.2-0.4-0.1-0.9 0.3-1.1 0.2-0.1 4.9-2.8 10.6-0.2 0.4 0.2 0.5 0.7 0.3 1-0.1 0.4-0.6 0.6-1 0.4-4.9-2.2-8.9 0-9.1 0.1q-0.2 0.1-0.4 0.1c-0.3 0-0.5-0.1-0.7-0.3z"/>
				</g>
				<g id="&lt;Group&gt;">
					<path id="&lt;Path&gt;" class="s13" d="m795.1 244.2c-0.2-0.4 0-0.9 0.3-1.1 0.3-0.1 5.4-2.9 10.6 0.8 0.3 0.2 0.4 0.7 0.2 1.1-0.3 0.3-0.8 0.4-1.1 0.1-4.4-3-8.7-0.7-8.9-0.6q-0.3 0.1-0.5 0.1c-0.2-0.1-0.5-0.2-0.6-0.4z"/>
				</g>
				<g id="&lt;Group&gt;">
					<path id="&lt;Path&gt;" class="s2" d="m781.4 261.2c-0.2-0.3-0.1-0.7 0.1-0.8 0.3-0.2 0.7-0.2 0.8 0.1 2.6 3.8 7.9 2.7 8 2.7 0.3-0.1 0.6 0.1 0.7 0.4 0 0.3-0.2 0.7-0.5 0.7-0.1 0-0.9 0.2-2.2 0.2-2 0-5.1-0.5-6.9-3.3z"/>
				</g>
			</g>
			<g id="&lt;Group&gt;">
				<g id="&lt;Group&gt;">
					<path id="&lt;Path&gt;" class="s5" d="m708.3 239.6l-7.1 2.5c-2 0.7-3.4 2.6-3.4 4.8v62.9c0 2.6-2.1 4.7-4.7 4.7h-112c-2.6 0-4.7-2.1-4.7-4.7v-88.9c0-2.6 2.1-4.7 4.7-4.7h112c2.6 0 4.7 2.1 4.7 4.7v4.4c0 2.2 1.5 4.2 3.6 4.9l6.8 2.1c3.5 1.1 3.6 6 0.1 7.3z"/>
				</g>
				<path id="&lt;Path&gt;" class="s7" d="m624.2 216.2v24.7c0 10-8.1 18.2-18.1 18.2h-29.7v-38.2c0-2.6 2.1-4.7 4.7-4.7z"/>
				<g id="&lt;Group&gt;">
					<g id="&lt;Group&gt;">
						<path id="&lt;Path&gt;" class="s9" d="m642.5 251.2v45.2c0 2.7-2.2 4.9-4.9 4.9h-28.2c-2.7 0-4.9-2.2-4.9-4.9v-45.2c0-2.7 2.2-4.9 4.9-4.9h3.9v-3.8h20.4v3.8h3.9c2.7 0 4.9 2.2 4.9 4.9z"/>
					</g>
					<path id="&lt;Path&gt;" class="s2" d="m633.7 234.7v7.8h-20.4v-7.8c0-1.6 1.3-3 3-3h14.4c1.6 0 3 1.4 3 3z"/>
					<g id="&lt;Group&gt;">
						<path id="&lt;Path&gt;" class="s5" d="m633.7 274.8h-7.3v7.2h-5.9v-7.2h-7.2v-5.9h7.2v-7.2h5.9v7.2h7.3z"/>
					</g>
				</g>
				<g id="&lt;Group&gt;">
					<path id="&lt;Path&gt;" class="s9" d="m672.1 296.9l-20 4.4c-0.5 0.1-1.1-0.2-1.2-0.8l-8.4-38.8c-0.2-0.5 0.2-1.1 0.7-1.2l20-4.3c0.6-0.2 1.1 0.2 1.2 0.7l8.5 38.8c0.1 0.6-0.2 1.1-0.8 1.2z"/>
					<g id="&lt;Group&gt;">
						<path id="&lt;Path&gt;" class="s7" d="m653 266c0.4 1.9-0.8 3.7-2.7 4.1-1.8 0.4-3.6-0.8-4-2.6-0.4-1.9 0.7-3.7 2.6-4.1 1.8-0.4 3.7 0.8 4.1 2.6z"/>
						<path id="&lt;Path&gt;" class="s7" d="m656.7 265.2c-0.4-1.8 0.7-3.7 2.6-4.1 1.8-0.4 3.7 0.8 4.1 2.6 0.4 1.9-0.8 3.7-2.7 4.1-1.8 0.4-3.6-0.8-4-2.6z"/>
						<path id="&lt;Path&gt;" class="s7" d="m654.9 274.8c0.4 1.8-0.8 3.6-2.6 4-1.9 0.4-3.7-0.7-4.1-2.6-0.4-1.8 0.8-3.6 2.6-4.1 1.8-0.4 3.7 0.8 4.1 2.7z"/>
						<path id="&lt;Path&gt;" class="s7" d="m665.3 272.5c0.4 1.8-0.8 3.7-2.6 4.1-1.9 0.4-3.7-0.8-4.1-2.7-0.4-1.8 0.8-3.6 2.6-4 1.8-0.4 3.7 0.7 4.1 2.6z"/>
						<path id="&lt;Path&gt;" class="s7" d="m656.8 283.5c0.4 1.8-0.8 3.7-2.6 4.1-1.9 0.4-3.7-0.8-4.1-2.6-0.4-1.9 0.8-3.7 2.6-4.1 1.8-0.4 3.7 0.8 4.1 2.6z"/>
						<path id="&lt;Path&gt;" class="s7" d="m667.2 281.2c0.4 1.9-0.8 3.7-2.6 4.1-1.9 0.4-3.7-0.8-4.1-2.6-0.4-1.9 0.8-3.7 2.6-4.1 1.8-0.4 3.7 0.8 4.1 2.6z"/>
						<path id="&lt;Path&gt;" class="s7" d="m658.7 292.2c0.4 1.9-0.8 3.7-2.6 4.1-1.9 0.4-3.7-0.8-4.1-2.6-0.4-1.8 0.8-3.7 2.6-4.1 1.9-0.4 3.7 0.8 4.1 2.6z"/>
						<path id="&lt;Path&gt;" class="s7" d="m669.1 290c0.4 1.8-0.8 3.6-2.6 4-1.9 0.4-3.7-0.7-4.1-2.6-0.4-1.8 0.8-3.6 2.6-4 1.9-0.4 3.7 0.7 4.1 2.6z"/>
					</g>
				</g>
			</g>
			<g id="&lt;Group&gt;">
				<g id="&lt;Group&gt;">
					<path id="&lt;Path&gt;" class="s2" d="m1174.1 266.6v7.1c0 0.8-0.6 1.5-1.4 1.5h-14.2v14.1c0 0.8-0.7 1.5-1.5 1.5h-7.1c-0.8 0-1.4-0.7-1.4-1.5v-14.1h-14.2c-0.8 0-1.4-0.7-1.4-1.5v-7.1c0-0.8 0.6-1.5 1.4-1.5h14.2v-14.1c0-0.8 0.6-1.5 1.4-1.5h7.1c0.8 0 1.5 0.7 1.5 1.5v14.1h14.2c0.8 0 1.4 0.7 1.4 1.5z"/>
				</g>
				<g id="&lt;Group&gt;">
					<path id="&lt;Path&gt;" class="s2" d="m283 426.8v7.1c0 0.8-0.6 1.5-1.4 1.5h-14.2v14.2c0 0.8-0.6 1.4-1.4 1.4h-7.2c-0.8 0-1.4-0.6-1.4-1.4v-14.2h-14.2c-0.8 0-1.4-0.7-1.4-1.5v-7.1c0-0.8 0.6-1.4 1.4-1.4h14.2v-14.2c0-0.8 0.6-1.4 1.4-1.4h7.2c0.8 0 1.4 0.6 1.4 1.4v14.2h14.2c0.8 0 1.4 0.6 1.4 1.4z"/>
				</g>
				<g id="&lt;Group&gt;">
					<path id="&lt;Path&gt;" class="s2" d="m625.8 157.8v8.8c0 1-0.8 1.8-1.8 1.8h-17.5v17.5c0 1-0.8 1.8-1.8 1.8h-8.8c-1 0-1.8-0.8-1.8-1.8v-17.5h-17.5c-1 0-1.8-0.8-1.8-1.8v-8.8c0-1 0.8-1.8 1.8-1.8h17.5v-17.5c0-1 0.8-1.8 1.8-1.8h8.8c1 0 1.8 0.8 1.8 1.8v17.5h17.5c1 0 1.8 0.8 1.8 1.8z"/>
				</g>
				<g id="&lt;Group&gt;">
					<path id="&lt;Path&gt;" class="s2" d="m1183.8 617.3v8.8c0 1-0.8 1.8-1.8 1.8h-17.5v17.5c0 1-0.8 1.8-1.7 1.8h-8.9c-1 0-1.8-0.8-1.8-1.8v-17.5h-17.5c-0.9 0-1.7-0.8-1.7-1.8v-8.8c0-1 0.8-1.8 1.7-1.8h17.5v-17.5c0-1 0.8-1.8 1.8-1.8h8.9c0.9 0 1.7 0.8 1.7 1.8v17.5h17.5c1 0 1.8 0.8 1.8 1.8z"/>
				</g>
				<g id="&lt;Group&gt;">
					<path id="&lt;Path&gt;" class="s2" d="m642.5 469v7.1c0 0.8-0.7 1.4-1.5 1.4h-14.1v14.2c0 0.8-0.7 1.4-1.5 1.4h-7.1c-0.8 0-1.5-0.6-1.5-1.4v-14.2h-14.1c-0.8 0-1.5-0.6-1.5-1.4v-7.1c0-0.8 0.7-1.5 1.5-1.5h14.1v-14.2c0-0.8 0.7-1.4 1.5-1.4h7.1c0.8 0 1.5 0.6 1.5 1.4v14.2h14.1c0.8 0 1.5 0.7 1.5 1.5z"/>
				</g>
				<path id="&lt;Path&gt;" class="s7" d="m1146.9 372.4c7.7 0 14 6.3 14 14 0 7.8-6.3 14.1-14 14.1-7.8 0-14-6.3-14-14.1 0-7.7 6.2-14 14-14z"/>
				<path id="&lt;Path&gt;" class="s7" d="m910.4 619.1c7.7 0 14 6.3 14 14.1 0 7.7-6.3 14-14 14-7.8 0-14.1-6.3-14.1-14 0-7.8 6.3-14.1 14.1-14.1z"/>
				<path id="&lt;Path&gt;" class="s7" d="m351.4 448.3c6.1 0 11.1 5 11.1 11.2 0 6.1-5 11.1-11.1 11.1-6.2 0-11.2-5-11.2-11.1 0-6.2 5-11.2 11.2-11.2z"/>
				<path id="&lt;Path&gt;" class="s7" d="m533.3 324.8c6.2 0 11.1 5 11.1 11.1 0 6.2-4.9 11.2-11.1 11.2-6.2 0-11.2-5-11.2-11.2 0-6.1 5-11.1 11.2-11.1z"/>
				<path id="&lt;Path&gt;" class="s7" d="m665.3 632.2c7.8 0 14.1 6.3 14.1 14 0 7.8-6.3 14.1-14.1 14.1-7.7 0-14-6.3-14-14.1 0-7.7 6.3-14 14-14z"/>
				<path id="&lt;Path&gt;" class="s7" d="m1206.9 698.4c7.7 0 14 6.2 14 14 0 7.7-6.3 14-14 14-7.8 0-14.1-6.3-14.1-14 0-7.8 6.3-14 14.1-14z"/>
			</g>
		</g>
	</g>
	<g id="Learn more">
	</g>
	<g id="Text">
	</g>
	<g id="Tittle">
	</g>
	<g id="Log in">
	</g>
	<g id="Sign Up">
	</g>
	<g id="Menu">
	</g>
</svg>