<svg version="1.2" xmlns="http://www.w3.org/2000/svg" viewBox="0 0 1920 1080" width="1920" height="1080">
	<title>reshot-illustration-minimal-background-87S6NK4WDP-ai</title>
	<defs>
		<radialGradient id="g1" cx="625.9" cy="196.1" r="73.1" gradientUnits="userSpaceOnUse">
			<stop offset="0" stop-color="#3ec1b0"/>
			<stop offset="1" stop-color="#fefefe"/>
		</radialGradient>
		<radialGradient id="g2" cx="366.9" cy="884.5" r="130.1" gradientUnits="userSpaceOnUse">
			<stop offset="0" stop-color="#6ec3ed"/>
			<stop offset="1" stop-color="#fefefe"/>
		</radialGradient>
	</defs>
	<style>
		.s0 { fill: #f9f3f2 } 
		.s1 { fill: #d8cabf } 
		.s2 { mix-blend-mode: multiply;fill: url(#g1) } 
		.s3 { fill: #33d4ba } 
		.s4 { fill: #f79596 } 
		.s5 { fill: #fdcf48 } 
		.s6 { fill: #6dc3f2 } 
		.s7 { mix-blend-mode: multiply;fill: url(#g2) } 
	</style>
	<g id="Layer 1">
		<g id="&lt;Group&gt;">
			<g id="&lt;Group&gt;">
				<g id="&lt;Group&gt;">
					<path id="&lt;Path&gt;" class="s0" d="m0 0h1920v1080h-1920z"/>
				</g>
			</g>
		</g>
		<g id="&lt;Group&gt;">
			<path id="&lt;Path&gt;" class="s1" d="m175.8 917.6q0 0 0 0 0 0 0 0.1 0 0 0 0.1 0 0.1 0 0.1c0 2.8-2.3 5.1-5.1 5.1-2.8 0-5-2.3-5-5.1q0 0 0-0.1 0-0.1 0-0.1 0-0.1 0-0.1 0 0 0 0c0-2.8 2.2-5.1 5-5.1 2.8 0 5.1 2.3 5.1 5.1z"/>
			<path id="&lt;Path&gt;" class="s1" d="m175.8 954.8c0 2.8-2.3 5-5.1 5-2.8 0-5-2.2-5-5 0-2.8 2.2-5.1 5-5.1 2.8 0 5.1 2.3 5.1 5.1z"/>
			<path id="&lt;Path&gt;" class="s1" d="m175.8 991.7q0 0 0 0.1 0 0.1 0 0.1c0 2.8-2.3 5.1-5.1 5.1-2.8 0-5-2.3-5-5.1q0 0 0-0.1 0-0.1 0-0.1c0-2.8 2.2-5.1 5-5.1 2.8 0 5.1 2.3 5.1 5.1z"/>
			<path id="&lt;Path&gt;" class="s1" d="m135.2 917.6q0 0 0 0 0 0 0 0.1 0 0 0 0.1 0 0.1 0 0.1c0 2.8-2.2 5.1-5 5.1-2.8 0-5.1-2.3-5.1-5.1q0 0 0-0.1 0-0.1 0-0.1 0-0.1 0-0.1 0 0 0 0c0-2.8 2.3-5.1 5.1-5.1 2.8 0 5 2.3 5 5.1z"/>
			<path id="&lt;Path&gt;" class="s1" d="m135.2 954.8c0 2.8-2.2 5-5 5-2.8 0-5.1-2.2-5.1-5 0-2.8 2.3-5.1 5.1-5.1 2.8 0 5 2.3 5 5.1z"/>
			<path id="&lt;Path&gt;" class="s1" d="m135.2 991.7q0 0 0 0.1 0 0.1 0 0.1c0 2.8-2.2 5.1-5 5.1-2.8 0-5.1-2.3-5.1-5.1q0 0 0-0.1 0-0.1 0-0.1c0-2.8 2.3-5.1 5.1-5.1 2.8 0 5 2.3 5 5.1z"/>
			<path id="&lt;Path&gt;" class="s1" d="m94.7 917.6q0 0 0 0 0 0 0 0.1 0 0 0 0.1 0 0.1 0 0.1c0 2.8-2.3 5.1-5.1 5.1-2.8 0-5-2.3-5-5.1q0 0 0-0.1 0-0.1 0-0.1 0-0.1 0-0.1 0 0 0 0c0-2.8 2.2-5.1 5-5.1 2.8 0 5.1 2.3 5.1 5.1z"/>
			<path id="&lt;Path&gt;" class="s1" d="m94.7 954.8c0 2.8-2.3 5-5.1 5-2.8 0-5-2.2-5-5 0-2.8 2.2-5.1 5-5.1 2.8 0 5.1 2.3 5.1 5.1z"/>
			<path id="&lt;Path&gt;" class="s1" d="m94.7 991.7q0 0 0 0.1 0 0.1 0 0.1c0 2.8-2.3 5.1-5.1 5.1-2.8 0-5-2.3-5-5.1q0 0 0-0.1 0-0.1 0-0.1c0-2.8 2.2-5.1 5-5.1 2.8 0 5.1 2.3 5.1 5.1z"/>
			<path id="&lt;Path&gt;" class="s1" d="m165.7 843.6c0-2.8 2.2-5.1 5-5.1 2.8 0 5.1 2.3 5.1 5.1 0 2.8-2.3 5.1-5.1 5.1-2.8 0-5-2.3-5-5.1z"/>
			<path id="&lt;Path&gt;" class="s1" d="m175.8 880.8c0 2.8-2.3 5-5.1 5-2.8 0-5-2.2-5-5 0-2.8 2.2-5.1 5-5.1 2.8 0 5.1 2.3 5.1 5.1z"/>
			<path id="&lt;Path&gt;" class="s1" d="m135.2 843.6c0 2.8-2.2 5.1-5 5.1-2.8 0-5.1-2.3-5.1-5.1 0-2.8 2.3-5.1 5.1-5.1 2.8 0 5 2.3 5 5.1z"/>
			<path id="&lt;Path&gt;" class="s1" d="m135.2 880.8c0 2.8-2.2 5-5 5-2.8 0-5.1-2.2-5.1-5 0-2.8 2.3-5.1 5.1-5.1 2.8 0 5 2.3 5 5.1z"/>
			<path id="&lt;Path&gt;" class="s1" d="m94.7 843.6c0 2.8-2.3 5.1-5.1 5.1-2.8 0-5-2.3-5-5.1 0-2.8 2.2-5.1 5-5.1 2.8 0 5.1 2.3 5.1 5.1z"/>
			<path id="&lt;Path&gt;" class="s1" d="m94.7 880.8c0 2.8-2.3 5-5.1 5-2.8 0-5-2.2-5-5 0-2.8 2.2-5.1 5-5.1 2.8 0 5.1 2.3 5.1 5.1z"/>
		</g>
		<g id="&lt;Group&gt;">
			<path id="&lt;Path&gt;" class="s1" d="m1920 1080h-5.4q2.7-2.4 5.4-4.8z"/>
			<path id="&lt;Path&gt;" class="s1" d="m1334.4 1080h-6.2c-38.8-32.5-76.5-71.3-110-113-80.6-100.5-130-208.1-135.7-295.2-2.4-37.3 3.2-70.3 16.7-98.1 14.5-30 38.1-53.9 70.3-71.2 73.4-39.5 138.4-105.4 201.3-169.2 60-60.9 116.6-118.4 180.3-155.2 34.3-19.8 67.3-31.6 100.8-36.1 37.6-5 75-0.7 114.3 13.1 56.4 19.8 108.1 50.4 153.8 91v5.3c-45.9-41.4-98-72.4-154.9-92.4-38.8-13.6-75.7-17.8-112.7-12.9-33.1 4.4-65.7 16.1-99.6 35.7-63.2 36.5-119.7 93.9-179.6 154.6-63 63.9-128.2 130.1-202.1 169.8-31.4 16.9-54.5 40.3-68.6 69.5-13.2 27.1-18.6 59.3-16.3 95.8 5.6 86.2 54.7 192.9 134.7 292.7 34.5 43 73.6 82.8 113.5 115.8z"/>
			<path id="&lt;Path&gt;" class="s1" d="m1273.5 954c-71.3-89-116.5-186.2-123.9-266.6-3.3-35.2 0.7-66.6 11.8-93.4 11.9-28.8 32.1-52.3 60-69.7 58.8-36.8 113.7-92.5 166.9-146.4 55.9-56.7 113.8-115.4 176-151.7 33.4-19.5 65.3-31.2 97.7-35.7 36.3-5.1 72.2-1.2 109.8 12 54.7 19.2 104.5 49.4 148.2 89.8v-5.4c-43.5-39.6-92.9-69.4-147.1-88.4-38.1-13.3-74.5-17.3-111.4-12.1-32.8 4.6-65.2 16.4-98.9 36.1-62.7 36.6-120.7 95.4-176.8 152.3-53 53.8-107.8 109.3-166.2 145.9-55.1 34.4-80.6 92.2-73.7 167.1 12.3 132.4 123.6 297.8 251.1 392.2h6.8c-45.5-33-90.2-76-130.3-126z"/>
			<path id="&lt;Path&gt;" class="s1" d="m1886.9 1080h-6.8q20.8-15.1 39.9-32.7v5.3q-16 14.6-33.1 27.4z"/>
			<path id="&lt;Path&gt;" class="s1" d="m1479.7 1080h-7.9c-51.6-31.1-103.3-77.2-147.9-133-62.8-78.4-104.4-166.5-114-241.6-9.3-72.9 11.4-130.5 59.8-166.6 43.2-32.1 84.2-74.2 127.7-118.8 111.6-114.3 226.9-232.5 382.3-178 51.9 18.2 99.1 47.1 140.3 85.9v5.4q-0.5-0.4-1-0.9c-41.2-39.1-88.4-68.2-140.4-86.5-153.3-53.7-267.9 63.7-378.7 177.2-43.6 44.6-84.8 86.8-128.2 119.2-47.1 35.1-67.2 91.3-58.1 162.5 9.5 74.3 50.7 161.6 113.1 239.5 46.1 57.6 99.7 104.9 153 135.7z"/>
			<path id="&lt;Path&gt;" class="s1" d="m1845.8 1080h-8.1q3.4-1.9 6.8-3.9c27.2-15.9 52.5-34.9 75.5-56.9v5.4c-22.6 21.3-47.3 39.7-73.8 55.2q-0.2 0.1-0.4 0.2z"/>
			<path id="&lt;Path&gt;" class="s1" d="m1575.9 1080h-13c-63.9-22.5-129.6-72.8-184.9-141.7-53.6-66.9-91.2-144.4-103.1-212.8-12.4-71.9 3.1-130.2 44.9-168.5 26.9-24.6 53.8-53.3 82.4-83.6 54.5-57.9 110.9-117.8 173.9-157.3 71.8-45.1 140.6-55.1 210.3-30.6 48 16.8 91.6 43.6 129.6 79.7q2 1.9 4 3.9v5.5q-3.1-3.2-6.3-6.2c-37.7-35.7-80.9-62.3-128.4-79-68.6-24.1-136.5-14.2-207.4 30.3-62.6 39.2-118.8 98.9-173.2 156.7-28.6 30.4-55.6 59.1-82.6 83.8-40.7 37.3-55.7 94.2-43.5 164.5 11.7 67.7 48.9 144.5 102.1 210.8 55 68.5 120.2 118.4 183.5 140.6q5.8 2.1 11.7 3.9z"/>
			<path id="&lt;Path&gt;" class="s1" d="m1786.8 1080h-12.9c24.7-7.7 48.6-18.3 71.6-31.7 27.1-15.8 52-35 74.5-57.3v5.5c-22.1 21.5-46.4 40.1-72.7 55.4-19.6 11.4-39.7 20.8-60.5 28.1z"/>
			<path id="&lt;Path&gt;" class="s1" d="m1920 962.4v5.7c-21.5 21.9-45.5 40.7-71.7 55.9-38.9 22.7-80.7 36.6-124.2 41.3-45 4.8-89.9-0.4-133.5-15.7-54.9-19.3-110.7-61.4-157.2-118.7-44.8-55.3-77.4-119.7-91.7-181.3-8-34.4-10-66.5-5.8-95.4 4.4-31 15.8-57.6 33.9-78.9 6.6-7.7 13.1-15.5 20-23.7 51.6-61.5 110-131.1 177.1-178.8 78-55.6 152-69.9 226.2-43.9 43.6 15.3 83.1 39.6 117.6 72.4q4.7 4.5 9.3 9.2v5.5q-5.7-5.9-11.7-11.6c-34.1-32.4-73.2-56.4-116.3-71.5-73.1-25.7-146.1-11.5-223.1 43.4-66.7 47.4-125 116.8-176.4 178.1-6.9 8.2-13.5 16-20 23.8-17.5 20.7-28.6 46.5-33 76.7-4 28.3-2.1 59.8 5.8 93.7 14.1 60.9 46.4 124.7 90.9 179.5 46 56.7 101.3 98.5 155.5 117.5 43.1 15.1 87.5 20.4 132.1 15.6 43-4.6 84.3-18.4 122.8-40.8 26.9-15.7 51.5-35.1 73.4-58z"/>
			<path id="&lt;Path&gt;" class="s1" d="m1920 933.7v5.7c-20.7 22.3-44.4 41.5-70.6 56.8-71.8 41.9-153.9 50-231.2 22.9-45.5-16-89.6-48.3-127.4-93.5-35.1-41.9-63.2-93.5-79.3-145.2-10.9-35.3-16-69.2-15-100.7 1-33.4 8.9-62.4 23.4-86 33-54 87.5-129.1 159.6-180.3 74.1-52.5 148.2-66.3 220.4-41 45.8 16 86.6 43.3 120.1 79.6v5.8c-33.6-37.2-74.8-65.2-121.2-81.5-71.1-24.9-144.2-11.2-217.4 40.6-71.5 50.8-125.7 125.4-158.5 179.1-14.1 23-21.7 51.2-22.7 83.9-1 30.9 4 64.3 14.8 99.2 15.9 51.2 43.8 102.2 78.5 143.7 37.4 44.7 80.9 76.6 125.8 92.3 76.3 26.8 157.4 18.8 228.4-22.6 27-15.7 51.2-35.6 72.3-58.8z"/>
			<path id="&lt;Path&gt;" class="s1" d="m1920 904.2v6c-19.9 23.2-43.3 42.8-69.5 58.1-63.6 37.1-136.4 44.3-204.8 20.3-34.7-12.2-66.8-34.3-95.4-65.9-25.9-28.6-48.1-64.3-64.3-103.5-14.8-35.9-24.2-73.7-27.2-109.5-3-36.8 0.8-70.5 11.1-97.6 26.6-69.8 75.8-131.3 135-168.8 31-19.7 63.6-32.2 96.8-37.3 35.5-5.4 70.8-2.1 104.9 9.8 43.8 15.4 82.5 42.4 113.4 78.4v6c-30.9-37.1-70-64.8-114.5-80.4-33.6-11.8-68.3-15.1-103.3-9.7-32.8 5-64.9 17.4-95.4 36.8-58.6 37-107.2 97.9-133.5 166.8-10.1 26.5-13.8 59.5-10.8 95.6 3 35.3 12.3 72.7 26.9 108.2 16 38.7 37.9 74 63.5 102.3 28.2 31.1 59.8 52.9 93.9 64.8 67.5 23.7 139.2 16.6 202-20 27-15.7 51-36.2 71.2-60.4z"/>
			<path id="&lt;Path&gt;" class="s1" d="m1920 873.8v6.4c-19 24.4-42 44.8-68.4 60.2-55.4 32.3-118.8 38.6-178.4 17.7-29.3-10.3-55.6-28.7-78.3-54.7-20.3-23.4-37.3-52.2-50.5-85.9-23.4-59.5-32.7-131.1-24.4-186.8 4.8-31.8 15.2-60.7 31.2-86.1 14.9-23.8 34.4-44 57.7-60 28.6-19.6 62.5-32.3 98.1-36.7 35.6-4.5 72.4-0.5 106.4 11.4 41.9 14.7 78.5 41.7 106.6 78v6.4c-28-37.6-65-65.5-107.7-80.5-33.5-11.7-69.8-15.6-104.9-11.2-35.1 4.3-68.4 16.8-96.5 36.1-23 15.7-42 35.5-56.7 58.9-15.6 24.9-25.9 53.2-30.5 84.3-8.2 55 1 125.7 24.1 184.6 13 33.1 29.7 61.6 49.7 84.6 22.3 25.5 48.1 43.6 76.8 53.6 58.7 20.6 121 14.5 175.5-17.3 27.3-16 51-37.4 70.2-63z"/>
			<path id="&lt;Path&gt;" class="s1" d="m1920 841.5v7.2c-17.6 26.3-40.5 48.2-67.4 63.8-47.1 27.6-101.1 32.9-151.9 15.1-24.7-8.7-46.1-24-63.6-45.5-15.2-18.7-28-42.6-37.9-71.2-18.1-52.1-24.4-110.7-29-161.6-4.6-52.5 8.9-93.6 40.2-122 24.1-22 58.3-35.4 99-38.8 36.3-3.1 75.6 1.9 110.7 14.3 40.5 14.1 75.1 41.7 99.9 79v7.2c-23.9-37.7-58.6-67.4-101-82.3-34.7-12.2-73.5-17.2-109.3-14.1-39.9 3.4-73.4 16.5-97 37.9-30.3 27.5-43.3 67.3-38.8 118.4 4.5 50.6 10.8 108.9 28.7 160.5 21.2 60.9 53.6 98.3 99.2 114.2 82.9 29.1 170.4-6.9 218.2-82.1z"/>
			<path id="&lt;Path&gt;" class="s1" d="m1920 805.2v8.5c-37.7 72.9-117 109.6-191.8 83.4-28.5-10-48.3-28.3-62.3-57.7-12.4-26-18.8-57.5-25.5-90.9-5.3-26.5-10.9-53.9-19.8-80.6-16-47.5-13.8-83.7 6.6-107.8 40.2-47.5 141.4-34.3 199.6-13.9 40.9 14.4 73.3 45 93.2 83.6v8.5c-19.1-40.7-52-73.3-94.3-88.1-57.3-20.2-156.8-33.3-195.8 12.8-19.3 22.8-21.3 57.6-5.9 103.5 9.1 26.9 14.6 54.5 20 81.1 13.5 66.8 25.1 124.4 85.4 145.6 75.3 26.4 155.2-12.5 190.6-88z"/>
		</g>
		<g id="&lt;Group&gt;">
			<path id="&lt;Path&gt;" class="s1" d="m511.1 348.4c-13.8 25.6-36.4 46.1-67.1 60.8-70.1 33.8-132.2 90.1-192.2 144.6-57.3 52-111.4 101.2-172.2 132.6-27 14-53.2 23.4-79.6 28.3v-3.6c25.8-4.9 51.5-14.1 78-27.8 60.4-31.2 114.3-80.2 171.4-132.1 60.2-54.7 122.5-111.2 193.1-145.2 30-14.4 52-34.3 65.5-59.3 12.5-23.2 17.7-50.7 15.5-81.9-5.3-73.7-52.2-164.8-128.6-250.1q-6.7-7.4-13.6-14.7h4.9q5.7 6.1 11.3 12.3c76.9 85.9 124.1 177.8 129.5 252.3 2.3 31.8-3 60-15.9 83.8z"/>
			<path id="&lt;Path&gt;" class="s1" d="m396.2 393.7c-55.8 31.3-108.1 78.7-158.7 124.6-53.6 48.7-109 98.9-168.8 130.2-23.4 12.2-46.1 20.8-68.7 26.2v-3.7c22.1-5.2 44.2-13.7 67.1-25.7 59.3-31 114.6-81.1 168-129.6 50.7-46 103.2-93.6 159.3-125.1 26.7-14.9 45.9-34.9 57.3-59.5 10.6-22.9 14.4-49.8 11.3-79.8-7.1-68.8-50.2-151.8-118.3-227.8q-10.8-12.1-22-23.5h5c74.9 76.8 130.5 170.9 138.8 250.9 6.6 64-17.7 113.4-70.3 142.8z"/>
			<path id="&lt;Path&gt;" class="s1" d="m405.4 235.9c8.9 62.2-10.8 111.4-57.1 142.3-41.2 27.5-80.4 63.4-121.9 101.5-70.5 64.7-142.7 130.8-226.4 154.6v-3.8c82.7-23.8 154.1-89.3 224-153.4 41.6-38.2 80.9-74.2 122.4-101.9 45-30 64.2-78 55.5-138.8-9.1-63.5-48.4-138.1-108-204.7-9.8-11-20.1-21.6-30.6-31.7h5.1c9.6 9.4 19.1 19.2 28.2 29.4 60 67 99.6 142.3 108.8 206.5z"/>
			<path id="&lt;Path&gt;" class="s1" d="m343.3 218.7c11.9 61.4-2.9 111.2-42.8 143.9-25.7 21.1-51.4 45.6-78.7 71.5-52 49.5-105.9 100.7-166 134.4-18.8 10.6-37.4 18.9-55.8 24.9v-3.7c17.9-6 35.9-14 54.1-24.3 59.7-33.5 113.4-84.5 165.3-133.8 27.3-26 53.1-50.6 78.9-71.7 38.8-31.9 53.2-80.4 41.6-140.5-11.3-57.9-46.8-123.5-97.6-180.2-12.6-14-25.7-27.1-39.3-39.2h5.3c12.6 11.4 24.9 23.8 36.6 36.9 51.2 57.1 87.1 123.4 98.4 181.8z"/>
			<path id="&lt;Path&gt;" class="s1" d="m279.6 198.1c7.6 29.4 9.5 56.8 5.5 81.5-4.2 26.5-15.1 49.2-32.4 67.4-6.2 6.6-12.5 13.3-19.1 20.3-49.2 52.5-105 112-169 152.8-21.8 13.9-43.3 24.8-64.6 32.6v-3.7c20.6-7.8 41.5-18.4 62.7-31.9 63.6-40.6 119.2-99.9 168.3-152.2 6.7-7.1 12.9-13.7 19.2-20.3 16.7-17.7 27.3-39.8 31.4-65.6 3.9-24.2 2.1-51.1-5.4-80-13.6-52.1-44.4-106.6-86.8-153.4-15.3-16.9-31.6-32.1-48.5-45.6h5.6c15.9 12.9 31.1 27.4 45.5 43.2 42.8 47.2 73.9 102.2 87.6 154.9z"/>
			<path id="&lt;Path&gt;" class="s1" d="m212.9 171.7c10.5 30.3 15.3 59.2 14.4 86.1-1 28.5-8.5 53.3-22.4 73.5-31.5 46.2-83.5 110.3-152.3 154q-26.3 16.7-52.6 27.3v-3.8q25.3-10.4 50.7-26.4c68.3-43.4 120-107.2 151.3-153.1 13.5-19.6 20.8-43.8 21.7-71.6 1-26.5-3.8-55-14.1-84.8-15.2-43.7-41.8-87.4-75-122.8-18.4-19.8-38.5-36.6-59.4-50.1h6.4c19.6 13.1 38.3 29.1 55.6 47.7 33.5 35.8 60.4 79.8 75.7 124z"/>
			<path id="&lt;Path&gt;" class="s1" d="m167.7 232.2c2.9 31.4-0.7 60.2-10.5 83.4-25.4 59.6-72.4 112.2-129 144.3q-13.9 7.8-28.2 13.9v-3.8q13.4-5.8 26.5-13.2c55.9-31.7 102.3-83.7 127.4-142.6 9.6-22.6 13.2-50.9 10.3-81.7-2.8-30.2-11.7-62.1-25.7-92.4-15.2-33.1-36.2-63.3-60.6-87.4-23.6-23.4-49.8-40.6-77.9-51.4v-1.3h6.2c26.7 11 51.6 27.8 74.2 50.2 24.7 24.4 45.9 55 61.4 88.4 14.1 30.7 23.1 63 25.9 93.6z"/>
			<path id="&lt;Path&gt;" class="s1" d="m109.3 299.7c-4.5 27.1-14.5 51.9-29.7 73.6-14.3 20.3-32.9 37.6-55.2 51.3-7.7 4.7-15.9 9-24.4 12.8v-3.9c7.8-3.6 15.4-7.5 22.6-12 21.9-13.4 40.1-30.3 54.1-50.3 14.9-21.2 24.7-45.5 29.1-72.1 7.9-46.9-0.9-107.3-23-157.6-12.4-28.4-28.4-52.7-47.5-72.4-10.9-11.1-22.7-20.6-35.3-28.4v-4.1c13.5 8.1 26.2 18.1 37.8 30.1 19.4 19.9 35.7 44.6 48.3 73.3 22.2 50.9 31.2 112.1 23.2 159.7z"/>
			<path id="&lt;Path&gt;" class="s1" d="m23 388.1c-6.8 5.5-14.5 10.5-23 14.7v-4c7.6-3.9 14.6-8.4 20.8-13.5 28.9-23.5 41.4-57.5 37.1-101.2-4.3-43.2-10.4-93.1-27.5-137.1-8.3-21.3-18.4-39.3-30.4-54v-5.4c13.4 15.6 24.8 35.1 33.7 58.1 17.3 44.5 23.4 94.6 27.7 138.1 4.4 44.9-8.5 79.9-38.4 104.3z"/>
			<path id="&lt;Path&gt;" class="s1" d="m7 360q-3.2 3.4-7 6.3v-4.5q2.3-2 4.4-4.2c18.5-19.5 20.3-49.3 5.6-88.5-3.9-10.4-7.2-21-10-31.6v-14.2c3.6 14.9 7.8 29.9 13.3 44.6 15.3 40.5 13.1 71.5-6.3 92.1z"/>
		</g>
		<g id="&lt;Group&gt;">
			<path id="&lt;Path&gt;" class="s2" d="m699 196.1c0 40.4-32.7 73.1-73.1 73.1-40.4 0-73.2-32.7-73.2-73.1 0-40.4 32.8-73.2 73.2-73.2 40.4 0 73.1 32.8 73.1 73.2z"/>
			<path id="&lt;Path&gt;" class="s3" d="m690.6 152.3c0 36-29.2 65.1-65.1 65.1-36 0-65.1-29.1-65.1-65.1 0-35.9 29.1-65 65.1-65 35.9 0 65.1 29.1 65.1 65z"/>
		</g>
		<path id="&lt;Path&gt;" class="s4" d="m1713 196.1c0 66.1-53.6 119.7-119.7 119.7-66.2 0-119.8-53.6-119.8-119.7 0-66.2 53.6-119.8 119.8-119.8 66.1 0 119.7 53.6 119.7 119.8z"/>
		<path id="&lt;Path&gt;" class="s5" d="m902 1080c0-24.9 20.1-45 45-45 24.9 0 45 20.1 45 45z"/>
		<path id="&lt;Path&gt;" class="s6" d="m1064 236.5c0 5.2-4.3 9.5-9.5 9.5-5.2 0-9.5-4.3-9.5-9.5 0-5.2 4.3-9.5 9.5-9.5 5.2 0 9.5 4.3 9.5 9.5z"/>
		<path id="&lt;Compound Path&gt;" fill-rule="evenodd" class="s4" d="m156 256.5c0 6.9-5.6 12.5-12.5 12.5-6.9 0-12.5-5.6-12.5-12.5 0-6.9 5.6-12.5 12.5-12.5 6.9 0 12.5 5.6 12.5 12.5zm-4.9 0c0-4.2-3.4-7.6-7.6-7.6-4.2 0-7.6 3.4-7.6 7.6 0 4.2 3.4 7.6 7.6 7.6 4.2 0 7.6-3.4 7.6-7.6z"/>
		<path id="&lt;Compound Path&gt;" fill-rule="evenodd" class="s3" d="m1814 778.5c0 6.9-5.6 12.5-12.5 12.5-6.9 0-12.5-5.6-12.5-12.5 0-6.9 5.6-12.5 12.5-12.5 6.9 0 12.5 5.6 12.5 12.5zm-4.9 0c0-4.2-3.4-7.6-7.6-7.6-4.2 0-7.6 3.4-7.6 7.6 0 4.2 3.4 7.6 7.6 7.6 4.2 0 7.6-3.4 7.6-7.6z"/>
		<g id="&lt;Group&gt;">
			<path id="&lt;Path&gt;" class="s7" d="m497 884.5c0 71.8-58.3 130.1-130.1 130.1-71.9 0-130.1-58.3-130.1-130.1 0-71.9 58.2-130.2 130.1-130.2 71.8 0 130.1 58.3 130.1 130.2z"/>
			<path id="&lt;Path&gt;" class="s6" d="m475.7 796.5c0 60.1-48.7 108.8-108.7 108.8-60 0-108.7-48.7-108.7-108.8 0-60 48.7-108.7 108.7-108.7 60 0 108.7 48.7 108.7 108.7z"/>
		</g>
	</g>
</svg>