<svg version="1.2" xmlns="http://www.w3.org/2000/svg" viewBox="0 0 1536 1441" width="1536" height="1441">
	<title>reshot-illustration-digital-communication-2NUWCM95LV-ai</title>
	<defs>
		<linearGradient id="g1" x1="81.7" y1="1250.2" x2="81.7" y2="87.2" gradientUnits="userSpaceOnUse">
			<stop offset="0" stop-color="#e3e7f3"/>
			<stop offset="1" stop-color="#f8fcfd"/>
		</linearGradient>
		<linearGradient id="g2" x1="640.7" y1="304.2" x2="1025.2" y2="304.2" gradientUnits="userSpaceOnUse">
			<stop offset="0" stop-color="#b3a8d2"/>
			<stop offset="1" stop-color="#c1bdde"/>
		</linearGradient>
		<linearGradient id="g3" x1="640.7" y1="374.4" x2="1025.2" y2="374.4" gradientUnits="userSpaceOnUse">
			<stop offset="0" stop-color="#877dba"/>
			<stop offset="1" stop-color="#fefefe"/>
		</linearGradient>
		<linearGradient id="g4" x1="923.4" y1="399.7" x2="964" y2="440.2" gradientUnits="userSpaceOnUse">
			<stop offset="0" stop-color="#877dba"/>
			<stop offset="1" stop-color="#fefefe"/>
		</linearGradient>
		<linearGradient id="g5" x1="962" y1="417.5" x2="1003.9" y2="417.5" gradientUnits="userSpaceOnUse">
			<stop offset="0" stop-color="#f7bdd4"/>
			<stop offset="1" stop-color="#e92494"/>
		</linearGradient>
		<linearGradient id="g6" x1="923.4" y1="500" x2="964" y2="540.5" gradientUnits="userSpaceOnUse">
			<stop offset="0" stop-color="#877dba"/>
			<stop offset="1" stop-color="#fefefe"/>
		</linearGradient>
		<linearGradient id="g7" x1="962" y1="517.8" x2="1003.9" y2="517.8" gradientUnits="userSpaceOnUse">
			<stop offset="0" stop-color="#f7bdd4"/>
			<stop offset="1" stop-color="#e92494"/>
		</linearGradient>
		<linearGradient id="g8" x1="923.4" y1="600.3" x2="964" y2="640.9" gradientUnits="userSpaceOnUse">
			<stop offset="0" stop-color="#877dba"/>
			<stop offset="1" stop-color="#fefefe"/>
		</linearGradient>
		<linearGradient id="g9" x1="962" y1="618.2" x2="1003.9" y2="618.2" gradientUnits="userSpaceOnUse">
			<stop offset="0" stop-color="#f7bdd4"/>
			<stop offset="1" stop-color="#e92494"/>
		</linearGradient>
		<linearGradient id="g10" x1="704.9" y1="474.2" x2="690.4" y2="449.2" gradientUnits="userSpaceOnUse">
			<stop offset="0" stop-color="#2c50a2"/>
			<stop offset="1" stop-color="#9980ba"/>
		</linearGradient>
		<linearGradient id="g11" x1="707.1" y1="449.1" x2="695" y2="428.1" gradientUnits="userSpaceOnUse">
			<stop offset="0" stop-color="#2c50a2"/>
			<stop offset="1" stop-color="#9980ba"/>
		</linearGradient>
		<linearGradient id="g12" x1="704.9" y1="576.2" x2="690.4" y2="551.2" gradientUnits="userSpaceOnUse">
			<stop offset="0" stop-color="#2c50a2"/>
			<stop offset="1" stop-color="#9980ba"/>
		</linearGradient>
		<linearGradient id="g13" x1="707.1" y1="551.1" x2="695" y2="530.1" gradientUnits="userSpaceOnUse">
			<stop offset="0" stop-color="#2c50a2"/>
			<stop offset="1" stop-color="#9980ba"/>
		</linearGradient>
		<linearGradient id="g14" x1="704.9" y1="676.5" x2="690.4" y2="651.6" gradientUnits="userSpaceOnUse">
			<stop offset="0" stop-color="#2c50a2"/>
			<stop offset="1" stop-color="#9980ba"/>
		</linearGradient>
		<linearGradient id="g15" x1="707.1" y1="651.5" x2="695" y2="630.4" gradientUnits="userSpaceOnUse">
			<stop offset="0" stop-color="#2c50a2"/>
			<stop offset="1" stop-color="#9980ba"/>
		</linearGradient>
		<linearGradient id="g16" x1="771.9" y1="427.1" x2="857.2" y2="427.1" gradientUnits="userSpaceOnUse">
			<stop offset="0" stop-color="#2c50a2"/>
			<stop offset="1" stop-color="#9980ba"/>
		</linearGradient>
		<linearGradient id="g17" x1="771.9" y1="450.5" x2="877.3" y2="450.5" gradientUnits="userSpaceOnUse">
			<stop offset="0" stop-color="#2c50a2"/>
			<stop offset="1" stop-color="#9980ba"/>
		</linearGradient>
		<linearGradient id="g18" x1="771.9" y1="525.8" x2="857.2" y2="525.8" gradientUnits="userSpaceOnUse">
			<stop offset="0" stop-color="#2c50a2"/>
			<stop offset="1" stop-color="#9980ba"/>
		</linearGradient>
		<linearGradient id="g19" x1="771.9" y1="549.2" x2="877.3" y2="549.2" gradientUnits="userSpaceOnUse">
			<stop offset="0" stop-color="#2c50a2"/>
			<stop offset="1" stop-color="#9980ba"/>
		</linearGradient>
		<linearGradient id="g20" x1="771.9" y1="627.7" x2="857.2" y2="627.7" gradientUnits="userSpaceOnUse">
			<stop offset="0" stop-color="#2c50a2"/>
			<stop offset="1" stop-color="#9980ba"/>
		</linearGradient>
		<linearGradient id="g21" x1="771.9" y1="651.2" x2="877.3" y2="651.2" gradientUnits="userSpaceOnUse">
			<stop offset="0" stop-color="#2c50a2"/>
			<stop offset="1" stop-color="#9980ba"/>
		</linearGradient>
		<linearGradient id="g22" x1="160" y1="448.8" x2="322" y2="448.8" gradientUnits="userSpaceOnUse">
			<stop offset="0" stop-color="#6051a2"/>
			<stop offset="1" stop-color="#9d92c6"/>
		</linearGradient>
		<linearGradient id="g23" x1="338.1" y1="357.8" x2="547.1" y2="357.8" gradientUnits="userSpaceOnUse">
			<stop offset="0" stop-color="#4fc6d4"/>
			<stop offset="1" stop-color="#8ad3da"/>
		</linearGradient>
		<linearGradient id="g24" x1="861" y1="809" x2="976.7" y2="809" gradientUnits="userSpaceOnUse">
			<stop offset="0" stop-color="#3154a4"/>
			<stop offset="1" stop-color="#5664ae"/>
		</linearGradient>
		<linearGradient id="g25" x1="927.2" y1="778" x2="977.5" y2="778" gradientUnits="userSpaceOnUse">
			<stop offset="0" stop-color="#3154a4"/>
			<stop offset="1" stop-color="#5664ae"/>
		</linearGradient>
		<linearGradient id="g26" x1="800.9" y1="766" x2="977.5" y2="766" gradientUnits="userSpaceOnUse">
			<stop offset="0" stop-color="#f7bdd4"/>
			<stop offset="1" stop-color="#e92494"/>
		</linearGradient>
		<linearGradient id="g27" x1="818.8" y1="777.1" x2="911.6" y2="777.1" gradientUnits="userSpaceOnUse">
			<stop offset="0" stop-color="#3154a4"/>
			<stop offset="1" stop-color="#5664ae"/>
		</linearGradient>
		<linearGradient id="g28" x1="715.6" y1="225.4" x2="625.7" y2="315.3" gradientUnits="userSpaceOnUse">
			<stop offset="0" stop-color="#9d92c6"/>
			<stop offset="1" stop-color="#6051a2"/>
		</linearGradient>
		<linearGradient id="g29" x1="1096.2" y1="326.7" x2="1236" y2="326.7" gradientUnits="userSpaceOnUse">
			<stop offset="0" stop-color="#4fc6d4"/>
			<stop offset="1" stop-color="#8ad3da"/>
		</linearGradient>
		<linearGradient id="g30" x1="297.8" y1="318.4" x2="358" y2="318.4" gradientUnits="userSpaceOnUse">
			<stop offset="0" stop-color="#2c50a2"/>
			<stop offset="1" stop-color="#9980ba"/>
		</linearGradient>
		<linearGradient id="g31" x1="316.6" y1="337.1" x2="358.6" y2="337.1" gradientUnits="userSpaceOnUse">
			<stop offset="0" stop-color="#2c50a2"/>
			<stop offset="1" stop-color="#9980ba"/>
		</linearGradient>
		<linearGradient id="g32" x1="306.2" y1="617.9" x2="510.7" y2="478.7" gradientUnits="userSpaceOnUse">
			<stop offset="0" stop-color="#c1bdde"/>
			<stop offset=".7" stop-color="#eaeaf5"/>
		</linearGradient>
		<linearGradient id="g33" x1="800.7" y1="1065.6" x2="742.9" y2="1130.7" gradientUnits="userSpaceOnUse">
			<stop offset="0" stop-color="#b3a8d2"/>
			<stop offset="1" stop-color="#c1bdde"/>
		</linearGradient>
		<linearGradient id="g34" x1="477.7" y1="878.5" x2="583" y2="878.5" gradientUnits="userSpaceOnUse">
			<stop offset="0" stop-color="#9d92c6"/>
			<stop offset="1" stop-color="#6051a2"/>
		</linearGradient>
		<linearGradient id="g35" x1="418.2" y1="695.9" x2="511.4" y2="695.9" gradientUnits="userSpaceOnUse">
			<stop offset="0" stop-color="#5664ae"/>
			<stop offset="1" stop-color="#3154a4"/>
		</linearGradient>
		<linearGradient id="g36" x1="510.3" y1="695.5" x2="587.2" y2="695.5" gradientUnits="userSpaceOnUse">
			<stop offset="0" stop-color="#877dba"/>
			<stop offset="1" stop-color="#fefefe"/>
		</linearGradient>
		<linearGradient id="g37" x1="484.7" y1="690.2" x2="599" y2="690.2" gradientUnits="userSpaceOnUse">
			<stop offset="0" stop-color="#5664ae"/>
			<stop offset="1" stop-color="#3154a4"/>
		</linearGradient>
		<linearGradient id="g38" x1="619.7" y1="732.6" x2="619.7" y2="655.7" gradientUnits="userSpaceOnUse">
			<stop offset="0" stop-color="#877dba"/>
			<stop offset="1" stop-color="#fefefe"/>
		</linearGradient>
		<linearGradient id="g39" x1="581.9" y1="722.3" x2="657.4" y2="722.3" gradientUnits="userSpaceOnUse">
			<stop offset="0" stop-color="#5664ae"/>
			<stop offset="1" stop-color="#3154a4"/>
		</linearGradient>
		<linearGradient id="g40" x1="553.5" y1="749.1" x2="489" y2="711.9" gradientUnits="userSpaceOnUse">
			<stop offset="0" stop-color="#877dba"/>
			<stop offset="1" stop-color="#fefefe"/>
		</linearGradient>
		<linearGradient id="g41" x1="519.8" y1="628.1" x2="585.7" y2="628.1" gradientUnits="userSpaceOnUse">
			<stop offset="0" stop-color="#180c3d"/>
			<stop offset="1" stop-color="#293e9a"/>
		</linearGradient>
		<linearGradient id="g42" x1="540.9" y1="1073.7" x2="594.4" y2="1073.7" gradientUnits="userSpaceOnUse">
			<stop offset="0" stop-color="#2c50a2"/>
			<stop offset="1" stop-color="#9980ba"/>
		</linearGradient>
		<linearGradient id="g43" x1="563.4" y1="1334" x2="84.4" y2="855" gradientUnits="userSpaceOnUse">
			<stop offset="0" stop-color="#e92494"/>
			<stop offset="1" stop-color="#f7bdd4"/>
		</linearGradient>
		<linearGradient id="g44" x1="565.9" y1="578.4" x2="557.6" y2="570.2" gradientUnits="userSpaceOnUse">
			<stop offset="0" stop-color="#475ba9"/>
			<stop offset="1" stop-color="#5664ae"/>
		</linearGradient>
		<linearGradient id="g45" x1="524.3" y1="600.2" x2="517.9" y2="593.7" gradientUnits="userSpaceOnUse">
			<stop offset="0" stop-color="#475ba9"/>
			<stop offset="1" stop-color="#5664ae"/>
		</linearGradient>
		<linearGradient id="g46" x1="565.9" y1="624" x2="535.6" y2="593.8" gradientUnits="userSpaceOnUse">
			<stop offset="0" stop-color="#877dba"/>
			<stop offset="1" stop-color="#c1bdde"/>
		</linearGradient>
		<linearGradient id="g47" x1="609.3" y1="961.6" x2="609.3" y2="1041.9" gradientUnits="userSpaceOnUse">
			<stop offset="0" stop-color="#e7eef8"/>
			<stop offset="1" stop-color="#ebf3fa"/>
		</linearGradient>
		<linearGradient id="g48" x1="545.7" y1="979.3" x2="587.6" y2="979.3" gradientUnits="userSpaceOnUse">
			<stop offset="0" stop-color="#f7bdd4"/>
			<stop offset="1" stop-color="#e92494"/>
		</linearGradient>
		<linearGradient id="g49" x1="634.8" y1="983.9" x2="678.3" y2="983.9" gradientUnits="userSpaceOnUse">
			<stop offset="0" stop-color="#e7eef8"/>
			<stop offset="1" stop-color="#ebf3fa"/>
		</linearGradient>
		<linearGradient id="g50" x1="634.8" y1="983.9" x2="678.3" y2="983.9" gradientUnits="userSpaceOnUse">
			<stop offset="0" stop-color="#e92494"/>
			<stop offset="1" stop-color="#f7bdd4"/>
		</linearGradient>
		<linearGradient id="g51" x1="463.9" y1="1035.6" x2="447.2" y2="1006.7" gradientUnits="userSpaceOnUse">
			<stop offset="0" stop-color="#f7bdd4"/>
			<stop offset="1" stop-color="#e92494"/>
		</linearGradient>
		<linearGradient id="g52" x1="465" y1="996.4" x2="460.2" y2="988.1" gradientUnits="userSpaceOnUse">
			<stop offset="0" stop-color="#f7bdd4"/>
			<stop offset="1" stop-color="#e92494"/>
		</linearGradient>
		<linearGradient id="g53" x1="465" y1="991.5" x2="459.1" y2="981.3" gradientUnits="userSpaceOnUse">
			<stop offset="0" stop-color="#f7bdd4"/>
			<stop offset="1" stop-color="#e92494"/>
		</linearGradient>
		<linearGradient id="g54" x1="465.1" y1="1012.4" x2="457.6" y2="999.3" gradientUnits="userSpaceOnUse">
			<stop offset="0" stop-color="#f7bdd4"/>
			<stop offset="1" stop-color="#e92494"/>
		</linearGradient>
		<linearGradient id="g55" x1="465" y1="1001.2" x2="460.2" y2="992.9" gradientUnits="userSpaceOnUse">
			<stop offset="0" stop-color="#f7bdd4"/>
			<stop offset="1" stop-color="#e92494"/>
		</linearGradient>
		<linearGradient id="g56" x1="797" y1="896.1" x2="855.1" y2="896.1" gradientUnits="userSpaceOnUse">
			<stop offset="0" stop-color="#877dba"/>
			<stop offset="1" stop-color="#fefefe"/>
		</linearGradient>
		<linearGradient id="g57" x1="773.3" y1="889" x2="857.3" y2="889" gradientUnits="userSpaceOnUse">
			<stop offset="0" stop-color="#4f3494"/>
			<stop offset="1" stop-color="#3c2267"/>
		</linearGradient>
		<linearGradient id="g58" x1="1099.5" y1="1076.3" x2="883.3" y2="951.5" gradientUnits="userSpaceOnUse">
			<stop offset="0" stop-color="#2c50a2"/>
			<stop offset="1" stop-color="#9980ba"/>
		</linearGradient>
		<linearGradient id="g59" x1="905" y1="1322.5" x2="808.8" y2="1155.9" gradientUnits="userSpaceOnUse">
			<stop offset="0" stop-color="#5664ae"/>
			<stop offset="1" stop-color="#3154a4"/>
		</linearGradient>
		<linearGradient id="g60" x1="789.5" y1="1057" x2="1093.1" y2="1057" gradientUnits="userSpaceOnUse">
			<stop offset="0" stop-color="#5664ae"/>
			<stop offset="1" stop-color="#3154a4"/>
		</linearGradient>
		<linearGradient id="g61" x1="802.9" y1="914.5" x2="966.7" y2="914.5" gradientUnits="userSpaceOnUse">
			<stop offset="0" stop-color="#877dba"/>
			<stop offset="1" stop-color="#fefefe"/>
		</linearGradient>
		<linearGradient id="g62" x1="813.9" y1="954.5" x2="890.9" y2="1087.8" gradientUnits="userSpaceOnUse">
			<stop offset="0" stop-color="#9d92c6"/>
			<stop offset="1" stop-color="#6051a2"/>
		</linearGradient>
		<linearGradient id="g63" x1="695.6" y1="1025.7" x2="1175.6" y2="878.4" gradientUnits="userSpaceOnUse">
			<stop offset="0" stop-color="#877dba"/>
			<stop offset="1" stop-color="#fefefe"/>
		</linearGradient>
		<linearGradient id="g64" x1="1066.6" y1="1240.3" x2="1005.9" y2="1135.2" gradientUnits="userSpaceOnUse">
			<stop offset="0" stop-color="#2c50a2"/>
			<stop offset="1" stop-color="#9980ba"/>
		</linearGradient>
		<linearGradient id="g65" x1="980.4" y1="1104.7" x2="1099.2" y2="1104.7" gradientUnits="userSpaceOnUse">
			<stop offset="0" stop-color="#9d92c6"/>
			<stop offset="1" stop-color="#6051a2"/>
		</linearGradient>
		<linearGradient id="g66" x1="1309.4" y1="937.6" x2="1214.7" y2="1101.8" gradientUnits="userSpaceOnUse">
			<stop offset="0" stop-color="#4fc6d4"/>
			<stop offset="1" stop-color="#8ad3da"/>
		</linearGradient>
		<linearGradient id="g67" x1="1188.1" y1="1100.7" x2="1057.9" y2="970.6" gradientUnits="userSpaceOnUse">
			<stop offset="0" stop-color="#4fc6d4"/>
			<stop offset="1" stop-color="#8ad3da"/>
		</linearGradient>
		<linearGradient id="g68" x1="1184.6" y1="895.3" x2="1263.7" y2="895.3" gradientUnits="userSpaceOnUse">
			<stop offset="0" stop-color="#4fc6d4"/>
			<stop offset="1" stop-color="#8ad3da"/>
		</linearGradient>
		<linearGradient id="g69" x1="1199.3" y1="1015.5" x2="1310.8" y2="1127" gradientUnits="userSpaceOnUse">
			<stop offset="0" stop-color="#e92494"/>
			<stop offset="1" stop-color="#f7bdd4"/>
		</linearGradient>
		<linearGradient id="g70" x1="318.4" y1="682.5" x2="375.8" y2="682.5" gradientUnits="userSpaceOnUse">
			<stop offset="0" stop-color="#877dba"/>
			<stop offset="1" stop-color="#fefefe"/>
		</linearGradient>
		<linearGradient id="g71" x1="298.6" y1="672.1" x2="383.2" y2="672.1" gradientUnits="userSpaceOnUse">
			<stop offset="0" stop-color="#180c3d"/>
			<stop offset="1" stop-color="#293e9a"/>
		</linearGradient>
		<linearGradient id="g72" x1="234.4" y1="665.5" x2="311.3" y2="665.5" gradientUnits="userSpaceOnUse">
			<stop offset="0" stop-color="#180c3d"/>
			<stop offset="1" stop-color="#293e9a"/>
		</linearGradient>
		<linearGradient id="g73" x1="296.3" y1="897.8" x2="373.1" y2="897.8" gradientUnits="userSpaceOnUse">
			<stop offset="0" stop-color="#877dba"/>
			<stop offset="1" stop-color="#fefefe"/>
		</linearGradient>
		<linearGradient id="g74" x1="273.3" y1="1007.4" x2="341.1" y2="1007.4" gradientUnits="userSpaceOnUse">
			<stop offset="0" stop-color="#877dba"/>
			<stop offset="1" stop-color="#fefefe"/>
		</linearGradient>
		<linearGradient id="g75" x1="335" y1="915.6" x2="359.6" y2="915.6" gradientUnits="userSpaceOnUse">
			<stop offset="0" stop-color="#f7bdd4"/>
			<stop offset="1" stop-color="#e92494"/>
		</linearGradient>
		<linearGradient id="g76" x1="281.3" y1="884.3" x2="353.3" y2="884.3" gradientUnits="userSpaceOnUse">
			<stop offset="0" stop-color="#f7bdd4"/>
			<stop offset="1" stop-color="#e92494"/>
		</linearGradient>
		<linearGradient id="g77" x1="308" y1="1193.7" x2="379.9" y2="1193.7" gradientUnits="userSpaceOnUse">
			<stop offset="0" stop-color="#f7bdd4"/>
			<stop offset="1" stop-color="#e92494"/>
		</linearGradient>
		<linearGradient id="g78" x1="337.6" y1="1173.7" x2="374.4" y2="1173.7" gradientUnits="userSpaceOnUse">
			<stop offset="0" stop-color="#f7bdd4"/>
			<stop offset="1" stop-color="#e92494"/>
		</linearGradient>
		<linearGradient id="g79" x1="266.2" y1="1193.7" x2="333" y2="1193.7" gradientUnits="userSpaceOnUse">
			<stop offset="0" stop-color="#f7bdd4"/>
			<stop offset="1" stop-color="#e92494"/>
		</linearGradient>
		<linearGradient id="g80" x1="290.7" y1="1173.7" x2="327.6" y2="1173.7" gradientUnits="userSpaceOnUse">
			<stop offset="0" stop-color="#f7bdd4"/>
			<stop offset="1" stop-color="#e92494"/>
		</linearGradient>
		<linearGradient id="g81" x1="280.5" y1="762.4" x2="381.1" y2="762.4" gradientUnits="userSpaceOnUse">
			<stop offset="0" stop-color="#2c50a2"/>
			<stop offset="1" stop-color="#9980ba"/>
		</linearGradient>
		<linearGradient id="g82" x1="267.3" y1="852.6" x2="328" y2="852.6" gradientUnits="userSpaceOnUse">
			<stop offset="0" stop-color="#877dba"/>
			<stop offset="1" stop-color="#fefefe"/>
		</linearGradient>
		<linearGradient id="g83" x1="262.7" y1="786.1" x2="337" y2="786.1" gradientUnits="userSpaceOnUse">
			<stop offset="0" stop-color="#4fc6d4"/>
			<stop offset="1" stop-color="#8ad3da"/>
		</linearGradient>
		<linearGradient id="g84" x1="306.3" y1="897.8" x2="334.7" y2="897.8" gradientUnits="userSpaceOnUse">
			<stop offset="0" stop-color="#f7bdd4"/>
			<stop offset="1" stop-color="#e92494"/>
		</linearGradient>
	</defs>
	<style>
		.s0 { fill: #6d6e71 } 
		.s1 { fill: url(#g1) } 
		.s2 { fill: url(#g2) } 
		.s3 { fill: url(#g3) } 
		.s4 { fill: #ffffff } 
		.s5 { fill: url(#g4) } 
		.s6 { fill: url(#g5) } 
		.s7 { fill: url(#g6) } 
		.s8 { fill: url(#g7) } 
		.s9 { fill: url(#g8) } 
		.s10 { fill: url(#g9) } 
		.s11 { fill: url(#g10) } 
		.s12 { fill: url(#g11) } 
		.s13 { fill: url(#g12) } 
		.s14 { fill: url(#g13) } 
		.s15 { fill: url(#g14) } 
		.s16 { fill: url(#g15) } 
		.s17 { fill: url(#g16) } 
		.s18 { fill: url(#g17) } 
		.s19 { fill: url(#g18) } 
		.s20 { fill: url(#g19) } 
		.s21 { fill: url(#g20) } 
		.s22 { fill: url(#g21) } 
		.s23 { fill: url(#g22) } 
		.s24 { fill: url(#g23) } 
		.s25 { fill: url(#g24) } 
		.s26 { fill: url(#g25) } 
		.s27 { fill: url(#g26) } 
		.s28 { fill: url(#g27) } 
		.s29 { fill: url(#g28) } 
		.s30 { fill: url(#g29) } 
		.s31 { fill: url(#g30) } 
		.s32 { fill: url(#g31) } 
		.s33 { fill: url(#g32) } 
		.s34 { fill: url(#g33) } 
		.s35 { fill: url(#g34) } 
		.s36 { fill: url(#g35) } 
		.s37 { fill: url(#g36) } 
		.s38 { fill: url(#g37) } 
		.s39 { fill: url(#g38) } 
		.s40 { fill: url(#g39) } 
		.s41 { fill: url(#g40) } 
		.s42 { fill: url(#g41) } 
		.s43 { fill: url(#g42) } 
		.s44 { fill: url(#g43) } 
		.s45 { fill: url(#g44) } 
		.s46 { fill: url(#g45) } 
		.s47 { fill: url(#g46) } 
		.s48 { fill: url(#g47) } 
		.s49 { fill: url(#g48) } 
		.s50 { fill: url(#g49) } 
		.s51 { fill: url(#g50) } 
		.s52 { fill: url(#g51) } 
		.s53 { fill: url(#g52) } 
		.s54 { fill: url(#g53) } 
		.s55 { fill: url(#g54) } 
		.s56 { fill: url(#g55) } 
		.s57 { fill: url(#g56) } 
		.s58 { fill: url(#g57) } 
		.s59 { fill: url(#g58) } 
		.s60 { fill: url(#g59) } 
		.s61 { fill: url(#g60) } 
		.s62 { fill: url(#g61) } 
		.s63 { fill: url(#g62) } 
		.s64 { fill: url(#g63) } 
		.s65 { fill: url(#g64) } 
		.s66 { fill: url(#g65) } 
		.s67 { fill: url(#g66) } 
		.s68 { fill: url(#g67) } 
		.s69 { fill: url(#g68) } 
		.s70 { fill: url(#g69) } 
		.s71 { fill: url(#g70) } 
		.s72 { fill: url(#g71) } 
		.s73 { fill: url(#g72) } 
		.s74 { fill: url(#g73) } 
		.s75 { fill: url(#g74) } 
		.s76 { fill: url(#g75) } 
		.s77 { fill: url(#g76) } 
		.s78 { fill: url(#g77) } 
		.s79 { fill: url(#g78) } 
		.s80 { fill: url(#g79) } 
		.s81 { fill: url(#g80) } 
		.s82 { fill: url(#g81) } 
		.s83 { fill: url(#g82) } 
		.s84 { fill: url(#g83) } 
		.s85 { fill: url(#g84) } 
	</style>
	<g id="Layer 1">
		<g id="&lt;Group&gt;">
			<g id="&lt;Group&gt;">
				<path id="&lt;Compound Path&gt;" class="s0" d="m-75.2 678q1 0 1.8 0.2l-0.3 2q-0.9-0.2-1.6-0.2-1.8 0-3 1.4-1.3 1.5-1.3 3.6v7.8h-2.2v-14.5h1.8l0.3 2.7h0.1q0.8-1.5 1.9-2.2 1.2-0.8 2.5-0.8z"/>
			</g>
		</g>
		<g id="&lt;Group&gt;">
			<path id="&lt;Path&gt;" class="s1" d="m819.6 242.7c25.1 85.2-92 123.7-58.5 195.6 33.4 71.9 509.9-81.9 575.1-11.7 65.2 70.2-331 354.5-344.4 404.6-13.4 50.2 299.3-23.4 359.5 43.5 60.2 66.9-456.5 183.9-541.7 247.4-85.3 63.6-93.7 192.3-202.3 152.2-108.7-40.1-215.7-239.1-364.5-264.2-148.8-25.1-296-182.2 68.5-309.3 364.5-127.1 148.8-290.9 118.7-371.2-30.1-80.2 91.9-242.4 204-242.4 118.7 0 160.5 70.2 185.6 155.5z"/>
			<path id="&lt;Path&gt;" class="s2" d="m1025.2 376.4h-384.5v-42.2c0-15.5 12.5-28 28-28h328.6c15.4 0 27.9 12.5 27.9 28z"/>
			<path id="&lt;Path&gt;" class="s3" d="m640.7 376.4h384.5v315.4c0 11.4-9.2 20.7-20.6 20.7h-343.2c-11.5 0-20.7-9.3-20.7-20.7z"/>
			<path id="&lt;Path&gt;" class="s4" d="m1000.2 340.5c0 6-4.9 10.9-10.9 10.9-6 0-10.9-4.9-10.9-10.9 0-6 4.9-10.9 10.9-10.9 6 0 10.9 4.9 10.9 10.9z"/>
			<path id="&lt;Path&gt;" class="s4" d="m963.4 340.5c0 6-4.9 10.9-10.9 10.9-6 0-10.8-4.9-10.8-10.9 0-6 4.8-10.9 10.8-10.9 6 0 10.9 4.9 10.9 10.9z"/>
			<path id="&lt;Path&gt;" class="s4" d="m929.9 340.5c0 6-4.8 10.9-10.8 10.9-6 0-10.9-4.9-10.9-10.9 0-6 4.9-10.9 10.9-10.9 6 0 10.8 4.9 10.8 10.9z"/>
			<path id="&lt;Path&gt;" class="s4" d="m751 442.5c0 19.8-16.1 35.9-35.9 35.9-19.9 0-36-16.1-36-35.9 0-19.9 16.1-36 36-36 19.8 0 35.9 16.1 35.9 36z"/>
			<path id="&lt;Path&gt;" class="s5" d="m945.8 458.4h-47.6v-33.5h47.6z"/>
			<path id="&lt;Path&gt;" class="s4" d="m945.8 424.9l-23.8 16.7-23.8-16.7z"/>
			<path id="&lt;Path&gt;" class="s6" d="m989.7 434.2l-1.5-1.6c-1.1-1.3-1.7-3-1.6-4.7 0-1.8 0.8-3.4 2.1-4.5l2.4-2.2c1.2-1.1 2.8-1.7 4.4-1.7 1.8 0 3.6 0.8 4.8 2.2l1.4 1.5q0.3 0.3 0.6 0.7v0.1c1.4 1.1 2.5 3.9 1.9 7.3-3.1 15.9-16.5 28-32.6 29.5-2.1 0.2-4.1-0.3-5.6-1.2q-0.9-0.5-1.6-1.3l-1.4-1.6c-2.5-2.6-2.3-6.8 0.4-9.2l2.4-2.1c1.2-1.1 2.8-1.7 4.4-1.7 1.8 0 3.6 0.7 4.8 2.1l1.5 1.6q0.9 1 1.3 2.3l0.1 0.4 0.4-0.2c6.3-2.5 11.5-7.2 14.6-13.3l0.2-0.4-0.5-0.2c-1.1-0.3-2.1-1-2.9-1.8z"/>
			<path id="&lt;Path&gt;" class="s4" d="m980.1 491.8h-294.3c-0.9 0-1.6-0.7-1.6-1.7 0-0.9 0.7-1.6 1.6-1.6h294.3c0.9 0 1.7 0.7 1.7 1.6 0 1-0.8 1.7-1.7 1.7z"/>
			<path id="&lt;Path&gt;" class="s4" d="m751 542.8c0 19.9-16.1 35.9-35.9 35.9-19.9 0-36-16-36-35.9 0-19.9 16.1-35.9 36-35.9 19.8 0 35.9 16 35.9 35.9z"/>
			<path id="&lt;Path&gt;" class="s7" d="m945.8 558.7h-47.6v-33.5h47.6z"/>
			<path id="&lt;Path&gt;" class="s4" d="m945.8 525.2l-23.8 16.8-23.8-16.8z"/>
			<path id="&lt;Path&gt;" class="s8" d="m989.7 534.5l-1.5-1.6c-1.1-1.3-1.7-3-1.6-4.7 0-1.7 0.8-3.3 2.1-4.5l2.4-2.2c1.2-1.1 2.8-1.7 4.4-1.7 1.8 0 3.6 0.8 4.8 2.2l1.4 1.5q0.3 0.4 0.6 0.7v0.1c1.4 1.1 2.5 3.9 1.9 7.3-3.1 15.9-16.5 28-32.6 29.5-2.1 0.2-4.1-0.3-5.6-1.2q-0.9-0.5-1.6-1.3l-1.4-1.5c-2.5-2.7-2.3-6.8 0.4-9.3l2.4-2.1c1.2-1.1 2.8-1.7 4.4-1.7 1.8 0 3.6 0.8 4.8 2.1l1.5 1.6q0.9 1 1.3 2.3l0.1 0.4 0.4-0.2c6.3-2.5 11.5-7.2 14.6-13.3l0.2-0.4-0.5-0.1c-1.1-0.4-2.1-1-2.9-1.9z"/>
			<path id="&lt;Path&gt;" class="s4" d="m980.1 592.1h-294.3c-0.9 0-1.6-0.7-1.6-1.6 0-1 0.7-1.7 1.6-1.7h294.3c0.9 0 1.7 0.7 1.7 1.7 0 0.9-0.8 1.6-1.7 1.6z"/>
			<path id="&lt;Path&gt;" class="s4" d="m751 643.1c0 19.9-16.1 36-35.9 36-19.9 0-36-16.1-36-36 0-19.8 16.1-35.9 36-35.9 19.8 0 35.9 16.1 35.9 35.9z"/>
			<path id="&lt;Path&gt;" class="s9" d="m945.8 659h-47.6v-33.4h47.6z"/>
			<path id="&lt;Path&gt;" class="s4" d="m945.8 625.6l-23.8 16.7-23.8-16.7z"/>
			<path id="&lt;Path&gt;" class="s10" d="m989.7 634.8l-1.5-1.6c-1.1-1.3-1.7-2.9-1.6-4.7 0-1.7 0.8-3.3 2.1-4.5l2.4-2.2c1.2-1.1 2.8-1.7 4.4-1.7 1.8 0 3.6 0.8 4.8 2.2l1.4 1.6q0.3 0.3 0.6 0.6v0.1c1.4 1.1 2.5 3.9 1.9 7.4-3.1 15.9-16.5 28-32.6 29.4-2.1 0.2-4.1-0.2-5.6-1.2q-0.9-0.5-1.6-1.2l-1.4-1.6c-2.5-2.7-2.3-6.8 0.4-9.2l2.4-2.2c1.2-1.1 2.8-1.7 4.4-1.7 1.8 0 3.6 0.8 4.8 2.2l1.5 1.5q0.9 1 1.3 2.3l0.1 0.4 0.4-0.1c6.3-2.6 11.5-7.3 14.6-13.4l0.2-0.4-0.5-0.1c-1.1-0.4-2.1-1-2.9-1.9z"/>
			<path id="&lt;Path&gt;" class="s4" d="m980.1 692.4h-294.3c-0.9 0-1.6-0.7-1.6-1.6 0-1 0.7-1.7 1.6-1.7h294.3c0.9 0 1.7 0.7 1.7 1.7 0 0.9-0.8 1.6-1.7 1.6z"/>
			<g id="&lt;Group&gt;">
				<path id="&lt;Path&gt;" class="s11" d="m730.7 458.7v0.5h-32.3v-0.4c0-0.5-0.1-12 7.4-18.5l0.1-0.1q0.4 0.3 0.8 0.7l5.6 11 1-6.1-1.5-2.5q1.4 0.4 3 0.4 0.4 0 0.8 0 0.7-0.1 1.5-0.2 0.2-0.1 0.5-0.1l-1.5 2.4 1 6 5.1-10.4q0.4-0.3 0.7-0.6 0.2-0.1 0.4-0.3 0.1-0.1 0.3-0.2c1.3 0.8 6.6 5.2 7.1 18.4z"/>
				<path id="&lt;Path&gt;" class="s12" d="m726.9 430.7c0 6.7-5.4 12.1-12.1 12.1-6.7 0-12.1-5.4-12.1-12.1 0-6.7 5.4-12.2 12.1-12.2 6.7 0 12.1 5.5 12.1 12.2z"/>
			</g>
			<g id="&lt;Group&gt;">
				<path id="&lt;Path&gt;" class="s13" d="m730.7 560.8v0.4h-32.3v-0.4c0-0.5-0.1-11.9 7.4-18.5l0.1-0.1q0.4 0.4 0.8 0.7l5.6 11.1 1-6.2-1.5-2.4q1.4 0.3 3 0.3 0.4 0 0.8 0 0.7 0 1.5-0.2 0.2 0 0.5-0.1l-1.5 2.4 1 6.1 5.1-10.5q0.4-0.3 0.7-0.5 0.2-0.2 0.4-0.3 0.1-0.2 0.3-0.3c1.3 0.9 6.6 5.2 7.1 18.5z"/>
				<path id="&lt;Path&gt;" class="s14" d="m726.9 532.7c0 6.7-5.4 12.1-12.1 12.1-6.7 0-12.1-5.4-12.1-12.1 0-6.7 5.4-12.2 12.1-12.2 6.7 0 12.1 5.5 12.1 12.2z"/>
			</g>
			<g id="&lt;Group&gt;">
				<path id="&lt;Path&gt;" class="s15" d="m730.7 661.1v0.4h-32.3v-0.4c0-0.5-0.1-11.9 7.4-18.5h0.1q0.4 0.3 0.8 0.6l5.6 11.1 1-6.1-1.5-2.5q1.4 0.3 3 0.3 0.4 0 0.8 0 0.7 0 1.5-0.2 0.2 0 0.5-0.1l-1.5 2.5 1 6 5.1-10.5q0.4-0.2 0.7-0.5 0.2-0.2 0.4-0.3 0.1-0.1 0.3-0.3c1.3 0.9 6.6 5.3 7.1 18.5z"/>
				<path id="&lt;Path&gt;" class="s16" d="m726.9 633c0 6.7-5.4 12.2-12.1 12.2-6.7 0-12.1-5.5-12.1-12.2 0-6.7 5.4-12.1 12.1-12.1 6.7 0 12.1 5.4 12.1 12.1z"/>
			</g>
			<g id="&lt;Group&gt;">
				<path id="&lt;Path&gt;" class="s17" d="m856.4 430.8h-83.6c-0.5 0-0.9-0.4-0.9-0.9 0-0.4 0.4-0.8 0.9-0.8h83.6c0.4 0 0.8 0.4 0.8 0.8 0 0.5-0.4 0.9-0.8 0.9z"/>
			</g>
			<g id="&lt;Group&gt;">
				<path id="&lt;Path&gt;" class="s18" d="m876.2 454.2h-103.2c-0.6 0-1.1-0.4-1.1-0.9 0-0.4 0.5-0.8 1.1-0.8h103.2c0.6 0 1.1 0.4 1.1 0.8 0 0.5-0.5 0.9-1.1 0.9z"/>
			</g>
			<g id="&lt;Group&gt;">
				<path id="&lt;Path&gt;" class="s19" d="m856.4 529.4h-83.6c-0.5 0-0.9-0.4-0.9-0.8 0-0.5 0.4-0.8 0.9-0.8h83.6c0.4 0 0.8 0.3 0.8 0.8 0 0.4-0.4 0.8-0.8 0.8z"/>
			</g>
			<g id="&lt;Group&gt;">
				<path id="&lt;Path&gt;" class="s20" d="m876.2 552.8h-103.2c-0.6 0-1.1-0.3-1.1-0.8 0-0.5 0.5-0.8 1.1-0.8h103.2c0.6 0 1.1 0.3 1.1 0.8 0 0.5-0.5 0.8-1.1 0.8z"/>
			</g>
			<g id="&lt;Group&gt;">
				<path id="&lt;Path&gt;" class="s21" d="m856.4 631.4h-83.6c-0.5 0-0.9-0.4-0.9-0.8 0-0.5 0.4-0.9 0.9-0.9h83.6c0.4 0 0.8 0.4 0.8 0.9 0 0.4-0.4 0.8-0.8 0.8z"/>
			</g>
			<g id="&lt;Group&gt;">
				<path id="&lt;Path&gt;" class="s22" d="m876.2 654.8h-103.2c-0.6 0-1.1-0.4-1.1-0.8 0-0.5 0.5-0.8 1.1-0.8h103.2c0.6 0 1.1 0.3 1.1 0.8 0 0.4-0.5 0.8-1.1 0.8z"/>
			</g>
			<path id="&lt;Path&gt;" class="s23" d="m298.8 569.4v15c0 11.2-9.1 20.3-20.3 20.3h-98.3c-11.1 0-20.2-9.1-20.2-20.3v-113.3c0-11.2 9.1-20.3 20.2-20.3h98.3c11.2 0 20.3 9.1 20.3 20.3v82.8c7 6 18.5 14.8 30.1 19 16.6 6-17.3 1.2-30.1-3.5z"/>
			<path id="&lt;Path&gt;" class="s24" d="m547.1 378.2v21.5c0 10.3-8.3 18.5-18.5 18.5h-130.2c2.5 10.5 8.3 25 21.6 30.1 0 0-15.1 1.7-28.4-15-2.9-3.6-5.6-9.6-7.7-15.1h-27.3c-10.3 0-18.5-8.2-18.5-18.5v-21.5c0-10.2 8.2-18.5 18.5-18.5h172c10.2 0 18.5 8.3 18.5 18.5z"/>
			<path id="&lt;Path&gt;" class="s25" d="m919.4 814.2l5.5-3.2 51.8 30.5c-1.3 2.8-4.1 4.8-7.4 4.8h-101.3c-3 0-5.6-1.7-7-4.1l52.9-31.2z"/>
			<path id="&lt;Path&gt;" class="s26" d="m977.4 839.2l-50.2-29.6 50.3-29.6v58.1c0 0.4-0.1 0.8-0.1 1.1z"/>
			<path id="&lt;Path&gt;" class="s27" d="m977.5 776.3v0.9q0 0.1-0.1 0.1l-57.9 34.2q-0.1 0-0.2 0l-58.6-34.6q-0.1 0-0.1 0h-56.1c-2.6 0-4.7-2.5-4-5.2 0.5-1.9 2.3-3.2 4.3-3.2h58.7c0.9 0 1.8 0 2.7-0.2q0.9-0.3 1.8-0.3h101.2c4.6 0 8.3 3.8 8.3 8.3z"/>
			<path id="&lt;Path&gt;" class="s28" d="m911.6 809.6l-51.5 30.4q-0.2-0.9-0.2-1.9v-27.8h-21.9c-2.3 0-4.2-1.9-4.2-4.2 0-2.3 1.9-4.1 4.2-4.1h21.9v-8.4h-37c-2.3 0-4.1-1.9-4.1-4.2 0-2.3 1.8-4.2 4.1-4.2h37v-6.1z"/>
			<path id="&lt;Compound Path&gt;" fill-rule="evenodd" class="s29" d="m664.4 174.2c2 2 3 4.5 3 7.3v85c0 2.7-1 5.3-3 7.2q-1 1.1-2.3 1.8-1.8 1-3.9 1.2-0.5 0-1 0h-65.9c-5.6 0-10.2-4.6-10.2-10.2v-6.1h-3.9c-1 0-1.9-0.9-1.9-1.9v-9.4c0-1 0.9-1.9 1.9-1.9h3.9v-7h-3.9c-1 0-1.9-0.9-1.9-1.9v-9.4c0-1.1 0.9-1.9 1.9-1.9h3.9v-7.1h-3.9c-1 0-1.9-0.8-1.9-1.8v-9.4c0-1.1 0.9-1.9 1.9-1.9h3.9v-7.1h-3.9c-1 0-1.9-0.8-1.9-1.8v-9.4c0-1.1 0.9-1.9 1.9-1.9h3.9v-5.1c0-5.7 4.6-10.3 10.2-10.3h65.9q0.5 0 1 0.1 2.1 0.2 3.9 1.2 1.3 0.7 2.3 1.7zm-7 26.3l-0.1-25.5h-18.2l0.1 25.4 7.5-7.5c0.4-0.4 1-0.7 1.6-0.7 0.7 0 1.2 0.3 1.6 0.7z"/>
			<path id="&lt;Path&gt;" class="s30" d="m1236 377.5c0 25.9-28.9 47.1-65.3 48.7l-42.2 27.4 11.5-30.8c-25.7-7.2-43.8-24.8-43.8-45.3 0-27 31.3-48.8 69.9-48.8 38.6 0 69.9 21.8 69.9 48.8z"/>
			<g id="&lt;Group&gt;">
				<path id="&lt;Path&gt;" class="s4" d="m1200 358h-73.6c-0.5 0-0.8-0.3-0.8-0.8 0-0.5 0.3-0.8 0.8-0.8h73.6c0.4 0 0.8 0.3 0.8 0.8 0 0.5-0.4 0.8-0.8 0.8z"/>
			</g>
			<g id="&lt;Group&gt;">
				<path id="&lt;Path&gt;" class="s4" d="m1184.3 370.6h-58.1c-0.3 0-0.6-0.4-0.6-0.9 0-0.4 0.3-0.8 0.6-0.8h58.1c0.3 0 0.6 0.4 0.6 0.8 0 0.5-0.3 0.9-0.6 0.9z"/>
			</g>
			<g id="&lt;Group&gt;">
				<path id="&lt;Path&gt;" class="s4" d="m1215.7 394h-89.1c-0.6 0-1-0.4-1-0.8 0-0.5 0.4-0.9 1-0.9h89.1c0.5 0 1 0.4 1 0.9 0 0.4-0.5 0.8-1 0.8z"/>
			</g>
			<g id="&lt;Group&gt;">
				<path id="&lt;Path&gt;" class="s4" d="m1215.7 382.3h-89.1c-0.6 0-1-0.4-1-0.8 0-0.5 0.4-0.9 1-0.9h89.1c0.5 0 1 0.4 1 0.9 0 0.4-0.5 0.8-1 0.8z"/>
			</g>
			<g id="&lt;Group&gt;">
				<path id="&lt;Path&gt;" class="s4" d="m475.6 373.1h-119.5c-0.7 0-1.3-0.4-1.3-0.8 0-0.5 0.6-0.9 1.3-0.9h119.5c0.8 0 1.4 0.4 1.4 0.9 0 0.4-0.6 0.8-1.4 0.8z"/>
			</g>
			<g id="&lt;Group&gt;">
				<path id="&lt;Path&gt;" class="s4" d="m450.1 385.6h-94.2c-0.6 0-1.1-0.3-1.1-0.8 0-0.5 0.5-0.8 1.1-0.8h94.2c0.6 0 1.1 0.3 1.1 0.8 0 0.5-0.5 0.8-1.1 0.8z"/>
			</g>
			<g id="&lt;Group&gt;">
				<path id="&lt;Path&gt;" class="s4" d="m501.1 409h-144.7c-0.9 0-1.6-0.3-1.6-0.8 0-0.5 0.7-0.8 1.6-0.8h144.7c0.9 0 1.7 0.3 1.7 0.8 0 0.5-0.8 0.8-1.7 0.8z"/>
			</g>
			<g id="&lt;Group&gt;">
				<path id="&lt;Path&gt;" class="s4" d="m501.1 397.3h-144.7c-0.9 0-1.6-0.3-1.6-0.8 0-0.5 0.7-0.8 1.6-0.8h144.7c0.9 0 1.7 0.3 1.7 0.8 0 0.5-0.8 0.8-1.7 0.8z"/>
			</g>
			<g id="&lt;Group&gt;">
				<path id="&lt;Path&gt;" class="s4" d="m257.6 490.1h-70.9c-0.4 0-0.8-0.3-0.8-0.8 0-0.5 0.4-0.8 0.8-0.8h70.9c0.4 0 0.8 0.3 0.8 0.8 0 0.5-0.4 0.8-0.8 0.8z"/>
			</g>
			<g id="&lt;Group&gt;">
				<path id="&lt;Path&gt;" class="s4" d="m242.5 502.7h-56c-0.3 0-0.6-0.4-0.6-0.9 0-0.4 0.3-0.8 0.6-0.8h56c0.3 0 0.6 0.4 0.6 0.8 0 0.5-0.3 0.9-0.6 0.9z"/>
			</g>
			<g id="&lt;Group&gt;">
				<path id="&lt;Path&gt;" class="s4" d="m272.7 526.1h-85.8c-0.6 0-1-0.4-1-0.9 0-0.4 0.4-0.8 1-0.8h85.8c0.6 0 1 0.4 1 0.8 0 0.5-0.4 0.9-1 0.9z"/>
			</g>
			<g id="&lt;Group&gt;">
				<path id="&lt;Path&gt;" class="s4" d="m272.7 514.4h-85.8c-0.6 0-1-0.4-1-0.9 0-0.4 0.4-0.8 1-0.8h85.8c0.6 0 1 0.4 1 0.8 0 0.5-0.4 0.9-1 0.9z"/>
			</g>
			<g id="&lt;Group&gt;">
				<path id="&lt;Path&gt;" class="s4" d="m257.6 538.6h-70.9c-0.4 0-0.8-0.4-0.8-0.8 0-0.5 0.4-0.9 0.8-0.9h70.9c0.4 0 0.8 0.4 0.8 0.9 0 0.4-0.4 0.8-0.8 0.8z"/>
			</g>
			<g id="&lt;Group&gt;">
				<path id="&lt;Path&gt;" class="s4" d="m242.5 551.2h-56c-0.3 0-0.6-0.4-0.6-0.9 0-0.4 0.3-0.8 0.6-0.8h56c0.3 0 0.6 0.4 0.6 0.8 0 0.5-0.3 0.9-0.6 0.9z"/>
			</g>
			<g id="&lt;Group&gt;">
				<path id="&lt;Path&gt;" class="s4" d="m272.7 574.6h-85.8c-0.6 0-1-0.4-1-0.9 0-0.4 0.4-0.8 1-0.8h85.8c0.6 0 1 0.4 1 0.8 0 0.5-0.4 0.9-1 0.9z"/>
			</g>
			<g id="&lt;Group&gt;">
				<path id="&lt;Path&gt;" class="s4" d="m272.7 562.9h-85.8c-0.6 0-1-0.4-1-0.9 0-0.4 0.4-0.8 1-0.8h85.8c0.6 0 1 0.4 1 0.8 0 0.5-0.4 0.9-1 0.9z"/>
			</g>
			<path id="&lt;Path&gt;" class="s31" d="m358 324.2c0 2.1-1.7 3.8-3.9 3.8-26.8 0-48.6 21.9-48.6 48.7 0 2.1-1.7 3.8-3.8 3.8-2.2 0-3.9-1.7-3.9-3.8 0-31.1 25.3-56.3 56.3-56.3 2.2 0 3.9 1.7 3.9 3.8z"/>
			<path id="&lt;Path&gt;" class="s32" d="m358.6 342.9c0 2.1-1.7 3.9-3.8 3.9-16.9 0-30.6 13.7-30.6 30.5 0 2.1-1.7 3.8-3.8 3.8-2.1 0-3.8-1.7-3.8-3.8 0-21.1 17.1-38.2 38.2-38.2 2.1 0 3.8 1.7 3.8 3.8z"/>
			<path id="&lt;Path&gt;" class="s33" d="m740.2 581.3v538.3c0 11.1-9.1 20.1-20.1 20.1h-316c-11 0-20.1-9-20.1-20.1v-538.3c0-11.1 9.1-20.1 20.1-20.1h316c11 0 20.1 9 20.1 20.1z"/>
			<path id="&lt;Path&gt;" class="s34" d="m740.2 948.3v171.3c0 11.1-9.1 20.1-20.1 20.1h-316c-11 0-20.1-9-20.1-20.1v-372.8c43.2 43.9 100.2 90.9 153.9 100.3 95.6 16.7 176.4 34.9 202.3 101.2z"/>
			<path id="&lt;Path&gt;" class="s35" d="m583 883.9v183.9l-41.8 1.7-13.6-95.3c-0.4-2.5-4.1-2.4-4.3 0.2l-5.5 106.8-40.1-5 13.3-195.7z"/>
			<path id="&lt;Path&gt;" class="s36" d="m511.9 735.9c-6.6 11.7-30 35.1-40.1 46.8-10 11.7-21.7 15.1-28.4 15.1-6.7 0-25.2 0.3-25.2 0.3v-30c0 0 18.5-0.4 30.2-2.1 11.7-1.7 38.5-53.5 41.8-58.5 3.4-5 11.7-8.4 11.7-8.4 11.7-8.3 16.7 25.1 10 36.8z"/>
			<path id="&lt;Path&gt;" class="s37" d="m515.3 697.5c0 0 23.4 1.6 40.1 10 16.7 8.4 31.8 20.1 31.8 20.1l-23.4 36.7h-45.2l-8.3-41.8z"/>
			<path id="&lt;Path&gt;" class="s38" d="m528.7 724.2c0.6 15.9-7.4 32.4 0 35.1 1 0.4 18.4-11.4 26.7-26.7 5.2-9.4 2.7-25.4 3.4-25.1 16.7 6.7 38.4 21.7 43.4 28.4 5.1 6.7-15 95.3-16.7 105.3-1.7 10.1 6.7 61.9 1.7 75.3-5 13.4-51.8 16.7-56.9 15-5-1.6-15.4-48.2-15.4-48.2 0 0 3.7 51.6-4.6 48.2-8.4-3.3-25.1-15-26.8-18.4-1.6-3.3 6.7-107 6.7-125.4 0-18.3-3.3-73.5 6.3-85.8 9.5-12.2 22.1-9.5 22.1-9.5 0 0 9.4 15.6 10.1 31.8z"/>
			<path id="&lt;Path&gt;" class="s39" d="m632.4 729.9c0-8 0-20.1-6.7-26.8-6.7-6.7-4.1-22.8-1.4-28.1 2.7-5.4 5.4-2.7 5.4 0 0 2.7-1.4 8-1.4 9.4 0 1.3 2.7 2.6 2.7 2.6 0 0 4-24.1 5.4-30.8 1.3-6.7 9.4-2.6 10.7 1.4 1.3 4 6.7 40.2 5.3 45.5-1.3 5.4-2.6 29.5-2.6 29.5h-16.1z"/>
			<path id="&lt;Path&gt;" class="s40" d="m657.4 730.9c0 0-1.7 36.8-3.3 63.5-1.7 26.8-6.7 43.5-16.8 43.5-10 0-16.7-6.7-26.7-20.1-10-13.3-25.1-23.4-28.4-31.7-3.4-8.4-3.4-66.9 12.2-57.5 15.6 9.5 24.6 37.4 24.6 37.4l5-41.8z"/>
			<path id="&lt;Path&gt;" class="s41" d="m583.8 654c3.4 5-1.6 28.4-1.6 28.4 5-5 6.7 8.4 3.3 13.4-3.3 5-8.3 1.7-13.4 11.7-5 10-23.4 23.4-33.4 25.1-10 1.6-18.4-6.7-20.1-20.1-1.6-13.4 3.4-61.9 3.4-61.9 21.7-30.1 58.5-1.6 61.8 3.4z"/>
			<path id="&lt;Path&gt;" class="s42" d="m582.2 682.4l-10.1 18.4c0 0 6.7-26.7 3.4-31.8-3.4-5-5-13.3-13.4-11.7-8.4 1.7-16.7 10.1-26.7 5-10.1-5-18.4-11.7-16.8-16.7 1.7-5 15.1-18.4 28.5-15 13.3 3.3 30.1 8.3 35.1 13.4 5 5 5 13.3 5 13.3 0 0 5.6 13.2-2.2 24.2z"/>
			<path id="&lt;Compound Path&gt;" fill-rule="evenodd" class="s43" d="m586.6 1083.5c4.8 4.8 7.8 11.5 7.8 18.9 0 7.4-3 14.1-7.8 18.9-4.9 4.8-11.5 7.8-18.9 7.8-7.4 0-14.1-3-18.9-7.8-4.9-4.8-7.9-11.5-7.9-18.9 0-7.4 3-14.1 7.9-18.9 4.8-4.8 11.5-7.8 18.9-7.8 7.4 0 14 3 18.9 7.8zm2 19.3c0-11.6-9.4-21-20.9-21-11.6 0-21 9.4-21 21 0 11.6 9.4 20.9 21 20.9 11.5 0 20.9-9.3 20.9-20.9z"/>
			<path id="&lt;Compound Path&gt;" fill-rule="evenodd" class="s44" d="m768.9 590.3v520.9c0 23.1-18.8 41.9-41.9 41.9h-318.6c-23.1 0-41.9-18.8-41.9-41.9v-520.9c0-23.2 18.8-41.9 41.9-41.9h318.6c23.1 0 41.9 18.7 41.9 41.9zm-207.1-22c0 3.3 2.6 5.9 5.9 5.9 3.2 0 5.8-2.6 5.8-5.9 0-3.2-2.6-5.8-5.8-5.8-3.3 0-5.9 2.6-5.9 5.8zm-21.9 23.7c0 3.2 2.6 5.8 5.8 5.8h43.9c3.3 0 5.9-2.6 5.9-5.8 0-3.2-2.6-5.8-5.9-5.8h-43.9c-3.2 0-5.8 2.6-5.8 5.8zm-18.4 0c0 2.5 2.1 4.5 4.6 4.5 2.5 0 4.5-2 4.5-4.5 0-2.5-2-4.6-4.5-4.6-2.5 0-4.6 2.1-4.6 4.6zm75.5 510.4c0-16.2-13.1-29.3-29.3-29.3-16.2 0-29.4 13.1-29.4 29.3 0 16.2 13.2 29.3 29.4 29.3 16.2 0 29.3-13.1 29.3-29.3zm120.1-485.6h-298.9v442.7h298.9z"/>
			<path id="&lt;Path&gt;" class="s45" d="m573.5 568.3c0 3.3-2.6 5.9-5.8 5.9-3.3 0-5.9-2.6-5.9-5.9 0-3.2 2.6-5.8 5.9-5.8 3.2 0 5.8 2.6 5.8 5.8z"/>
			<path id="&lt;Path&gt;" class="s46" d="m530.6 592c0 2.5-2 4.5-4.5 4.5-2.5 0-4.6-2-4.6-4.5 0-2.5 2.1-4.6 4.6-4.6 2.5 0 4.5 2.1 4.5 4.6z"/>
			<path id="&lt;Path&gt;" class="s47" d="m595.5 592c0 3.2-2.6 5.8-5.9 5.8h-43.9c-3.2 0-5.8-2.6-5.8-5.8 0-3.2 2.6-5.8 5.8-5.8h43.9c3.3 0 5.9 2.6 5.9 5.8z"/>
			<path id="&lt;Path&gt;" class="s48" d="m607.3 1001.8c0 22.1-18 40.1-40.2 40.1-22.1 0-40.1-18-40.1-40.1 0-22.2 18-40.2 40.1-40.2 22.2 0 40.2 18 40.2 40.2z"/>
			<path id="&lt;Path&gt;" class="s49" d="m573.3 995.9l-1.4-1.5c-1.2-1.3-1.7-3-1.7-4.7 0.1-1.8 0.9-3.4 2.2-4.5l2.4-2.2c1.2-1.1 2.7-1.7 4.4-1.7 1.8 0 3.6 0.8 4.8 2.1l1.4 1.6q0.3 0.3 0.5 0.7h0.1c1.4 1.2 2.5 4 1.8 7.4-3 15.9-16.4 28-32.5 29.5-2.2 0.2-4.1-0.3-5.7-1.2q-0.9-0.5-1.5-1.3l-1.5-1.6c-2.4-2.6-2.2-6.8 0.5-9.2l2.4-2.2c1.2-1 2.7-1.7 4.4-1.7 1.8 0 3.6 0.8 4.8 2.2l1.4 1.6q1 1 1.4 2.3l0.1 0.3 0.4-0.1c6.3-2.5 11.5-7.2 14.5-13.3l0.2-0.4-0.4-0.2c-1.1-0.3-2.2-1-3-1.9z"/>
			<path id="&lt;Path&gt;" class="s50" d="m678.3 1014.3h-43.5v-28.4h43.5z"/>
			<path id="&lt;Path&gt;" class="s51" d="m678.3 985.9l-21.7 14.2-21.8-14.2z"/>
			<g id="&lt;Group&gt;">
				<path id="&lt;Path&gt;" class="s52" d="m483.5 1001.6q0 0.7-0.1 1.3l-0.5-0.1 0.5 0.1c-0.6 6-5.3 10.8-11.3 11.6v8.2h6c1.2 0 2.2 1 2.2 2.2 0 1.2-1 2.2-2.2 2.2h-7.6-7.6c-1.2 0-2.2-1-2.2-2.2 0-1.2 1-2.2 2.2-2.2h6v-8.2c-6.4-0.8-11.4-6.3-11.4-12.9 0-0.9 0.8-1.6 1.6-1.6 0.9 0 1.7 0.7 1.7 1.6 0 2.7 1.1 5.1 2.8 6.9 1.8 1.8 4.2 2.8 6.9 2.8 2.7 0 5.1-1 6.9-2.8 1.7-1.8 2.8-4.2 2.8-6.9 0-0.9 0.7-1.6 1.6-1.6 0.9 0 1.7 0.7 1.7 1.6z"/>
				<g id="&lt;Group&gt;">
					<path id="&lt;Path&gt;" class="s53" d="m463 986.5h15v2.4h-15z"/>
					<path id="&lt;Path&gt;" class="s54" d="m478 983.3v0.8h-15v-0.8c0-4.1 3.4-7.5 7.5-7.5 4.1 0 7.5 3.4 7.5 7.5z"/>
					<path id="&lt;Path&gt;" class="s55" d="m463 996.2h15v4.5c0 4.1-3.4 7.4-7.5 7.4-4.1 0-7.5-3.3-7.5-7.4z"/>
					<path id="&lt;Path&gt;" class="s56" d="m463 991.3h15v2.5h-15z"/>
				</g>
			</g>
			<path id="&lt;Path&gt;" class="s57" d="m828 898.1c0 0 18.3 0 23.4 18.4 5 18.4 10 46.8 3.3 48.5-6.7 1.6-23.4-5-26.7 0-3.4 5-6.7 18.4-6.7 18.4l-35.1-3.4c0 0 15-25.1 13.3-35.1-1.6-10-26.7-45.1 28.5-46.8z"/>
			<path id="&lt;Path&gt;" class="s58" d="m831.3 891.4c0 0 16.7-3.3 23.4 6.7 6.7 10 8.7 24.4-1.5 25.6-10.2 1.1-10.2-7.2-10.2-7.2 0 0 1.7 25.1-5 30.1-6.7 5 8.3 16.7 1.7 21.7-6.7 5-28.5-1.7-30.1-8.3-1.7-6.7-6 3.3-15.5 5-9.6 1.6-19.6 0-21.3-13.4-1.7-13.4 0-48.5 10-53.5 10-5 48.5-6.7 48.5-6.7z"/>
			<path id="&lt;Path&gt;" class="s59" d="m1144.4 674.2l-20.8-8.1c-17.2-6.8-30.6-19.8-38-36.6-7.4-16.9-7.7-35.6-1-52.7l12.5-31.8c6.2-15.9 18.1-28.9 33.4-36.5 17.4-8.6 37.8-9.5 55.9-2.4l20.8 8.1q4 1.6 8 3.8l0.9 0.4c18.1 4.5 42 25.5 51.8 60.9 45.8 164.5-23.8 341.7-169.3 431.1-19.1 11.7-39.9 17-58.5 15.3q-11.1-0.7-21.1-4.7l-20.8-8.1c-35.4-13.9-52.8-54-39-89.3l12.5-31.8c6.3-15.9 18.1-28.9 33.4-36.5 17.4-8.6 37.8-9.5 55.9-2.4l20.8 8.2c8.9 3.4 16.8 8.6 23.5 15.3l3 3 2.8-3.1c48.1-53.4 74.6-122.4 74.7-194.3v-4.8l-4.7 0.8c-12.4 2.1-25.1 0.8-36.7-3.8z"/>
			<path id="&lt;Path&gt;" class="s60" d="m826.3 1148.9l58.5-38.5 15.1 13.4 78.2-59.7c11.2-8.5 27.2-6.2 35.5 5.2l70.2 96.3 45.3 22.7c4.6 2.3 2.9 9.1-2.1 9.1h-67.5c-5.9 0-10.5-5-10.2-10.9l1-15.9-57.8-53.5c-4.7-4.4-12.2-3.6-16 1.6-16.8 23.1-61 78.7-96.7 78.7-45.2 0-53.5-48.5-53.5-48.5z"/>
			<path id="&lt;Path&gt;" class="s61" d="m789.5 1148.9l58.5-38.5 15.1 13.4 78.2-59.7c11.2-8.5 27.2-6.2 35.5 5.2l70.2 96.3 45.3 22.7c4.6 2.3 3 9.1-2.1 9.1h-67.5c-5.8 0-10.5-5-10.1-10.9l0.9-15.9-57.8-53.5c-4.7-4.4-12.2-3.6-16 1.6-16.8 23.1-60.9 78.7-96.7 78.7-45.1 0-53.5-48.5-53.5-48.5z"/>
			<path id="&lt;Path&gt;" class="s62" d="m802.9 990.1c0 0 70.2-5.1 86.9-13.4 16.7-8.4 56.9-36.8 56.9-36.8l8.3-15.1 11.7-8.3-1.1 7.4c0 0-8.9 7.6-10.6 12.7-1.6 5 0 28.4 0 21.7 0-6.7-41.8 35.1-61.8 41.8-20.1 6.7-87 21.7-87 21.7z"/>
			<path id="&lt;Path&gt;" class="s63" d="m784.5 973.3c0 0 41.8 0 41.8 3.4 0 3.3 0 20 6.7 30.1 6.7 10 33.4 48.5 28.4 56.8-5 8.4-15.1 18.4-18.4 21.8-3.3 3.3 11.7 16.7 5 25l-58.5 38.5c0 0-30.1-60.2-28.4-95.3 1.6-35.1 23.4-63.5 23.4-68.6 0-5 0-11.7 0-11.7z"/>
			<path id="&lt;Path&gt;" class="s64" d="m794.5 1011.8c0 0 0-15.1 15.1-13.4 15 1.7 53.5 40.1 70.2 38.5 16.7-1.7 68.5-26.8 75.2-33.5 6.7-6.7 6.7-21.7 11.7-28.4 5-6.7 8.4-10 8.4-10l5 3.3-6.7 11.7v8.4l18.4 3.3 25.1-5 3.3 5-5 10.1-20.7 9.5c0 0-21.1-1.2-26.1 2.2-5 3.3-75.2 55.1-90.3 55.1-15 0-56.8-28.4-56.8-28.4 0 0 0 10-8.4 11.7-8.4 1.7-26.7-13.4-18.4-40.1z"/>
			<path id="&lt;Path&gt;" class="s65" d="m1017.7 1148.1c0 0-15-11.7 0-23.4 15.1-11.8 26.8-21.8 31.8-16.8 5 5 35.1 51.9 35.1 51.9l49.7 25.6c1.4 0.7 2.4 1.9 3 3.4l1 2.6c1.5 4.1-1.5 8.5-5.9 8.5h-81.3c-3.6 0-6.4-3.1-6.2-6.7l1.3-21.7z"/>
			<path id="&lt;Path&gt;" class="s66" d="m979.3 1148.1c0 0-15.1-11.7 0-23.4 15-11.8 26.7-21.8 31.7-16.8 5.1 5 35.2 51.9 35.2 51.9l49.6 25.6c1.4 0.7 2.5 1.9 3 3.4l1 2.6c1.6 4.1-1.5 8.5-5.9 8.5h-81.2c-3.6 0-6.5-3.1-6.3-6.7l1.3-21.7z"/>
			<path id="&lt;Path&gt;" class="s67" d="m1209.2 1103.8c0 0-41.8-58.6-45.2-75.3-3.3-16.7 21.8-63.5 10.1-86.9-11.7-23.4 6.6-73.6 25-80.3 18.4-6.7 3.4 21.7 0 38.5-3.3 16.7 5.1 53.5 15.1 65.2 10 11.7 6.7 132.1 6.7 132.1z"/>
			<path id="&lt;Path&gt;" class="s68" d="m1170.7 1082c-28.4-20-23.4-71.9-26.2-85.6-2.7-13.8-30.6-33.1-35.7-53.2-5-20 31.8-68.5 40.2-58.5 8.3 10.1-15.1 48.5 10 68.6 25.1 20 23.4 51.8 23.4 75.2 0 23.4 31.8 53.5 31.8 53.5 0 0-15.1 20.1-43.5 0z"/>
			<path id="&lt;Path&gt;" class="s69" d="m1184.6 1087.3c0 0 29.6-39 29.6-52.4 0-13.5-6.7-16.2-5.4-21.5 1.4-5.4 12.1-2.7 17.5-14.8 5.4-12.1-5.4-33.7 0-60.5 5.4-26.9 29.6-47.1 41.7-39 12.1 8-10.8 30.9-13.4 43-2.7 12.1 14.7 22.8 13.4 39-1.3 16.1-13.4 34.9-28.2 57.8-14.8 22.9-13.5 40.3-13.5 40.3z"/>
			<g id="&lt;Group&gt;">
				<path id="&lt;Path&gt;" class="s4" d="m1184.9 1083.7q-0.2 0-0.4-0.2c-14.9-9.9-23.3-68.5-26.8-93.5l-0.4-2.3c-2.1-14.8-10.9-24.7-17.9-32.8-4-4.5-7.5-8.5-8.8-12.2-3.4-10.2 9.5-44.3 10.1-45.7 0.1-0.5 0.6-0.7 1.1-0.5 0.4 0.1 0.6 0.6 0.4 1.1-0.1 0.3-13.2 34.9-10 44.5 1.2 3.5 4.5 7.3 8.4 11.7 7.2 8.2 16.2 18.4 18.4 33.6l0.3 2.3c3.6 24.8 11.8 82.9 26.1 92.5 0.4 0.2 0.5 0.7 0.2 1.1-0.1 0.3-0.4 0.4-0.7 0.4z"/>
			</g>
			<g id="&lt;Group&gt;">
				<path id="&lt;Path&gt;" class="s4" d="m1201 1085.6l-0.2-2.7c-0.1-1.2-9.3-118-16.7-141.4-7.5-23.8 6.9-63.7 7.6-65.4 0.1-0.5 0.6-0.7 1-0.5 0.5 0.1 0.7 0.6 0.5 1-0.1 0.5-14.8 41.2-7.5 64.4 7 21.9 15.1 121.1 16.6 139.1 5.1-8.7 23.1-39.5 24.4-45.1 0.5-1.6 0.6-3.4 0.7-5.2 0.3-5.7 0.6-12.2 9.7-18.7 12.1-8.6 5.4-47.6 3-59.3-3.4-16.9 14.5-39.9 15.2-40.8 0.3-0.4 0.8-0.5 1.2-0.2 0.4 0.3 0.4 0.8 0.1 1.2-0.1 0.2-18.1 23.3-14.8 39.4 3 15.4 8.8 52.1-3.7 61.1-8.4 6-8.8 11.8-9.1 17.4-0.1 1.9-0.2 3.7-0.6 5.5-1.7 6.7-25 46.2-26 47.9z"/>
			</g>
			<path id="&lt;Path&gt;" class="s70" d="m1232.2 1198.2h-71.2c-9.8 0-17.9-8-17.9-17.9v-101.3c0-9.8 8.1-17.9 17.9-17.9h71.2c9.9 0 17.9 8.1 17.9 17.9v101.3c0 9.9-8 17.9-17.9 17.9z"/>
			<path id="&lt;Path&gt;" class="s71" d="m358.2 684.9c0 0 23.3 2.5 20 34.3-3.4 31.8-6.7 41.8-23.4 36.8l-10 28.4-26.8-11.7c0 0 13.4-23.4 8.4-31.8-5.1-8.3-16.9-26-10.1-43.1 6.7-17.1 41.9-12.9 41.9-12.9z"/>
			<path id="&lt;Path&gt;" class="s72" d="m356.5 674.1c0 0 21.7 0 26.7 15 0 0-5 25.1-20.1 23.4-15-1.7-1.6 25.1-11.7 33.4-10 8.4-31.7 11.7-40.1 6.7 0 0 11.7-5 5-15-6.7-10-23.4-25.1-20-35.1 3.3-10.1 10-28.4 35.1-28.4 25.1 0 25.1 0 25.1 0z"/>
			<path id="&lt;Path&gt;" class="s73" d="m264.5 772.7c-26.8 8.4-30.1-21.7-30.1-21.7 13.4 13.3 31.8-11.7 33.4-40.2 1.7-28.4 16.8-43.4 28.5-43.4 11.7 0 15 16.7 15 16.7 0 0-20.1 80.2-46.8 88.6z"/>
			<path id="&lt;Path&gt;" class="s74" d="m371.1 1195.7h-56.4l-18.4-295.9 53.5 17.8c-12.5 34.9-30.6 92-16.8 90.8 10.4-0.8 19.9 1.9 26.6 4.7 0.5 21.5 0.7 41.3 0.2 52.3-1.7 33.3-18.4 108.6-18.4 108.6l31.1 15.5c3.1 1.6 2 6.2-1.4 6.2z"/>
			<path id="&lt;Path&gt;" class="s75" d="m325.6 1195.7h-52.7c0 0-5.1-16.7 0-30.1 5-13.4 3.3-68.5 6.6-85.3 3.4-16.7 11.7-21.7 13.4-33.4 0.7-4.9-0.6-19.4-2.9-35.5 11.1-2.5 33-5.1 51.1 7.6-12.3 48.6-30.4 114-33.1 124.9-3.4 13.4-6.7 30.1-6.7 30.1l25.9 16c2.7 1.6 1.5 5.7-1.6 5.7z"/>
			<path id="&lt;Path&gt;" class="s76" d="m359.6 1013.1c-6.7-2.8-16.2-5.5-26.6-4.7-13.8 1.2 4.3-55.9 16.8-90.8l6.7 2.2c0 0 2.2 50.1 3.1 93.3z"/>
			<path id="&lt;Path&gt;" class="s77" d="m351.4 975c-1.8 9.7-5.6 25.6-10.3 44-18.1-12.7-40-10.1-51.1-7.6-3-22-7.6-47-10.5-54.8-5-13.4 3.4-53.5 13.4-66.9 10.1-13.3 61.9 15.1 61.9 15.1 0 0 3.3 35.1-3.4 70.2z"/>
			<path id="&lt;Path&gt;" class="s78" d="m378.2 1199.1h-68.6c-0.9 0-1.6-0.8-1.6-1.7 0-0.9 0.7-1.7 1.6-1.7h68.6c0.9 0 1.7 0.8 1.7 1.7 0 0.9-0.8 1.7-1.7 1.7z"/>
			<path id="&lt;Path&gt;" class="s79" d="m378.2 1195.7h-40.6c0 0 12-20.5 18.9-20.1 26.7 1.7 21.7 20.1 21.7 20.1z"/>
			<path id="&lt;Path&gt;" class="s80" d="m331.4 1199.1h-63.6c-0.9 0-1.6-0.8-1.6-1.7 0-0.9 0.7-1.7 1.6-1.7h63.6c0.9 0 1.6 0.8 1.6 1.7 0 0.9-0.7 1.7-1.6 1.7z"/>
			<path id="&lt;Path&gt;" class="s81" d="m290.7 1195.7c0 0 12.1-20.5 18.9-20.1 26.8 1.7 21.8 20.1 21.8 20.1z"/>
			<path id="&lt;Path&gt;" class="s82" d="m319.7 764.3c0 0 25.1 6.7 30.1 15.1 5 8.3 31.7 46.8 31.7 61.8 0 15.1-15 54.2-15 64.8 0 10.5 15.5 59.8-12.3 50.2-27.8-9.6-57.8-33.1-73.8-32.2-15.9 0.8-2.5-24.2 0.8-30.9 3.4-6.7 25.1-127.1 38.5-128.8z"/>
			<path id="&lt;Path&gt;" class="s83" d="m284.6 854.6l43.4 53.5-15 16.7-51.8-50.1c-13.4-18.4 23.4-20.1 23.4-20.1z"/>
			<path id="&lt;Path&gt;" class="s84" d="m328 842.9c-10 0-26.7 33.5-35.1 22-8.4-11.4-34.7 0-34.7 0-7.9-6.4 24.7-42 39.7-62.1 15.1-20.1 33.7-16.9 40.2-8.4 15 20.1 0 48.5-10.1 48.5z"/>
			<path id="&lt;Path&gt;" class="s85" d="m334.7 903.1l-23.4 28.4-5-5 25.1-26.7z"/>
		</g>
	</g>
</svg>