<svg xmlns="http://www.w3.org/2000/svg" viewBox="0 0 361 361"><defs><style>.cls-1{fill:#fff;}.cls-2{fill:#020202;stroke:#020202;stroke-width:2px;}.cls-3{fill:#a2a9aa;}.cls-4{fill:#1c7dec;}</style></defs><title>Asset 9</title><g id="Layer_2" data-name="Layer 2"><g id="Layer_1-2" data-name="Layer 1"><rect id="Rectangle_416" data-name="Rectangle 416" class="cls-1" width="361" height="361" rx="69"/><path id="Path_75" data-name="Path 75" class="cls-2" d="M163.5,194.17v-3.76h-20c.53-.77,1.06-1.65,1.6-2.53l18.44-31.3V153H139.29v3.77h18.83c-.46.77-1,1.53-1.6,2.53L138,190.58v3.59Zm27,0V171.29c0-6.54-4.18-8.65-10.94-8.65a20.64,20.64,0,0,0-10.85,3.12l2.35,3.06a15.34,15.34,0,0,1,8.12-2.53c4.18,0,6.15,1.71,6.15,5.41v4.35a17,17,0,0,0-7.13-1.41c-6.76,0-11.84,3.11-11.84,10.06s4.32,10.12,10,10.12a13.93,13.93,0,0,0,9-3.24v2.59Zm-5.17-6.06a11.74,11.74,0,0,1-8.05,3.18c-3.8,0-5.76-2.65-5.76-6.77s2.05-6.35,6.6-6.35a16,16,0,0,1,7.2,1.35ZM204,154.51a3.3,3.3,0,0,0-3.49-2.94c-2.05,0-3.71,1.36-3.71,2.94s1.67,3,3.72,3a3.29,3.29,0,0,0,3.48-3ZM203,194.17V163.28h-5.16v30.89Zm31.66,0V173c0-6.88-3.64-10.36-10.4-10.36a12,12,0,0,0-8.58,3.24v-2.59H210.5v30.89h5.16v-24.3a9.75,9.75,0,0,1,7.29-3.59c4.48,0,6.45,2.12,6.45,7.18v20.71Zm30.6-15.65c0-9.88-4.33-15.89-12.45-15.89-7.82,0-12.91,5.89-12.91,16.13,0,11,5.77,16.06,12.68,16.06a16.55,16.55,0,0,0,11.62-4.59l-3.12-2.59c-2.73,2.47-5,3.47-8.2,3.47-4.93,0-7.51-4.35-7.9-11h20.2a10.39,10.39,0,0,0,.08-1.58Zm-5-2H245c.46-7,3.42-10.18,7.59-10.18,4.94,0,7.29,4.24,7.6,10.18Zm28.32-13.24a13.79,13.79,0,0,0-4.86-.64,10.32,10.32,0,0,0-7.67,3.3v-2.65h-5.16v30.89H276V170a8.35,8.35,0,0,1,6.3-3.47,10.65,10.65,0,0,1,4.78.94Zm26.12,28.07V163.28H309.5v2.36a12.41,12.41,0,0,0-8.2-3c-7.44,0-11.77,5.76-11.77,16.35,0,10.36,4,15.83,11.23,15.83a13.44,13.44,0,0,0,8.74-3.3v1.3c0,5.82-2.5,8.47-12.46,9.53l1.6,3.19c12.07-1.36,16-5.42,16-14.19Zm-5.17-3.24a11.54,11.54,0,0,1-7.52,3.07c-4.86,0-7.29-4-7.29-12.24,0-7.71,2-12.65,7-12.65a11.15,11.15,0,0,1,7.82,3.17Zm36.44-24.83h-5.47l-6.15,20.13c-.45,1.47-1.44,5.17-1.74,6.41-.23-1.24-1.37-5-1.83-6.41l-6.22-20.13h-5.47L330,194.53l-4.18,10.53H331Z"/><path id="Path_77" data-name="Path 77" class="cls-3" d="M148.55,216.52a6.05,6.05,0,0,1-3.63,1.08,5.75,5.75,0,1,1,4.2-9.88l.91-.93a6.84,6.84,0,0,0-5.16-2,7,7,0,0,0-7.32,6.62c0,.15,0,.29,0,.44a7,7,0,0,0,7.32,7.05,7.62,7.62,0,0,0,5.09-1.77v-5.28h-1.4Zm13.46-3a5.09,5.09,0,1,0-10.16,0,5.17,5.17,0,0,0,5.48,5.31,5.11,5.11,0,0,0,4-1.7l-.79-.91a4.09,4.09,0,0,1-3.19,1.37,3.87,3.87,0,0,1-4.11-3.63H162C162,213.85,162,213.69,162,213.57ZM157,209.49a3.61,3.61,0,0,1,3.71,3.47h-7.4a3.62,3.62,0,0,1,3.69-3.47Zm12,7.65a2.28,2.28,0,0,1-1.54.53,1.65,1.65,0,0,1-1.36-.51,1.63,1.63,0,0,1-.44-1.39v-6.22h3.17v-1.19h-3.17v-2.28h-1.41v2.28h-1.87v1.19h1.87v6.3a2.75,2.75,0,0,0,3.05,3,3.34,3.34,0,0,0,2.2-.73Zm12.79,1.76a6.75,6.75,0,0,0,5.09-2l-.93-.94a5.45,5.45,0,0,1-4.1,1.67,5.75,5.75,0,1,1,0-11.49,5.52,5.52,0,0,1,4.1,1.64l.93-.93a6.7,6.7,0,0,0-5.07-2,7.1,7.1,0,0,0-5.17,12.15A7,7,0,0,0,181.77,218.9Zm10.84,0a5.14,5.14,0,0,0,3.8-1.51,5.38,5.38,0,0,0-7.61-7.6,5.31,5.31,0,0,0,3.81,9.11Zm0-1.25a3.8,3.8,0,1,1,2.83-1.18,3.82,3.82,0,0,1-2.83,1.18Zm12.59-9.35a4.37,4.37,0,0,0-4,2v-1.93h-1.36v10.43h1.42v-5.47a3.41,3.41,0,0,1,3-3.75,2.41,2.41,0,0,1,.6,0c2,0,3.13,1.13,3.13,3.33v5.9h1.41v-6C209.48,209.74,207.74,208.28,205.2,208.28Zm12.53,0a4.38,4.38,0,0,0-4,2v-1.93h-1.35v10.43h1.41v-5.47a3.42,3.42,0,0,1,3.05-3.75,2.41,2.41,0,0,1,.6,0c2,0,3.13,1.13,3.13,3.33v5.9H222v-6c0-3-1.74-4.46-4.28-4.46Zm16.35,5.29a5.11,5.11,0,0,0-8.76-3.75,5.06,5.06,0,0,0-1.4,3.75,5.52,5.52,0,0,0,9.5,3.62l-.79-.92a4.09,4.09,0,0,1-3.19,1.37,3.87,3.87,0,0,1-4.11-3.63h8.72c0-.16,0-.32,0-.43ZM229,209.49a3.61,3.61,0,0,1,3.71,3.46h-7.39a3.62,3.62,0,0,1,3.69-3.46Zm11.37,9.4a4.6,4.6,0,0,0,4.08-2.07l-1.05-.71a3.54,3.54,0,0,1-3,1.53,3.88,3.88,0,0,1-2.88-1.16,4.07,4.07,0,0,1,2.88-7,3.53,3.53,0,0,1,3,1.55l1.05-.72a4.54,4.54,0,0,0-4.08-2.06,5.3,5.3,0,1,0,0,10.6Zm11.06-1.75a2.36,2.36,0,0,1-1.55.54,1.68,1.68,0,0,1-1.8-1.91v-6.22h3.17v-1.19H248.1v-2.28h-1.41v2.28h-1.86v1.19h1.86v6.3a2.8,2.8,0,0,0,.8,2.25,2.77,2.77,0,0,0,2.25.78,3.3,3.3,0,0,0,2.2-.73Zm10.88-3.57a5.08,5.08,0,1,0-10.15,0,5.51,5.51,0,0,0,9.49,3.62l-.79-.91a4.16,4.16,0,0,1-3.19,1.37,3.87,3.87,0,0,1-4.11-3.63h8.72c0-.16,0-.32,0-.44Zm-5.05-4.08A3.62,3.62,0,0,1,261,213h-7.39A3.62,3.62,0,0,1,257.28,209.49Zm15.14-5.41v6.26a4.56,4.56,0,0,0-4-2.06,5.41,5.41,0,0,0-3.76,9.08,5.11,5.11,0,0,0,3.76,1.53,4.51,4.51,0,0,0,4-2.17v2.06h1.36V204.07Zm-3.84,13.55a3.8,3.8,0,1,1,2.82-1.18,3.81,3.81,0,0,1-2.82,1.18Zm8.34-3H278l.3-9.71h-1.66Zm.56,4.26a1,1,0,0,0,1-1,1,1,0,0,0-.3-.73,1,1,0,0,0-.74-.28,1,1,0,0,0-.74.28,1.06,1.06,0,0,0-.31.73,1,1,0,0,0,1.05,1h0Z"/><circle id="Ellipse_11" data-name="Ellipse 11" class="cls-3" cx="46.2" cy="202.39" r="9.68"/><path id="Union_5" data-name="Union 5" class="cls-4" d="M24.68,169.76a9.5,9.5,0,0,1,3.86.8,14.19,14.19,0,0,0,9-8.22,9.69,9.69,0,1,1,4,4.07c-4.63,1.68-7,6.8-7.95,9.24a9.66,9.66,0,1,1-8.91-5.9Z"/><circle id="Ellipse_14" data-name="Ellipse 14" class="cls-3" cx="69.16" cy="224.63" r="9.68"/><circle id="Ellipse_15" data-name="Ellipse 15" class="cls-3" cx="69.16" cy="135.68" r="9.68"/><circle id="Ellipse_16" data-name="Ellipse 16" class="cls-3" cx="90.68" cy="157.92" r="9.68"/><path id="Union_8" data-name="Union 8" class="cls-4" d="M112.92,171.19a9.68,9.68,0,0,0-8.62,14.1,14.16,14.16,0,0,1-9,8.22,9.71,9.71,0,0,0-3-.76H90.59a9.32,9.32,0,0,0-3,.74c-2.43-.91-7.56-3.32-9.24-8a9.67,9.67,0,1,0-4.07,4,14.18,14.18,0,0,1,8.22,9c0,.11-.1.22-.14.33h0l0,0v0l0,0v.14h0l0,.05h0a9.54,9.54,0,0,0-.48,2.1h0v.06h0v.06h0v.06h0v.93a9.68,9.68,0,0,0,16.35,7h0l0,0,0,0,.07-.07h0l.07-.07,0,0,0,0h0a9.65,9.65,0,0,0,2.72-6.72v-.19a9.89,9.89,0,0,0-.77-3.6c.9-2.43,3.31-7.56,7.94-9.24a9.68,9.68,0,1,0,4.67-18.18Z"/></g></g></svg>