<?xml version="1.0" encoding="utf-8"?>
<!-- Generator: Adobe Illustrator 23.0.6, SVG Export Plug-In . SVG Version: 6.00 Build 0)  -->
<svg version="1.1" id="Layer_1" xmlns="http://www.w3.org/2000/svg" xmlns:xlink="http://www.w3.org/1999/xlink" x="0px" y="0px"
	 viewBox="0 0 62.9 62.8" style="enable-background:new 0 0 62.9 62.8;" xml:space="preserve">
<style type="text/css">
	.st0{stroke:#000000;stroke-miterlimit:10;}
</style>
<path id="Path_366" class="st0" d="M41.8,62.2c-0.5,0-1,0-1.4,0c-2.5-0.2-4.8-1.2-6.6-2.9c-0.4-0.3-0.7-0.7-1-1.1
	c-0.1-0.1-0.2-0.2-0.3-0.3l0,0c-0.3-0.4-0.6-0.7-1-0.7c-0.5,0-0.8,0.4-1.1,0.7c-1.3,1.6-2.9,2.9-4.9,3.7c-1.2,0.5-2.4,0.7-3.7,0.7
	c-0.4,0-0.9,0-1.4-0.1c-5.3-0.5-9.5-4.8-9.9-10.1c0-0.3,0-0.6,0-0.9v-0.1c0.1-0.7-0.5-1.4-1.2-1.5c-1.9-0.4-3.6-1.3-5.1-2.5
	c-2.2-2-3.6-4.7-3.7-7.6c-0.2-2.1,0.3-4.2,1.3-6.1c0.1-0.1,0.1-0.2,0.1-0.2C2,33,2.1,32.8,2.2,32.7c0.1-0.1,0.1-0.2,0.2-0.3
	c0.7-1,0.6-1.3-0.1-2.3l-0.1-0.2c-0.6-0.9-1-1.8-1.3-2.8c-0.4-1.5-0.5-3-0.4-4.4c0.2-2.4,1.2-4.7,2.9-6.4c1.5-1.6,3.5-2.7,5.6-3.2
	c0.8-0.1,1.5-0.9,1.4-1.7c0-4.9,3.3-9.2,8-10.6c0.3-0.1,0.7-0.1,1-0.2c0.3,0,0.6-0.1,0.8-0.1h2.5c1.3,0.1,2.5,0.4,3.7,1
	c1.6,0.8,3,1.9,4,3.3c0.2,0.6,0.9,0.8,1.4,0.6c0.3-0.1,0.5-0.3,0.6-0.6c1.6-2.1,3.8-3.6,6.4-4.1c0.1,0,0.2,0,0.4,0s0.4,0,0.7-0.1
	h2.7c1.4,0.1,2.8,0.5,4.1,1.2c3.1,1.6,5.2,4.7,5.7,8.2c0.1,0.6,0.1,1.1,0.1,1.7c-0.1,0.7,0.4,1.4,1.2,1.5c1.9,0.4,3.7,1.3,5.2,2.7
	c2.3,2.1,3.3,4.3,3.4,6.8v0.2c0,0.2,0,0.5,0.1,0.7v1.9c-0.2,1.8-0.9,3.6-2,5c-0.4,0.6-0.4,1.4,0,1.9c0.8,1.1,1.4,2.4,1.7,3.7
	c0,0.2,0.1,0.4,0.1,0.7s0.1,0.6,0.1,0.8v2.7c-0.1,1.6-0.7,3.1-1.6,4.5c-1.6,2.5-4.1,4.2-6.9,4.9c-0.8,0.1-1.4,0.9-1.3,1.7
	c0,5.2-3.6,9.6-8.6,10.8C43.2,62.1,42.5,62.2,41.8,62.2L41.8,62.2z M33.7,44.7c-0.3,0-0.7,0.1-0.9,0.3c-0.2,0.3-0.3,0.6-0.3,0.9v2.4
	c0,1.1,0,2.1,0,3.2c0.2,4.6,3.9,8.2,8.5,8.5h0.3c2.7,0,5.3-1.2,7-3.3s2.3-4.9,1.7-7.6V49c-0.1-0.2-0.1-0.4-0.1-0.6
	c0.1-0.4,0.3-0.8,1.4-0.8l0,0c4.9,0.1,8.9-3.9,9-8.8c0-2.5-1-4.8-2.8-6.5c-0.3-0.2-0.5-0.6-0.6-1c0.1-0.4,0.3-0.8,0.6-1
	c3.5-3.4,3.7-9,0.3-12.5l0,0c-1.7-1.8-4.1-2.8-6.6-2.7l0,0c-0.4,0-0.8-0.1-1.1-0.4c-0.2-0.3-0.2-0.7-0.1-1.1
	c0.3-1.2,0.3-2.4,0.1-3.6c-0.7-4.2-4.3-7.3-8.6-7.4h-0.1c-4.3,0-8,3.1-8.7,7.3c-0.2,1.5-0.2,3-0.2,4.5c0,0.8,0,1.6,0,2.4
	c0,0.3,0.1,0.6,0.3,0.8c0.2,0.2,0.5,0.3,0.8,0.3h2c0.4,0,0.8,0,1.2,0h0.1c0.7,0,1.3-0.4,1.6-1c0.8-1.6,2.4-2.7,4.2-2.7
	c0.6,0,1.2,0.1,1.7,0.3c2.4,0.9,3.7,3.7,2.7,6.1c-0.7,1.7-2.2,2.9-4,3c-0.1,0-0.2,0-0.4,0c-1.9,0-3.6-1.1-4.3-2.8
	c-0.2-0.6-0.8-1-1.4-0.9h-0.1c-0.5,0-1,0-1.5,0s-1,0-1.4,0h-0.1c-0.4,0-0.7,0.1-1,0.4c-0.2,0.3-0.4,0.6-0.4,1c0,2.8,0,5.3,0,7.6
	c0,0.4,0.1,0.8,0.4,1c0.3,0.3,0.7,0.4,1,0.4l0,0c1.3,0,2.7,0,3.9,0c1.3,0,2.7,0,3.9,0l0,0c0.7,0,1.3-0.4,1.5-1
	c0.8-1.7,2.4-2.8,4.3-2.7c0.3,0,0.6,0,0.9,0.1c2.6,0.5,4.2,3,3.7,5.6c-0.4,1.8-1.7,3.2-3.5,3.7c-0.4,0.1-0.8,0.1-1.2,0.1
	c-1.8,0-3.5-1.1-4.2-2.7c-0.2-0.6-0.9-1-1.6-1h-0.1c-0.5,0-1,0-1.7,0h-6.3c-0.3,0-0.7,0.1-0.9,0.3c-0.2,0.3-0.4,0.6-0.3,0.9
	c0,2.6,0,5.2,0,7.8c0,0.3,0.1,0.7,0.3,0.9s0.6,0.3,0.9,0.3l0,0c0.6,0,1.1,0,1.5,0c0.5,0,0.9,0,1.4,0h0.1c0.7,0,1.3-0.4,1.5-1
	c0.8-1.7,2.4-2.7,4.2-2.7c0.5,0,1.1,0.1,1.6,0.3c2.5,0.9,3.8,3.5,2.9,6c-0.6,1.8-2.2,3-4,3.2c-0.2,0-0.3,0-0.5,0
	c-1.8,0-3.5-1.1-4.3-2.8c-0.2-0.6-0.8-1-1.5-1h-0.1c-0.4,0-0.9,0-1.4,0C34.8,44.7,34.2,44.7,33.7,44.7L33.7,44.7z M18.6,44.7
	c0.3,0,0.5,0.1,0.7,0.3s0.3,0.4,0.3,0.7c0,0.4-0.2,0.7-0.5,0.9c-1.4,1.4-3.3,2.3-5.2,2.8c-0.7,0.1-1.2,0.6-1.2,1.3
	c-0.3,4.9,3.5,9.1,8.4,9.4h0.4c4.9,0.1,8.9-3.9,8.9-8.7c0-0.1,0-0.1,0-0.2V11.3c0-4.9-3.9-8.8-8.8-8.9c-0.1,0-0.1,0-0.2,0h-0.2
	c-2.3,0.1-4.5,1.1-6.1,2.8c-1.7,1.7-2.6,4.1-2.5,6.5c0,0.7,0.5,1.4,1.2,1.5c2,0.4,3.8,1.4,5.3,2.9c0.4,0.3,0.5,0.8,0.2,1.3
	c-0.2,0.3-0.5,0.5-0.9,0.5l0,0c-0.1,0-0.1,0-0.2,0c-0.3-0.1-0.6-0.3-0.8-0.5l0,0c-3.6-3.3-9.2-3-12.5,0.6c-3.2,3.5-3,9,0.4,12.3
	c0.3,0.3,0.6,0.6,0.7,1.1c0,0.3-0.2,0.6-0.7,1.1c-3.5,3.4-3.6,9-0.2,12.5c0.3,0.3,0.7,0.7,1.1,1c1.5,1.2,3.3,1.8,5.2,1.8
	c2.3,0,4.5-0.9,6.2-2.5C17.9,44.8,18.2,44.7,18.6,44.7z M42.6,41c-1.5,0-2.7,1.2-2.7,2.6c0,0.7,0.3,1.4,0.8,1.9s1.2,0.8,1.9,0.8l0,0
	c1.5,0,2.7-1.2,2.7-2.7S44.1,40.9,42.6,41L42.6,41z M47.5,28.6c-1.5,0-2.7,1.2-2.7,2.7c0,0.7,0.3,1.4,0.8,1.9s1.2,0.8,1.9,0.8h0.1
	c1.5,0,2.7-1.2,2.6-2.7C50.2,29.7,49,28.6,47.5,28.6L47.5,28.6z M42.6,16.2c-1.5,0-2.7,1.2-2.7,2.7c0,1.4,1.2,2.6,2.6,2.7l0,0
	c1.5,0,2.7-1.2,2.7-2.7C45.2,17.4,44.1,16.2,42.6,16.2L42.6,16.2z"/>
</svg>
