<?xml version="1.0" encoding="utf-8"?>
<!-- Generator: Adobe Illustrator 23.0.6, SVG Export Plug-In . SVG Version: 6.00 Build 0)  -->
<svg version="1.1" id="Group_492" xmlns="http://www.w3.org/2000/svg" xmlns:xlink="http://www.w3.org/1999/xlink" x="0px" y="0px"
	 viewBox="0 0 62.3 62.5" style="enable-background:new 0 0 62.3 62.5;" xml:space="preserve">
<style type="text/css">
	.st0{stroke:#000000;stroke-width:0.5;stroke-miterlimit:10;}
</style>
<g>
	<path id="Path_77" class="st0" d="M35,62L35,62c-0.6-0.4-0.8-1-0.6-1.6c0.2-0.5,0.7-0.7,1.2-0.7h9.2c1.8,0.1,3.4-1.3,3.5-3.1
		c0-0.1,0-0.2,0-0.4c0-3.8,0-7.6,0-11.3v-4L48,41.1c-0.5,0.3-0.9,0.6-1.4,0.9c-0.2,0.1-0.5,0.2-0.7,0.2c-0.6,0-1.1-0.5-1.1-1.1
		c0-0.4,0.3-0.8,0.6-1l0.1-0.1c0.8-0.5,1.6-1,2.5-1.5c0.2-0.1,0.4-0.3,0.3-0.6c0-4.1,0-8.2,0-12.3c0-0.2-0.1-0.4-0.3-0.5
		c-0.8-0.5-1.5-0.9-2.2-1.4l-0.3-0.2c-0.6-0.3-0.8-0.9-0.6-1.5c0,0,0-0.1,0.1-0.1c0.2-0.3,0.5-0.5,0.9-0.5c0.3,0,0.6,0.1,0.8,0.3
		c0.5,0.3,0.9,0.6,1.4,0.9l0.3,0.2V6.3c0-2.5-1.3-3.8-3.8-3.8h-27c-2.4,0-3.8,1.3-3.8,3.8v2.2c0,0.8-0.4,1.2-1.1,1.2
		c-0.6,0-1.1-0.5-1.1-1.1V8.5c0-0.4,0-0.7,0-1.1c-0.1-1,0-1.9,0.2-2.9c0.6-2.5,2.8-4.2,5.3-4.2c4.8,0,9.6,0,14.3,0
		c4.6,0,9.2,0,13.9,0c2.9,0,5.2,2.3,5.4,5.2c0,0.3,0,0.7,0,1v17.2c0,0.3,0.1,0.6,0.4,0.7c2.2,1.4,4.3,2.7,6.5,4.1l3.3,2.1
		c0.4,0.2,0.7,0.5,1.1,0.8l0.1,0.1v0.9L62,32.3c-0.3,0.3-0.7,0.6-1.1,0.8l-3,1.9c-2.3,1.4-4.5,2.8-6.8,4.2c-0.3,0.1-0.4,0.4-0.4,0.7
		c0,5.2,0,10.6,0,16.1c0.1,2.7-1.7,5.1-4.3,5.7c-0.1,0-0.2,0-0.3,0H46c-0.1,0-0.2,0.1-0.2,0h-0.2h-0.1h-0.1L35,62z M50.7,36.9
		l8.1-5.1l-8.1-5.1C50.7,26.7,50.7,36.9,50.7,36.9z"/>
	<path id="Path_78" class="st0" d="M60.8,30.7c-3.3-2.1-6.5-4.1-9.8-6.2c-0.3-0.2-0.5-0.5-0.5-0.9c0-5.7,0-11.5,0-17.2
		c0-0.4,0-0.7,0-1c-0.2-2.8-2.4-4.9-5.2-4.9c-9.4,0-18.8,0-28.2,0c-2.4,0-4.5,1.7-5.1,4.1c-0.2,1.3-0.2,2.6-0.2,3.9
		c0,0.6,0.3,1,0.9,1c0.6,0,0.9-0.4,0.9-1c0-0.7,0-1.5,0-2.2c0-2.6,1.4-4,4-4h27.1c2.6,0,4,1.4,4,4v16c0,0.2,0,0.5-0.1,0.7l0,0
		c-0.6-0.4-1.3-0.8-1.9-1.2c-0.6-0.4-1.1-0.3-1.4,0.2c-0.3,0.5-0.1,0.9,0.4,1.3c0.9,0.5,1.7,1.1,2.6,1.6c0.3,0.1,0.4,0.4,0.4,0.7
		c0,4.1,0,8.2,0,12.3c0,0.3-0.1,0.6-0.4,0.7c-0.9,0.5-1.7,1.1-2.6,1.6c-0.5,0.2-0.7,0.7-0.5,1.2l0,0c0.2,0.5,0.8,0.6,1.2,0.4
		c0.1,0,0.1-0.1,0.2-0.1c0.7-0.4,1.3-0.8,2-1.2h0.1v0.1c0,0.1,0,0.1,0,0.2c0,5.1,0,10.2,0,15.3c0.1,2-1.4,3.6-3.4,3.7
		c-0.1,0-0.2,0-0.4,0h-9.2c-0.4-0.1-0.9,0.1-1.1,0.5c-0.2,0.5,0.1,0.9,0.4,1.3h10.3l0,0c0.2-0.1,0.4,0,0.6-0.1l0,0
		c0.1,0,0.2,0,0.3,0c2.5-0.6,4.2-2.9,4.1-5.5V40c0-0.4,0.2-0.7,0.5-0.9c3.3-2.1,6.5-4.1,9.8-6.2c0.4-0.2,0.7-0.5,1-0.8v-0.7
		C61.5,31.2,61.2,30.9,60.8,30.7z M50.5,26.4c2.9,1.8,5.8,3.6,8.7,5.5c-2.9,1.8-5.8,3.6-8.7,5.5V26.4z"/>
	<path id="Path_79" class="st0" d="M16.8,62L16.8,62c-0.1-0.1-0.1-0.1-0.1-0.1h-0.2c-0.1,0-0.2,0-0.3,0l0,0
		c-2.4-0.4-4.3-2.3-4.6-4.8c0-0.4-0.1-0.9-0.1-1.3V40c0-0.3-0.1-0.6-0.4-0.7c-2.7-1.7-5.4-3.4-8.1-5.1l-2-1.3
		c-0.6-0.4-0.8-0.7-0.8-1.1c0.1-0.5,0.4-0.9,0.8-1.1l2.1-1.3c2.6-1.7,5.2-3.3,7.9-4.9c0.4-0.2,0.6-0.5,0.5-0.9c0-2.6,0-5.3,0-7.9
		v-2.4c0-0.2,0-0.5,0-0.7c0.1-0.5,0.5-0.9,1.1-0.9l0,0c0.5,0,1,0.3,1.1,0.8c0,0.2,0.1,0.5,0,0.7v9.5l1.4-0.9
		c0.3-0.2,0.7-0.4,1.1-0.4c0.4,0,0.7,0.2,0.9,0.5c0.5,0.8-0.2,1.4-0.8,1.8L15.9,24c-0.6,0.4-1.2,0.8-1.8,1.1
		c-0.2,0.1-0.3,0.2-0.2,0.4V38c0,0.2,0.1,0.4,0.3,0.5l1.8,1.1l0.6,0.4c0.4,0.2,0.7,0.6,0.8,1c0,0.3,0,0.6-0.2,0.8
		c-0.2,0.3-0.5,0.5-0.9,0.5c-0.3,0-0.7-0.1-1-0.3l-1.5-1v15.1c-0.2,1.9,1.2,3.5,3,3.7c0.2,0,0.5,0,0.7,0H31c0.5,0,0.9,0.2,1.2,0.5
		c0.2,0.3,0.2,0.7,0.1,1c-0.1,0.2-0.2,0.3-0.3,0.4c-0.1,0.1-0.1,0.1-0.2,0.2V62H16.8L16.8,62z M11.5,36.9V26.8l-8,5L11.5,36.9z"/>
	<path id="Path_80" class="st0" d="M31,60H17.6c-2,0.2-3.8-1.3-3.9-3.3c0-0.2,0-0.5,0-0.7V41.2c0-0.2-0.1-0.4,0.1-0.6l0,0
		c0.6,0.4,1.2,0.7,1.7,1.1c0.7,0.4,1.2,0.4,1.5-0.1s0.1-1-0.6-1.4c-0.8-0.5-1.6-1-2.4-1.5c-0.3-0.1-0.4-0.4-0.4-0.7V25.6
		c0-0.3,0.1-0.5,0.4-0.6c0.8-0.5,1.6-1,2.4-1.5s1-0.9,0.7-1.5c-0.3-0.5-0.8-0.6-1.7,0c-0.5,0.3-1.1,0.7-1.7,1c0,0-0.1,0-0.1,0.1
		v-9.8c0-0.2,0-0.4,0-0.7c-0.1-0.4-0.4-0.7-0.9-0.7c-0.4,0-0.8,0.3-0.8,0.7c0,0.2-0.1,0.4,0,0.7c0,3.4,0,6.8,0,10.2
		c0,0.5-0.2,0.9-0.6,1.1c-3.3,2.1-6.7,4.2-10,6.3c-1,0.6-1,1.3,0,1.9C4.6,34.9,8,37,11.4,39.1c0.3,0.2,0.5,0.5,0.5,0.9
		c0,5.3,0,10.5,0,15.8c0,0.4,0,0.8,0,1.3c0.3,2.3,2.1,4.2,4.4,4.6l0,0c0.2,0.1,0.4,0,0.6,0.1l0,0l0,0h14.7c0.1-0.2,0.4-0.3,0.5-0.6
		C32.3,60.5,31.9,60,31,60z M11.8,37.3c-2.9-1.8-5.7-3.6-8.7-5.5c2.9-1.8,5.8-3.6,8.7-5.5V37.3z"/>
	<path id="Path_85" class="st0" d="M31.1,46.3c-0.3,0-0.5-0.1-0.7-0.2l-1.2-0.8c-2.9-1.9-5.9-3.7-8.8-5.6c-0.4-0.2-0.7-0.7-0.7-1.2
		V25.2c0-0.5,0.2-0.9,0.7-1.2c3.3-2.1,6.7-4.2,10-6.4c0.2-0.1,0.5-0.2,0.7-0.2c0.3,0,0.5,0.1,0.7,0.2l1.8,1.1
		c2.8,1.8,5.6,3.5,8.3,5.3c0.4,0.3,0.7,0.7,0.7,1.2v6.5c0.1,0.6-0.4,1.2-1,1.3h-0.1c-0.6,0-1.1-0.5-1.1-1.1v-0.1v-4.7
		c-0.4,0.2-0.7,0.5-1.1,0.7L37,29.2c-1.5,0.9-2.9,1.9-4.4,2.8c-0.2,0.1-0.3,0.2-0.3,0.4c0,2.6,0,5.3,0,7.9V43
		c0.1-0.1,0.3-0.2,0.4-0.2c0.7-0.4,1.4-0.9,2-1.3c1.7-1.1,3.5-2.2,5.2-3.3c0.4-0.1,0.6-0.5,0.5-0.9c0-0.4,0-0.8,0-1.1v-0.1
		c0-0.6,0.5-1.1,1.1-1.1c0,0,0,0,0.1,0c0.6,0,1.1,0.5,1.1,1.1l0,0v2.3c0,0.4-0.2,0.9-0.6,1.1L31.8,46C31.6,46.2,31.4,46.3,31.1,46.3
		L31.1,46.3z M22,29.1v8.6c0,0.2,0,0.3,0.3,0.4c1,0.6,2,1.3,3,1.9l1.1,0.7c1,0.6,3.7,2.4,3.7,2.4V32.5c0-0.2-0.1-0.3-0.3-0.4
		c-0.7-0.4-1.6-1-2.4-1.5c-0.5-0.3-0.8-1-0.5-1.5c0,0,0-0.1,0.1-0.1c0.2-0.3,0.5-0.5,0.9-0.5c0.3,0,0.5,0.1,0.7,0.2
		c0.1,0.1,0.2,0.1,0.3,0.2c0.4,0.2,0.7,0.4,1.1,0.7c0.3,0.3,0.7,0.5,1.1,0.5c0.5,0,0.9-0.2,1.3-0.5c1.7-1.2,3.5-2.2,5.2-3.3
		c0.6-0.4,1.2-0.8,1.8-1.1c-0.1-0.1-0.2-0.1-0.3-0.2l-6.3-4c-0.2-0.1-0.3-0.3-0.5-0.4c-0.3-0.3-0.7-0.5-1.1-0.6l0,0
		c-0.4,0.1-0.8,0.3-1.1,0.6c-0.2,0.1-0.3,0.3-0.5,0.4c-1.7,1-3.3,2.1-5,3.2l-1.5,1l0.3,0.2c0.5,0.4,1.1,0.7,1.6,1
		c0.4,0.2,0.6,0.7,0.5,1.1c0,0.4-0.3,0.8-0.7,0.9c-0.1,0-0.2,0.1-0.4,0.1c-0.3,0-0.6-0.1-0.8-0.3c-0.4-0.3-0.8-0.5-1.3-0.8L22,27.2
		V29.1z"/>
	<path id="Path_86" class="st0" d="M41.5,35.3c-0.5,0-0.9,0.4-0.9,0.9c0,0,0,0,0,0.1c0,0.4,0,0.8,0,1.2c0.1,0.5-0.2,0.9-0.6,1.1
		c-2.4,1.5-4.8,3-7.2,4.5c-0.2,0.1-0.4,0.3-0.7,0.4c0-0.1,0-0.2,0-0.3V32.5c0-0.3,0.2-0.5,0.4-0.6c2.2-1.4,4.5-2.8,6.7-4.2
		c0.4-0.3,0.9-0.6,1.4-0.9v5.1c0,0.7,0.3,1,0.9,1c0.5,0,0.9-0.4,0.9-1v-6.5c0-0.4-0.2-0.8-0.6-1c-3.4-2.1-6.7-4.2-10.1-6.4
		c-0.4-0.3-0.9-0.3-1.2,0c-3.3,2.1-6.7,4.2-10,6.4c-0.4,0.2-0.6,0.6-0.5,1v13.2c0,0.4,0.2,0.8,0.5,1c3.3,2.1,6.7,4.3,10,6.4
		c0.3,0.2,0.8,0.2,1.1,0c3.4-2.1,6.8-4.3,10.2-6.4c0.3-0.2,0.5-0.5,0.5-0.9v-2.3C42.4,35.7,42.1,35.3,41.5,35.3
		C41.6,35.3,41.5,35.3,41.5,35.3z M29.8,29.7c-0.4-0.3-0.9-0.6-1.4-0.9c-0.4-0.3-1-0.2-1.3,0.2l0,0c-0.3,0.4-0.1,1,0.3,1.2h0.1
		c0.8,0.5,1.6,1,2.4,1.5c0.2,0.1,0.4,0.4,0.3,0.6c0,3.5,0,7.1,0,10.6c0,0.1,0,0.2,0,0.3c-1.4-0.9-2.7-1.7-4-2.6s-2.7-1.7-4-2.6
		c-0.2-0.1-0.4-0.3-0.4-0.6c0-3.6,0-7.3,0-11c0.7,0.4,1.3,0.8,1.9,1.2c0.3,0.2,0.6,0.3,1,0.2c0.3-0.1,0.5-0.4,0.6-0.7
		c0.1-0.4-0.1-0.7-0.4-0.9c-0.7-0.5-1.4-0.9-2.2-1.4c2.3-1.5,4.6-2.9,6.8-4.4c0.6-0.4,1.1-1,1.8-1c0.6,0,1.1,0.7,1.7,1
		c2.1,1.3,4.2,2.7,6.3,4c0.2,0.1,0.3,0.2,0.6,0.4c-2.5,1.6-4.9,3-7.3,4.6C31.5,30.4,30.7,30.6,29.8,29.7z"/>
	<path id="Path_87" class="st0" d="M34.7,16.5c-0.3,0-0.5-0.1-0.8-0.3c-0.3-0.2-0.5-0.3-0.8-0.5c-0.6-0.4-1.1-0.7-1.7-1.1
		c-0.1-0.1-0.2-0.1-0.3-0.1c0,0-0.1,0-0.3,0.1c-0.7,0.4-1.3,0.9-2,1.3l-0.5,0.3c-0.3,0.2-0.6,0.3-0.9,0.3c-0.4,0-0.7-0.2-0.9-0.5
		c-0.3-0.4-0.3-1,0.6-1.6c0.4-0.3,0.9-0.6,1.3-0.8c0.6-0.4,1.3-0.8,1.9-1.2c0.2-0.2,0.5-0.3,0.8-0.3c0.2,0,0.4,0.1,0.6,0.2l1.3,0.8
		c0.7,0.4,1.4,0.9,2.1,1.4c0.5,0.3,0.8,1,0.5,1.5C35.5,16.2,35.1,16.5,34.7,16.5L34.7,16.5L34.7,16.5z"/>
	<path id="Path_88" class="st0" d="M35.5,15.6c-0.1,0.4-0.5,0.6-0.9,0.6c-0.2,0-0.5-0.1-0.7-0.3c-0.8-0.5-1.7-1-2.5-1.6
		c-0.2-0.2-0.6-0.2-0.8,0c-0.8,0.5-1.6,1-2.5,1.6c-0.6,0.4-1.2,0.3-1.4-0.2c-0.3-0.5-0.1-0.9,0.5-1.3c1.1-0.7,2.1-1.3,3.2-2
		c0.3-0.3,0.8-0.3,1.2-0.1l3.4,2.2C35.5,14.7,35.7,15.2,35.5,15.6z"/>
	<path id="Path_89" class="st0" d="M31.1,51.7c-0.2,0-0.4-0.1-0.6-0.2l-1-0.6c-0.8-0.5-1.7-1-2.5-1.6c-0.5-0.3-0.8-1-0.5-1.5
		c0,0,0-0.1,0.1-0.1c0.2-0.3,0.5-0.5,0.9-0.5c0.2,0,0.5,0.1,0.7,0.2c1,0.6,1.8,1.1,2.6,1.7c0.1,0.1,0.2,0.1,0.3,0.1l0,0
		c0.1,0,0.2,0,0.3-0.1c1-0.7,1.9-1.2,2.6-1.7c0.2-0.1,0.5-0.2,0.7-0.2c0.6,0,1.1,0.5,1.1,1.1l0,0c0,0.4-0.2,0.8-0.6,1
		c-1.2,0.7-2.3,1.5-3.5,2.2C31.6,51.6,31.4,51.7,31.1,51.7z"/>
	<path id="Path_90" class="st0" d="M35.6,48.3c0,0.3-0.2,0.6-0.4,0.8c-1.2,0.7-2.3,1.5-3.5,2.2c-0.3,0.2-0.7,0.2-1,0
		c-1.1-0.7-2.3-1.4-3.4-2.2c-0.4-0.2-0.6-0.8-0.4-1.2c0,0,0-0.1,0.1-0.1c0.3-0.4,0.8-0.5,1.2-0.3c0,0,0,0,0.1,0
		c0.9,0.5,1.8,1.1,2.6,1.7c0.2,0.2,0.5,0.2,0.7,0c0.9-0.6,1.7-1.1,2.6-1.7c0.4-0.3,1-0.2,1.3,0.2C35.5,48,35.6,48.1,35.6,48.3z"/>
	<path id="Path_91" class="st0" d="M27.9,7.1h-1.1c-0.4,0-0.7-0.1-1-0.4c-0.2-0.2-0.3-0.5-0.3-0.8c0-0.6,0.6-1.1,1.2-1.1h0.1h5.6
		c0.4,0,0.7,0.1,1,0.4c0.2,0.2,0.3,0.5,0.3,0.8c0,0.7-0.5,1.1-1.3,1.1H27.9z"/>
	<path id="Path_92" class="st0" d="M33.6,6c0,0.5-0.4,0.9-1.1,0.9h-5.6c-0.7,0-1.1-0.4-1.1-0.9s0.4-0.9,1.1-0.9h5.6
		C33,5,33.5,5.4,33.6,6C33.5,5.9,33.5,6,33.6,6z"/>
	<path id="Path_93" class="st0" d="M38.5,47.1c-0.6,0-1.1-0.5-1.1-1.1c0-0.4,0.2-0.8,0.6-1c0.8-0.5,1.7-1,2.5-1.6L41,43l0.2-0.1
		c0.2-0.1,0.4-0.2,0.6-0.3c0.2-0.1,0.3-0.1,0.5-0.1c0.4,0,0.7,0.2,0.9,0.5c0.3,0.5,0.2,1.1-0.2,1.4c0,0,0,0-0.1,0
		c-1.1,0.7-2.2,1.4-3.3,2.1l-0.7,0.4C38.8,47,38.7,47,38.5,47.1C38.6,47,38.6,47,38.5,47.1L38.5,47.1L38.5,47.1z"/>
	<path id="Path_94" class="st0" d="M42.8,44.3c-1.3,0.8-2.6,1.6-4,2.4c-0.1,0-0.2,0.1-0.4,0.1c-0.4,0-0.8-0.3-0.9-0.7
		c-0.1-0.4,0-0.8,0.4-1c1-0.6,2.1-1.3,3.1-1.9c0.2-0.2,0.5-0.3,0.8-0.4c0.4-0.2,0.9-0.1,1.1,0.3l0,0C43.3,43.5,43.2,44,42.8,44.3
		L42.8,44.3z"/>
	<path id="Path_95" class="st0" d="M23.8,47.1c-0.2,0-0.4,0-0.5-0.1c-1.2-0.7-2.4-1.5-3.9-2.5c-0.5-0.3-0.6-0.9-0.3-1.4
		c0,0,0,0,0-0.1c0.2-0.3,0.5-0.5,0.9-0.5c0.2,0,0.5,0.1,0.7,0.2c0.7,0.4,1.4,0.9,2.1,1.3l0.8,0.5c0.3,0.2,0.5,0.3,0.7,0.5
		c0.3,0.2,0.5,0.5,0.5,0.9c0,0.3-0.1,0.6-0.3,0.8C24.4,47,24.1,47.1,23.8,47.1z"/>
	<path id="Path_96" class="st0" d="M24.7,46c0,0.5-0.3,0.9-0.8,0.9c-0.2,0-0.3,0-0.5-0.1c-1.3-0.8-2.6-1.6-3.9-2.5
		c-0.4-0.2-0.5-0.7-0.2-1.1c0,0,0,0,0-0.1c0.3-0.4,0.8-0.5,1.2-0.3l0,0c1,0.6,2,1.2,3,1.8c0.3,0.2,0.5,0.3,0.7,0.5
		C24.6,45.4,24.7,45.6,24.7,46z"/>
	<path id="Path_97" class="st0" d="M20.1,21.2c-0.5,0-0.9-0.2-1.1-0.7s-0.1-1,0.3-1.3c1.6-1,2.8-1.8,3.9-2.5
		c0.2-0.1,0.4-0.2,0.6-0.2c0.4,0,0.7,0.2,0.9,0.5c0.2,0.2,0.2,0.5,0.2,0.8s-0.2,0.5-0.5,0.7c-1.2,0.8-2.4,1.5-3.5,2.2l-0.3,0.2
		C20.5,21,20.4,21,20.3,21L20.1,21.2L20.1,21.2z"/>
	<path id="Path_98" class="st0" d="M24.3,18.4c-1.3,0.8-2.6,1.7-3.9,2.5c-0.1,0-0.2,0.1-0.3,0.1c-0.4,0-0.8-0.2-0.9-0.5
		c-0.2-0.4-0.1-0.8,0.3-1c1.3-0.8,2.6-1.7,3.9-2.5c0.4-0.2,0.9-0.1,1.1,0.2c0,0,0,0,0,0.1C24.8,17.6,24.8,18.1,24.3,18.4
		C24.4,18.4,24.4,18.4,24.3,18.4z"/>
	<path id="Path_99" class="st0" d="M42.3,21.1c-0.2,0-0.5-0.1-0.7-0.2c-0.7-0.4-1.5-0.9-2.2-1.4L38.5,19l-0.2-0.1
		c-0.2-0.1-0.3-0.2-0.5-0.3c-0.5-0.4-0.6-1.1-0.3-1.6c0.2-0.3,0.5-0.5,0.9-0.5c0.2,0,0.4,0.1,0.5,0.2c1.2,0.7,2.4,1.4,3.5,2.1
		l0.4,0.3c0.3,0.2,0.5,0.5,0.5,0.9C43.4,20.6,42.9,21.1,42.3,21.1z"/>
	<path id="Path_100" class="st0" d="M43.1,20.1c0,0.5-0.4,0.9-0.9,0.9c-0.2,0-0.4-0.1-0.5-0.2c-1-0.6-2-1.3-3-1.9
		c-0.2-0.1-0.4-0.3-0.7-0.4c-0.4-0.3-0.5-0.8-0.3-1.2l0,0c0.2-0.4,0.7-0.6,1.1-0.4l0,0c1.3,0.8,2.6,1.6,3.9,2.4
		C43,19.5,43.1,19.8,43.1,20.1z"/>
	<path id="Path_101" class="st0" d="M35.7,7.1c-0.6,0-1.1-0.5-1.1-1.1s0.5-1.1,1.1-1.1l0,0l0,0c0.6,0,1.1,0.5,1.1,1.1
		c0,0.3-0.1,0.6-0.3,0.8C36.3,7,36,7.1,35.7,7.1L35.7,7.1z"/>
	<path id="Path_102" class="st0" d="M36.5,5.9c0,0.5-0.3,0.9-0.8,0.9c0,0,0,0-0.1,0c-0.5,0-0.9-0.4-0.9-0.9S35.1,5,35.6,5
		C36.1,5.1,36.5,5.4,36.5,5.9z"/>
</g>
</svg>
