<?xml version="1.0" encoding="utf-8"?>
<!-- Generator: Adobe Illustrator 23.0.6, SVG Export Plug-In . SVG Version: 6.00 Build 0)  -->
<svg version="1.1" id="Group_490" xmlns="http://www.w3.org/2000/svg" xmlns:xlink="http://www.w3.org/1999/xlink" x="0px" y="0px"
	 viewBox="0 0 81 62.8" style="enable-background:new 0 0 81 62.8;" xml:space="preserve">
<style type="text/css">
	.st0{stroke:#000000;stroke-miterlimit:10;}
	.st1{stroke:#000000;stroke-linecap:round;stroke-linejoin:round;stroke-miterlimit:10;}
</style>
<g>
	<path id="Path_342" class="st0" d="M80.5,21.2V58c0,2.4-1.9,4.3-4.3,4.3H4.8c-2.4,0-4.3-1.9-4.3-4.3V21.2h1.6V58
		c0,1.5,1.2,2.7,2.7,2.7h71.3c1.5,0,2.7-1.2,2.7-2.7V21.2H80.5z"/>
	<path id="Path_343" class="st0" d="M76.9,0.5H4.1c-2,0-3.6,1.6-3.6,3.6l0,0v8.1c0,2,1.6,3.6,3.6,3.6h72.8c2,0,3.6-1.6,3.6-3.6V4.1
		C80.5,2.1,78.9,0.5,76.9,0.5z M78.9,12.1c0,1.1-0.9,2-2,2l0,0H4.1c-1.1,0-2-0.9-2-2l0,0v-8c0-1.1,0.9-2,2-2l0,0h72.8
		c1.1,0,2,0.9,2,2l0,0V12.1z"/>
	<g id="Group_484" transform="translate(4.798 4.821)">
		<path id="Path_344" class="st0" d="M6.1,3.3c0,1.6-1.3,2.8-2.8,2.8S0.5,4.9,0.5,3.3c0-1.5,1.3-2.8,2.8-2.8l0,0
			C4.9,0.5,6.1,1.8,6.1,3.3L6.1,3.3z"/>
		<path id="Path_345" class="st0" d="M14.1,3.3c0,1.6-1.3,2.8-2.8,2.8c-1.6,0-2.8-1.3-2.8-2.8c-0.1-1.5,1.2-2.8,2.8-2.8l0,0
			C12.8,0.5,14.1,1.8,14.1,3.3L14.1,3.3z"/>
		<path id="Path_346" class="st0" d="M22,3.3c0,1.6-1.3,2.8-2.8,2.8c-1.6,0-2.8-1.3-2.8-2.8c0-1.6,1.3-2.8,2.8-2.8l0,0
			C20.8,0.5,22,1.8,22,3.3L22,3.3z"/>
	</g>
	<rect id="Rectangle_392" x="42.8" y="27.8" class="st1" width="29.5" height="1.6"/>
	<rect id="Rectangle_393" x="42.8" y="38" class="st1" width="29.5" height="1.6"/>
	<rect id="Rectangle_394" x="42.8" y="48.2" class="st1" width="29.5" height="1.6"/>
	<path id="Path_347" class="st0" d="M32,22.1H11.5c-1.7,0-3.1,1.4-3.1,3.1l0,0v26.1c0,1.7,1.4,3.1,3.1,3.1l0,0H32
		c1.7,0,3.1-1.4,3.1-3.1l0,0V25.1C35,23.4,33.7,22.1,32,22.1z M32,52.7H11.5c-0.8,0-1.4-0.6-1.4-1.4V25.1c0-0.8,0.6-1.4,1.4-1.4H32
		c0.8,0,1.4,0.6,1.4,1.4v26.1C33.4,52.1,32.8,52.7,32,52.7L32,52.7z"/>
</g>
</svg>
