<?xml version="1.0" encoding="utf-8"?>
<!-- Generator: Adobe Illustrator 23.0.6, SVG Export Plug-In . SVG Version: 6.00 Build 0)  -->
<svg version="1.1" id="Group_497" xmlns="http://www.w3.org/2000/svg" xmlns:xlink="http://www.w3.org/1999/xlink" x="0px" y="0px"
	 viewBox="0 0 62.7 62.6" style="enable-background:new 0 0 62.7 62.6;" xml:space="preserve">
<style type="text/css">
	.st0{stroke:#000000;stroke-miterlimit:10;}
	.st1{stroke:#000000;stroke-linecap:round;stroke-linejoin:round;stroke-miterlimit:10;}
</style>
<path id="Path_353" class="st0" d="M55.7,30.3c1.5,0,1.5,0,1.2,1.4c-0.7,3.7-3.8,6.5-7.6,6.8c-0.4,0-0.6-0.1-0.5-0.5
	c0-0.2,0-0.3,0-0.5c0-0.9,0-0.9,0.9-1.1c2.8-0.4,5-2.8,5.2-5.6c0-0.4,0.2-0.5,0.5-0.5C55.5,30.3,55.6,30.3,55.7,30.3z"/>
<path id="Path_356" class="st0" d="M56.9,31.7c-0.7,3.7-3.8,6.5-7.6,6.8c-0.4,0-0.6-0.1-0.5-0.5c0-0.2,0-0.3,0-0.5
	c0-0.9,0-0.9,0.9-1.1c2.8-0.4,5-2.8,5.2-5.6c0-0.4,0.2-0.5,0.5-0.5h0.2C57.2,30.3,57.2,30.3,56.9,31.7z"/>
<g>
	<path id="Path_352" class="st1" d="M26.2,7.1c0.1,0.5-0.1,0.6-0.6,0.6c-4.1,0.3-7.4,3.6-7.6,7.7c0,0.4-0.2,0.5-0.5,0.5
		c-0.2,0-0.5,0-0.8,0c-0.8,0-0.8,0-0.7-0.8c0.4-5.1,4.4-9.1,9.5-9.5c0.8-0.1,0.8-0.1,0.8,1.1C26.2,6.9,26.2,7,26.2,7.1z"/>
	<path id="Path_354" class="st1" d="M18.8,42.7c-0.9,0-0.9,0-0.9,0.9c0,1.1,0,1.1,1.1,1.1c1,0,1,0,1-0.9C20,42.7,20,42.7,18.8,42.7z
		 M22.9,33.9c-0.3-0.3-0.4-0.3-0.7,0c-1.2,1.2-1.2,1.2,0.1,2.4c0.1,0.1,0.2,0.1,0.2,0.2c0.1-0.1,0.1-0.1,0.2-0.2
		C24.2,35.1,24.2,35.1,22.9,33.9z M23,51.5c-0.1-0.1-0.3-0.2-0.4-0.4c-0.2,0.2-0.3,0.3-0.4,0.4c-1,1-1,1,0,2c0.4,0.4,0.6,0.4,0.9,0
		C24,52.5,24,52.5,23,51.5L23,51.5z M31.3,55.1c-1,0-1,0-1,0.9c0,1.1,0,1.1,1.1,1.1c1,0,1,0,1-0.9C32.4,55.1,32.4,55.1,31.3,55.1
		L31.3,55.1z M31.2,30.4c-0.9,0-0.9,0-0.9,1c0,1.1,0,1.1,1.1,1.1c0.9,0,0.9,0,0.9-1C32.4,30.4,32.4,30.4,31.2,30.4L31.2,30.4z
		 M31.4,35.5c-4.6,0-8.3,3.6-8.3,8.2s3.6,8.3,8.2,8.3s8.3-3.6,8.3-8.2v-0.1C39.6,39.2,35.9,35.5,31.4,35.5L31.4,35.5z M31.3,49.9
		c-3.4,0-6.2-2.8-6.1-6.2c0-3.4,2.8-6.2,6.2-6.1c3.4,0,6.1,2.8,6.1,6.2C37.5,47.2,34.8,49.9,31.3,49.9L31.3,49.9L31.3,49.9z
		 M40.4,33.9c-0.3-0.3-0.5-0.3-0.7,0c-0.3,0.4-1,0.7-0.9,1.1c0,0.4,0.6,0.7,0.9,1.1l0.4,0.4c0.1-0.1,0.2-0.2,0.4-0.3
		C41.5,35,41.5,35,40.4,33.9L40.4,33.9z M41.3,52.3c-1.1-1.3-1.3-1.3-2.4,0c-0.1,0.2-0.2,0.2,0,0.5c1.1,1.4,1.2,1.4,2.4,0.1l0.2-0.2
		c0,0,0.1-0.1,0.1-0.2C41.4,52.4,41.3,52.3,41.3,52.3L41.3,52.3z M43.7,42.7c-1,0-1,0-1,1c0,1.1,0,1.1,1,1.1s1,0,1-1
		C44.7,42.7,44.7,42.7,43.7,42.7L43.7,42.7z M43.7,42.7c-1,0-1,0-1,1c0,1.1,0,1.1,1,1.1s1,0,1-1C44.7,42.7,44.7,42.7,43.7,42.7
		L43.7,42.7z M38.8,52.2c-0.1,0.2-0.2,0.2,0,0.5c1.1,1.4,1.2,1.4,2.4,0.1l0.2-0.2c0,0,0.1-0.1,0.1-0.2l-0.2-0.2
		C40.1,50.9,40,50.9,38.8,52.2L38.8,52.2z M39.7,36.1l0.4,0.4c0.1-0.1,0.2-0.2,0.4-0.3c1.1-1.1,1.1-1.1,0-2.2
		c-0.3-0.3-0.5-0.3-0.7,0c-0.3,0.4-1,0.7-0.9,1.1C38.8,35.4,39.3,35.7,39.7,36.1L39.7,36.1z M31.4,35.5c-4.6,0-8.3,3.6-8.3,8.2
		s3.6,8.3,8.2,8.3s8.3-3.6,8.3-8.2v-0.1C39.5,39.2,35.9,35.5,31.4,35.5L31.4,35.5z M31.3,49.9c-3.4,0-6.2-2.8-6.1-6.2
		c0-3.4,2.8-6.2,6.2-6.1c3.4,0,6.1,2.8,6.1,6.2C37.5,47.2,34.8,49.9,31.3,49.9L31.3,49.9L31.3,49.9z M31.4,32.4c0.9,0,0.9,0,0.9-1
		c0-1.1,0-1.1-1.1-1.1c-0.9,0-0.9,0-0.9,1C30.3,32.4,30.3,32.4,31.4,32.4L31.4,32.4z M31.3,55.1c-1,0-1,0-1,0.9c0,1.1,0,1.1,1.1,1.1
		c1,0,1,0,1-0.9C32.4,55.1,32.4,55.1,31.3,55.1L31.3,55.1z M23,51.5c-0.1-0.1-0.3-0.2-0.4-0.4c-0.2,0.2-0.3,0.3-0.4,0.4
		c-1,1-1,1,0,2c0.4,0.4,0.6,0.4,0.9,0C24,52.5,24,52.5,23,51.5L23,51.5z M22.3,36.2c0.1,0.1,0.2,0.1,0.2,0.2
		c0.1-0.1,0.1-0.1,0.2-0.2c1.4-1.2,1.4-1.1,0.1-2.4c-0.3-0.3-0.4-0.3-0.7,0C21,35.1,21,35.1,22.3,36.2L22.3,36.2z M18.8,42.7
		c-0.9,0-0.9,0-0.9,0.9c0,1.1,0,1.1,1.1,1.1c1,0,1,0,1-0.9C20,42.7,20,42.7,18.8,42.7L18.8,42.7z M52.5,17.5c-0.4,0-0.7-0.4-0.7-0.7
		c-0.7-5.6-5.7-9.6-11.3-9c-0.2,0-0.4,0-0.5,0.1c-0.4,0.1-0.7-0.1-0.9-0.4c-2.6-4.1-7.1-6.7-12-7c-9.8,0-16.8,7.4-16.3,16.3
		c0,0.5-0.1,0.6-0.5,0.7C3.2,19.5-1,26.8,1,33.9c1.5,5.3,6,9.1,11.4,9.7c0.4,0,0.5,0.2,0.5,0.6c0,0.8,0,1.7,0,2.5
		c-0.1,0.6,0.3,1.1,0.9,1.1h0.1c0.9,0.2,1.7,0.3,2.6,0.4c0.8-0.1,1.6,0.5,1.8,1.3c0.1,0.3,0.1,0.7-0.2,1c-0.7,0.9-1.3,1.7-2,2.6
		c-0.4,0.4-0.4,1,0,1.5l0.1,0.1l4.1,4.1c0.3,0.5,1,0.6,1.5,0.2l0.1-0.1c0.7-0.5,1.4-1,2.1-1.6c0.5-0.7,1.5-0.8,2.2-0.3
		c0.3,0.2,0.5,0.3,0.6,0.7c0.1,1.1,0.3,2.3,0.5,3.4c0.1,0.7,0.5,1,1.1,1c2,0,4,0,6.1,0c0.6,0,1-0.4,1.1-0.9l0,0
		c0.2-0.9,0.3-1.7,0.4-2.6c-0.1-0.9,0.5-1.7,1.4-1.8c0.3-0.1,0.7-0.1,0.9,0.1c0.9,0.7,1.7,1.3,2.6,2c0.5,0.6,0.9,0.6,1.5,0
		c1.4-1.4,2.7-2.7,4.1-4.1c0.5-0.3,0.6-1,0.2-1.5l-0.1-0.1c-0.5-0.7-1-1.4-1.6-2.1c-0.7-0.6-0.8-1.5-0.3-2.3
		c0.2-0.3,0.3-0.5,0.7-0.5c1.2-0.1,2.3-0.3,3.4-0.5c0.6,0,1-0.5,1-1.1l0,0c0-0.5,0-1,0-1.5c0-1.4,0-1.4,1.4-1.7
		C58.5,42.2,63.3,35.2,62,28C61.2,23,57.4,18.9,52.5,17.5L52.5,17.5z M47.8,45.6c0,0.4-0.2,0.4-0.4,0.5c-1,0.1-2,0.3-3.1,0.4
		c-0.6,0-1.1,0.4-1.2,0.9c-0.2,0.7-0.5,1.5-0.9,2.1c-0.3,0.4-0.2,1,0.1,1.4c0.6,0.8,1.2,1.7,1.9,2.5c0.2,0.2,0.3,0.4,0,0.7
		c-0.9,0.8-1.7,1.7-2.5,2.5c-0.3,0.3-0.4,0.2-0.7,0c-0.8-0.6-1.7-1.2-2.5-1.9c-0.4-0.4-1.1-0.4-1.5-0.1c-0.7,0.4-1.4,0.7-2.1,0.9
		c-0.6,0.1-1,0.6-1,1.2c-0.1,1-0.3,2-0.4,3.1c0,0.3-0.2,0.5-0.5,0.5c-1.2,0-2.3,0-3.5,0c-0.4,0-0.5-0.2-0.5-0.5c-0.1-1-0.3-2-0.4-3
		c0-0.6-0.4-1.1-0.9-1.2c-0.7-0.2-1.5-0.5-2.1-0.9c-0.2-0.2-0.4-0.2-0.6-0.2c-0.3,0-0.6,0.2-0.9,0.4c-0.8,0.6-1.7,1.2-2.5,1.9
		c-0.3,0.2-0.5,0.2-0.7-0.1c-0.8-0.8-1.6-1.6-2.4-2.4c-0.3-0.3-0.2-0.5,0-0.8c0.6-0.8,1.2-1.6,1.9-2.5c0.4-0.4,0.4-1,0.1-1.4
		c-0.4-0.7-0.7-1.4-0.9-2.1c-0.2-0.7-0.6-1-1.2-1.1c-1-0.1-2.1-0.3-3.1-0.4c-0.3,0-0.5-0.2-0.5-0.5c0-1.2,0-2.3,0-3.5
		c0-0.4,0.2-0.5,0.5-0.5c1-0.1,2-0.3,3-0.4c0.6,0,1.1-0.4,1.2-1c0.2-0.7,0.5-1.4,0.8-2c0.3-0.5,0.3-1.1-0.1-1.5
		c-0.6-0.8-1.2-1.6-1.9-2.5c-0.2-0.3-0.2-0.5,0.1-0.7c0.8-0.8,1.6-1.6,2.4-2.4c0.2-0.3,0.4-0.3,0.7-0.1c0.8,0.6,1.7,1.2,2.5,1.9
		c0.4,0.4,1.1,0.4,1.5,0.1c0.7-0.4,1.4-0.7,2.1-0.9c0.6-0.1,1-0.6,1-1.2c0.1-1,0.3-1.9,0.4-2.9c0-0.5,0.2-0.6,0.7-0.6
		c1.1,0,2.1,0,3.2,0c0.5,0,0.6,0.1,0.7,0.6c0.1,1,0.3,1.9,0.4,2.9c0,0.6,0.4,1.1,1,1.2c0.7,0.2,1.5,0.5,2.1,0.9
		c0.4,0.3,1,0.2,1.4-0.1c0.8-0.6,1.7-1.2,2.5-1.9c0.2-0.2,0.4-0.3,0.7,0c0.8,0.9,1.7,1.7,2.5,2.5c0.3,0.3,0.2,0.4,0,0.7
		c-0.6,0.8-1.2,1.6-1.9,2.5c-0.4,0.4-0.4,1.1-0.1,1.5c0.4,0.6,0.6,1.3,0.8,2c0.1,0.6,0.6,1,1.2,1c1,0.1,2,0.3,3.1,0.4
		c0.3,0,0.5,0.1,0.5,0.5C47.8,43.1,47.8,44.3,47.8,45.6L47.8,45.6z M49.9,41.6c0-2.2-0.5-1.9-2.1-2.1c-0.8-0.1-1.7-0.2-2.5-0.4
		c-0.2,0-0.5-0.2-0.5-0.4c-0.6-1.3-0.6-1.3,0.3-2.5c0.5-0.7,1-1.3,1.5-2c0.4-0.4,0.4-1,0-1.4l-0.1-0.1c-1.4-1.4-2.8-2.8-4.2-4.2
		c-0.3-0.4-0.9-0.5-1.4-0.2c-0.1,0-0.1,0.1-0.1,0.1c-0.9,0.7-1.8,1.4-2.7,2.1c-0.2,0.2-0.6,0.2-0.9,0.1c-0.9-0.2-1.5-1-1.4-1.9
		c-0.1-0.9-0.2-1.7-0.4-2.6c0-0.6-0.5-1-1.1-1c0,0,0,0-0.1,0c-2,0-4,0-6,0c-0.7,0-1,0.3-1.2,1c-0.2,1.1-0.3,2.2-0.5,3.4
		c0,0.3-0.2,0.5-0.5,0.7c-0.7,0.5-1.8,0.4-2.4-0.3c-0.6-0.6-1.3-1.1-2-1.5c-0.4-0.4-1-0.4-1.5,0L20,28.5l-4.1,4.1
		c-0.5,0.3-0.6,1-0.2,1.5l0.1,0.1c0.7,0.9,1.3,1.8,2,2.7c0.2,0.3,0.3,0.6,0.1,0.9c-0.1,0.9-0.9,1.5-1.8,1.4
		c-0.8,0.1-1.6,0.2-2.4,0.3c-1,0.2-1.2,0.4-1.2,1.4v0.6C6.3,41,1.7,35.5,2.2,29.3c0.4-5.1,4.2-9.2,9.2-10.1c1.1-0.2,1.3-0.5,1.2-1.6
		c-0.6-4.4,1-8.7,4.3-11.6c5.8-4.9,14.2-4.5,19.2,1c0.6,0.7,1.2,1.4,1.6,2.3c0.6,1,0.7,1.1,1.9,0.8c4.4-1.1,8.9,1.6,10,6
		c0.2,0.6,0.2,1.2,0.2,1.9c0,0.9,0.2,1.2,1.2,1.4c6.1,1.2,10.1,7.1,8.9,13.2C59,37.5,54.9,41.2,49.9,41.6L49.9,41.6z M43.7,42.7
		c-1,0-1,0-1,1c0,1.1,0,1.1,1,1.1s1,0,1-1C44.7,42.7,44.7,42.7,43.7,42.7L43.7,42.7z M38.8,52.2c-0.1,0.2-0.2,0.2,0,0.5
		c1.1,1.4,1.2,1.4,2.4,0.1l0.2-0.2c0,0,0.1-0.1,0.1-0.2l-0.2-0.2C40.1,50.9,40,50.9,38.8,52.2L38.8,52.2z M39.7,36.1l0.4,0.4
		c0.1-0.1,0.2-0.2,0.4-0.3c1.1-1.1,1.1-1.1,0-2.2c-0.3-0.3-0.5-0.3-0.7,0c-0.3,0.4-1,0.7-0.9,1.1C38.8,35.4,39.3,35.7,39.7,36.1
		L39.7,36.1z M31.4,35.5c-4.6,0-8.3,3.6-8.3,8.2s3.6,8.3,8.2,8.3s8.3-3.6,8.3-8.2v-0.1C39.5,39.2,35.9,35.5,31.4,35.5L31.4,35.5z
		 M31.3,49.9c-3.4,0-6.2-2.8-6.1-6.2c0-3.4,2.8-6.2,6.2-6.1c3.4,0,6.1,2.8,6.1,6.2C37.5,47.2,34.8,49.9,31.3,49.9L31.3,49.9
		L31.3,49.9z M31.4,32.4c0.9,0,0.9,0,0.9-1c0-1.1,0-1.1-1.1-1.1c-0.9,0-0.9,0-0.9,1C30.3,32.4,30.3,32.4,31.4,32.4L31.4,32.4z
		 M31.3,55.1c-1,0-1,0-1,0.9c0,1.1,0,1.1,1.1,1.1c1,0,1,0,1-0.9C32.4,55.1,32.4,55.1,31.3,55.1L31.3,55.1z M23,51.5
		c-0.1-0.1-0.3-0.2-0.4-0.4c-0.2,0.2-0.3,0.3-0.4,0.4c-1,1-1,1,0,2c0.4,0.4,0.6,0.4,0.9,0C24,52.5,24,52.5,23,51.5L23,51.5z
		 M22.3,36.2c0.1,0.1,0.2,0.1,0.2,0.2c0.1-0.1,0.1-0.1,0.2-0.2c1.4-1.2,1.4-1.1,0.1-2.4c-0.3-0.3-0.4-0.3-0.7,0
		C21,35.1,21,35.1,22.3,36.2L22.3,36.2z M18.8,42.7c-0.9,0-0.9,0-0.9,0.9c0,1.1,0,1.1,1.1,1.1c1,0,1,0,1-0.9
		C20,42.7,20,42.7,18.8,42.7L18.8,42.7z"/>
	<path id="Path_355" class="st1" d="M25.6,7.7c-4.1,0.3-7.4,3.6-7.6,7.7c0,0.4-0.2,0.5-0.5,0.5c-0.2,0-0.5,0-0.8,0
		c-0.8,0-0.8,0-0.7-0.8c0.4-5.1,4.4-9.1,9.5-9.5c0.8-0.1,0.8-0.1,0.8,1.1c0,0.1,0,0.3,0,0.4C26.3,7.6,26.1,7.7,25.6,7.7z"/>
	<path id="Path_357" class="st1" d="M31.4,35.5c-4.6,0-8.3,3.6-8.3,8.2s3.6,8.3,8.2,8.3s8.3-3.6,8.3-8.2v-0.1
		C39.6,39.2,35.9,35.5,31.4,35.5z M31.3,49.9c-3.4,0-6.2-2.8-6.1-6.2c0-3.4,2.8-6.2,6.2-6.1c3.4,0,6.1,2.8,6.1,6.2
		C37.5,47.2,34.8,49.9,31.3,49.9L31.3,49.9L31.3,49.9z"/>
	<path id="Path_358" class="st1" d="M22.8,36.2c-0.1,0.1-0.1,0.1-0.2,0.2c-0.1-0.1-0.2-0.1-0.2-0.2c-1.4-1.1-1.4-1.1-0.1-2.4
		c0.3-0.3,0.4-0.3,0.7,0C24.2,35.1,24.2,35.1,22.8,36.2z"/>
	<path id="Path_359" class="st1" d="M40.4,36.1c-0.1,0.1-0.2,0.2-0.4,0.3L39.6,36c-0.3-0.3-0.9-0.7-0.9-1.1c0-0.5,0.6-0.7,0.9-1.1
		c0.2-0.3,0.4-0.3,0.7,0C41.5,35,41.5,35,40.4,36.1z"/>
	<path id="Path_360" class="st1" d="M23,53.5c-0.4,0.4-0.6,0.4-0.9,0c-1-1-1-1,0-2c0.1-0.1,0.3-0.2,0.4-0.4c0.2,0.2,0.3,0.3,0.4,0.4
		C24,52.5,24,52.5,23,53.5z"/>
	<path id="Path_361" class="st1" d="M32.4,31.4c0,1,0,1-0.9,1c-1.1,0-1.1,0-1.1-1.1c0-1,0-1,0.9-1C32.4,30.4,32.4,30.4,32.4,31.4z"
		/>
	<path id="Path_362" class="st1" d="M20,43.8c0,1,0,1-1,1c-1.1,0-1.1,0-1.1-1.1c0-0.9,0-0.9,0.9-0.9C20,42.7,20,42.7,20,43.8z"/>
	<path id="Path_363" class="st1" d="M44.7,43.8c0,1,0,1-1,1s-1,0-1-1.1c0-1,0-1,1-1S44.7,42.7,44.7,43.8z"/>
	<path id="Path_364" class="st1" d="M32.4,56.2c0,0.9,0,0.9-1,0.9c-1.1,0-1.1,0-1.1-1.1c0-0.9,0-0.9,1-0.9
		C32.4,55.1,32.4,55.1,32.4,56.2z"/>
	<path id="Path_365" class="st1" d="M41.5,52.4c0,0.1,0,0.1-0.1,0.2c-0.1,0.1-0.1,0.2-0.2,0.2C40,54,40,54,38.8,52.7
		c-0.2-0.2-0.1-0.3,0-0.5c1.2-1.3,1.3-1.3,2.4,0C41.3,52.3,41.4,52.4,41.5,52.4z"/>
</g>
</svg>
