<?xml version="1.0" encoding="utf-8"?>
<!-- Generator: Adobe Illustrator 23.0.6, SVG Export Plug-In . SVG Version: 6.00 Build 0)  -->
<svg version="1.1" id="Group_496" xmlns="http://www.w3.org/2000/svg" xmlns:xlink="http://www.w3.org/1999/xlink" x="0px" y="0px"
	 viewBox="0 0 38.5 62.3" style="enable-background:new 0 0 38.5 62.3;" xml:space="preserve">
<style type="text/css">
	.st0{stroke:#000000;stroke-width:0.5;stroke-miterlimit:10;}
</style>
<g>
	<path id="Path_338" class="st0" d="M34.3,0.3h-30c-2.3,0.1-4.1,2-4,4.3l0,0v53.2C0.2,60,2,62,4.3,62h30c2.3-0.1,4.1-2,4-4.3V4.6
		C38.5,2.3,36.7,0.3,34.3,0.3z M36.7,57.8c0.1,1.4-1,2.5-2.4,2.6h-30c-1.4-0.1-2.4-1.2-2.4-2.6V4.6C1.9,3.3,3,2,4.3,2h30
		c1.4,0.1,2.4,1.2,2.4,2.6V57.8z"/>
	<path id="Path_339" class="st0" d="M30.5,9.6H8.2C6.4,9.6,5,11,5,12.8v36.5c0,1.8,1.4,3.2,3.2,3.2h22.4c1.8,0,3.2-1.4,3.2-3.2V12.9
		C33.8,11.1,32.3,9.6,30.5,9.6z M30.5,51H8.2c-0.8,0-1.5-0.7-1.5-1.5l0,0V12.9c0-0.8,0.7-1.5,1.5-1.5l0,0h22.4
		c0.8,0,1.5,0.7,1.5,1.5l0,0v36.5C32.1,50.3,31.4,51,30.5,51L30.5,51z"/>
	<path id="Path_340" class="st0" d="M21.7,56.4c0,1.3-1,2.3-2.3,2.3s-2.3-1-2.3-2.3s1-2.3,2.3-2.3l0,0
		C20.6,54.1,21.7,55.2,21.7,56.4z"/>
	<path id="Path_341" class="st0" d="M22.9,3.8h-7.1c-1.1,0-2,1-2,2.1s0.9,2,2,2h7.1c1.1,0,2-0.9,2.1-2C25,4.8,24.1,3.8,22.9,3.8
		L22.9,3.8z M15.8,5.4h7.1c0.2,0,0.3,0.1,0.3,0.3S23.1,6,22.9,6h-7.1c-0.2,0-0.3-0.1-0.3-0.3l0,0C15.5,5.7,15.6,5.4,15.8,5.4
		L15.8,5.4z"/>
</g>
</svg>
