<?xml version="1.0" encoding="utf-8"?>
<!-- Generator: Adobe Illustrator 23.0.6, SVG Export Plug-In . SVG Version: 6.00 Build 0)  -->
<svg version="1.1" id="Layer_1" xmlns="http://www.w3.org/2000/svg" xmlns:xlink="http://www.w3.org/1999/xlink" x="0px" y="0px"
	 viewBox="0 0 75.4 62.7" style="enable-background:new 0 0 75.4 62.7;" xml:space="preserve">
<style type="text/css">
	.st0{stroke:#000000;stroke-miterlimit:10;}
</style>
<g id="Group_487" transform="translate(0 0)">
	<path id="Path_349" class="st0" d="M70.6,0.5h-66C2.2,0.7,0.4,2.7,0.5,5.1v39c-0.1,2.4,1.7,4.4,4.1,4.6h32.2v3.9
		c0,0.2,0.2,0.4,0.4,0.4h1c0.2,0,0.4-0.2,0.4-0.4v-3.9h32.2c2.4-0.2,4.2-2.2,4.1-4.6v-39C74.9,2.7,73,0.7,70.6,0.5z M72.9,44.1
		c0.1,1.4-0.9,2.7-2.3,2.8h-66c-1.4-0.2-2.4-1.4-2.3-2.8v-39C2.2,3.7,3.2,2.5,4.6,2.3h66.1c1.4,0.2,2.4,1.4,2.3,2.8L72.9,44.1
		L72.9,44.1z"/>
	<path id="Path_350" class="st0" d="M65,7.3H10.2c-1.9,0-3.5,1.6-3.5,3.5v27.6c0,1.9,1.6,3.5,3.5,3.5l0,0H65c1.9,0,3.5-1.6,3.5-3.5
		V10.8C68.5,8.9,67,7.3,65,7.3L65,7.3z M65,40.2H10.2c-1,0-1.7-0.8-1.7-1.7V10.8c0-1,0.8-1.7,1.7-1.7H65c1,0,1.7,0.8,1.7,1.7v27.6
		C66.7,39.4,66,40.1,65,40.2L65,40.2z"/>
	<path id="Path_351" class="st0" d="M48.1,54.9h-21c-1.9,0-3.4,1.5-3.5,3.4v0.5c0,1.9,1.5,3.4,3.4,3.4l0,0h20.9
		c1.9,0,3.4-1.5,3.4-3.4v-0.5C51.5,56.4,50,54.9,48.1,54.9L48.1,54.9z M48.1,60.6h-21c-0.9,0-1.7-0.7-1.7-1.7v-0.5
		c0-0.9,0.7-1.7,1.7-1.7H48c0.9,0,1.7,0.7,1.7,1.7v0.5C49.7,59.8,49,60.5,48.1,60.6L48.1,60.6L48.1,60.6z"/>
</g>
</svg>
